<?xml version="1.0" encoding="utf-8"?>
<!-- Generator: Adobe Illustrator 21.1.0, SVG Export Plug-In . SVG Version: 6.00 Build 0)  -->
<svg version="1.1" id="图层_1" xmlns="http://www.w3.org/2000/svg" xmlns:xlink="http://www.w3.org/1999/xlink" x="0px" y="0px"
	 viewBox="0 0 226.8 226.8" style="enable-background:new 0 0 226.8 226.8;" xml:space="preserve">
<style type="text/css">
	.st0{fill:#FF335F;}
	.st1{fill:#00C46E;}
</style>
<polygon id="XMLID_450_" class="st0" points="162,56 212.2,56 212.2,30.2 160,30.2 152.9,25.7 85.8,128.6 152.9,230.6 158,227.5 
	212,227.5 212,201.7 162.6,201.7 115.8,128.6 "/>
<polygon id="XMLID_423_" class="st1" points="116.6,200.5 26.5,200.5 26.5,141.2 79.4,141.2 71.6,128.6 79.6,115.7 26.5,115.7 
	26.5,55.8 116.8,55.8 133.1,29.6 26.5,29.6 0,29.6 0,55.8 0,115.7 0,141.2 0,200.5 0,216.4 0,226.8 133,226.8 "/>
</svg>
