<?xml version="1.0" encoding="utf-8"?>
<!-- Generator: Adobe Illustrator 21.1.0, SVG Export Plug-In . SVG Version: 6.00 Build 0)  -->
<svg version="1.1" id="图层_1" xmlns="http://www.w3.org/2000/svg" xmlns:xlink="http://www.w3.org/1999/xlink" x="0px" y="0px"
	 viewBox="0 0 500 650" style="enable-background:new 0 0 500 650;" xml:space="preserve">
<style type="text/css">
	.st0{fill:#EA6753;}
	.st1{fill:none;stroke:#EA6753;stroke-width:4;stroke-miterlimit:10;}
	.st2{fill:#4285F3;}
	.st3{fill:none;stroke:#057CCE;stroke-width:0.75;stroke-miterlimit:10;}
</style>
<g>
	<circle class="st0" cx="14.8" cy="105.3" r="5.3"/>
	<circle class="st0" cx="14.8" cy="118.4" r="3.5"/>
	<circle class="st0" cx="54.1" cy="144.6" r="16.2"/>
	<circle class="st0" cx="14.8" cy="131.5" r="3.5"/>
	<circle class="st0" cx="14.8" cy="144.6" r="3.5"/>
	<circle class="st0" cx="14.8" cy="157.7" r="3.5"/>
	<circle class="st0" cx="14.8" cy="170.8" r="3.5"/>
	<circle class="st0" cx="14.8" cy="183.9" r="5.3"/>
	<circle class="st0" cx="93.3" cy="105.3" r="5.3"/>
	<circle class="st0" cx="93.3" cy="118.4" r="3.5"/>
	<circle class="st0" cx="93.3" cy="131.5" r="3.5"/>
	<circle class="st0" cx="93.3" cy="144.6" r="3.5"/>
	<circle class="st0" cx="93.3" cy="157.7" r="3.5"/>
	<circle class="st0" cx="93.3" cy="170.8" r="3.5"/>
	<circle class="st0" cx="80.3" cy="105.3" r="3.5"/>
	<circle class="st0" cx="67.2" cy="105.3" r="3.5"/>
	<circle class="st0" cx="54.1" cy="105.3" r="3.5"/>
	<circle class="st0" cx="41" cy="105.3" r="3.5"/>
	<circle class="st0" cx="27.9" cy="105.5" r="3.5"/>
	<circle class="st0" cx="54.1" cy="144.6" r="5.7"/>
	<circle class="st0" cx="80.3" cy="183.9" r="3.5"/>
	<circle class="st0" cx="67.2" cy="183.9" r="3.5"/>
	<circle class="st0" cx="54.1" cy="183.9" r="3.5"/>
	<circle class="st0" cx="41" cy="183.9" r="3.5"/>
	<circle class="st0" cx="27.9" cy="183.9" r="3.5"/>
	<circle class="st0" cx="80.3" cy="223.1" r="3.5"/>
	<circle class="st0" cx="54.1" cy="210" r="3.5"/>
	<circle class="st0" cx="67.2" cy="223.1" r="3.5"/>
	<circle class="st0" cx="54.1" cy="223.1" r="3.5"/>
	<circle class="st0" cx="41" cy="210" r="3.5"/>
	<circle class="st0" cx="67.2" cy="210.1" r="3.5"/>
	<circle class="st0" cx="67.2" cy="235.8" r="3.5"/>
	<circle class="st0" cx="106.4" cy="236.3" r="3.5"/>
	<circle class="st0" cx="93.3" cy="236.2" r="3.5"/>
	<circle class="st0" cx="106.4" cy="223.1" r="3.5"/>
	<circle class="st0" cx="158.8" cy="118.4" r="3.5"/>
	<circle class="st0" cx="158.8" cy="131.6" r="3.5"/>
	<circle class="st0" cx="145.7" cy="118.2" r="3.5"/>
	<circle class="st0" cx="145.7" cy="131.5" r="3.5"/>
	<circle class="st0" cx="119.5" cy="196.9" r="3.5"/>
	<circle class="st0" cx="145.7" cy="157.7" r="3.5"/>
	<circle class="st0" cx="119.5" cy="183.9" r="3.5"/>
	<circle class="st0" cx="250.5" cy="118.4" r="3.5"/>
	<circle class="st0" cx="250.5" cy="131.5" r="3.5"/>
	<circle class="st0" cx="250.5" cy="144.6" r="3.5"/>
	<circle class="st0" cx="185" cy="144.6" r="3.5"/>
	<circle class="st0" cx="171.9" cy="144.6" r="3.5"/>
	<circle class="st0" cx="158.8" cy="144.6" r="3.5"/>
	<circle class="st0" cx="224.3" cy="183.9" r="3.5"/>
	<circle class="st0" cx="224.3" cy="157.7" r="3.5"/>
	<circle class="st0" cx="237.4" cy="157.7" r="3.5"/>
	<circle class="st0" cx="237.4" cy="170.8" r="3.5"/>
	<circle class="st0" cx="250.5" cy="223.1" r="3.5"/>
	<circle class="st0" cx="250.5" cy="236.2" r="3.5"/>
	<circle class="st0" cx="276.7" cy="144.7" r="3.5"/>
	<circle class="st0" cx="250.5" cy="184" r="3.5"/>
	<circle class="st0" cx="316" cy="210.1" r="3.5"/>
	<circle class="st0" cx="289.8" cy="196.9" r="3.5"/>
	<circle class="st0" cx="237.4" cy="223.1" r="3.5"/>
	<circle class="st0" cx="198.1" cy="262.7" r="3.5"/>
	<circle class="st0" cx="171.9" cy="236.2" r="3.5"/>
	<circle class="st0" cx="132.6" cy="249" r="3.5"/>
	<circle class="st0" cx="329.1" cy="171.1" r="3.5"/>
	<circle class="st0" cx="342.2" cy="171.1" r="3.5"/>
	<circle class="st0" cx="276.7" cy="183.9" r="3.5"/>
	<circle class="st0" cx="302.9" cy="183.9" r="3.5"/>
	<circle class="st0" cx="329.1" cy="183.9" r="3.5"/>
	<circle class="st0" cx="355.3" cy="183.9" r="3.5"/>
	<circle class="st0" cx="381.5" cy="183.9" r="3.5"/>
	<circle class="st0" cx="342.2" cy="236.2" r="3.5"/>
	<circle class="st0" cx="198.1" cy="210" r="3.5"/>
	<circle class="st0" cx="211.2" cy="196.9" r="3.5"/>
	<circle class="st0" cx="198.1" cy="196.9" r="3.5"/>
	<circle class="st0" cx="185" cy="223.1" r="3.5"/>
	<circle class="st0" cx="224.3" cy="210" r="3.5"/>
	<circle class="st0" cx="237.4" cy="262.7" r="3.5"/>
	<circle class="st0" cx="224.3" cy="275.5" r="3.5"/>
	<circle class="st0" cx="263.6" cy="275.5" r="3.5"/>
	<circle class="st0" cx="276.7" cy="249.6" r="3.5"/>
	<circle class="st0" cx="250.5" cy="275.7" r="3.5"/>
	<circle class="st0" cx="211.2" cy="210" r="3.5"/>
	<circle class="st0" cx="211.2" cy="249" r="3.5"/>
	<circle class="st0" cx="171.9" cy="275.7" r="3.5"/>
	<circle class="st0" cx="302.9" cy="223.1" r="3.5"/>
	<circle class="st0" cx="289.8" cy="262.7" r="3.5"/>
	<circle class="st0" cx="289.8" cy="223.1" r="3.5"/>
	<circle class="st0" cx="316" cy="249" r="3.5"/>
	<circle class="st0" cx="302.9" cy="249" r="3.5"/>
	<circle class="st0" cx="342.2" cy="262.6" r="3.5"/>
	<circle class="st0" cx="355.3" cy="236.4" r="3.5"/>
	<circle class="st0" cx="368.4" cy="249.5" r="3.5"/>
	<circle class="st0" cx="368.4" cy="236.1" r="3.5"/>
	<circle class="st0" cx="381.5" cy="210.1" r="3.5"/>
	<circle class="st0" cx="381.5" cy="196.7" r="3.5"/>
	<circle class="st0" cx="329.1" cy="262.7" r="3.5"/>
	<circle class="st0" cx="329.1" cy="249.3" r="3.5"/>
	<circle class="st0" cx="407.6" cy="236.4" r="3.5"/>
	<circle class="st0" cx="420.7" cy="223.1" r="3.5"/>
	<circle class="st0" cx="420.7" cy="248.8" r="3.5"/>
	<circle class="st0" cx="381.5" cy="262.7" r="3.5"/>
	<circle class="st0" cx="355.3" cy="262.2" r="3.5"/>
	<circle class="st0" cx="381.5" cy="301.7" r="3.5"/>
	<circle class="st0" cx="316" cy="314.7" r="3.5"/>
	<circle class="st0" cx="460" cy="262.5" r="3.5"/>
	<circle class="st0" cx="420.7" cy="262.7" r="3.5"/>
	<circle class="st0" cx="460" cy="275.5" r="3.5"/>
	<circle class="st0" cx="473.1" cy="288.8" r="3.5"/>
	<circle class="st0" cx="446.9" cy="289" r="3.5"/>
	<circle class="st0" cx="407.6" cy="223" r="3.5"/>
	<circle class="st0" cx="394.5" cy="275.5" r="3.5"/>
	<circle class="st0" cx="381.5" cy="236.4" r="3.5"/>
	<circle class="st0" cx="420.7" cy="328" r="3.5"/>
	<circle class="st0" cx="446.9" cy="275.7" r="3.5"/>
	<circle class="st0" cx="446.9" cy="262.3" r="3.5"/>
	<circle class="st0" cx="460" cy="236.2" r="3.5"/>
	<circle class="st0" cx="460" cy="222.9" r="3.5"/>
	<circle class="st0" cx="460" cy="209.5" r="3.5"/>
	<circle class="st0" cx="276.7" cy="223.1" r="3.5"/>
	<circle class="st0" cx="263.6" cy="249.3" r="3.5"/>
	<circle class="st0" cx="171.9" cy="183.9" r="3.5"/>
	<circle class="st0" cx="145.7" cy="183.9" r="3.5"/>
	<circle class="st0" cx="145.7" cy="210" r="3.5"/>
	<circle class="st0" cx="224.3" cy="223.1" r="3.5"/>
	<circle class="st0" cx="198.1" cy="236.4" r="3.5"/>
	<circle class="st0" cx="185" cy="236.4" r="3.5"/>
	<circle class="st0" cx="132.6" cy="301.8" r="3.5"/>
	<circle class="st0" cx="158.8" cy="302" r="3.5"/>
	<circle class="st0" cx="145.7" cy="302" r="3.5"/>
	<circle class="st0" cx="198.1" cy="275.5" r="3.5"/>
	<circle class="st0" cx="342.2" cy="275.5" r="3.5"/>
	<circle class="st0" cx="316" cy="288.7" r="3.5"/>
	<circle class="st0" cx="316" cy="301.6" r="3.5"/>
	<circle class="st0" cx="329.1" cy="314.9" r="3.5"/>
	<circle class="st0" cx="342.2" cy="314.9" r="3.5"/>
	<circle class="st0" cx="407.6" cy="249.2" r="3.5"/>
	<circle class="st0" cx="407.6" cy="262.5" r="3.5"/>
	<circle class="st0" cx="407.6" cy="288.8" r="3.5"/>
	<circle class="st0" cx="486.2" cy="341.2" r="3.5"/>
	<circle class="st0" cx="486.2" cy="301.7" r="3.5"/>
	<circle class="st0" cx="486.2" cy="446" r="3.5"/>
	<circle class="st0" cx="460" cy="432.5" r="3.5"/>
	<circle class="st0" cx="460" cy="445.8" r="3.5"/>
	<circle class="st0" cx="433.8" cy="498.4" r="3.5"/>
	<circle class="st0" cx="433.8" cy="485.1" r="3.5"/>
	<circle class="st0" cx="433.8" cy="511.4" r="3.5"/>
	<circle class="st0" cx="486.2" cy="235.9" r="3.5"/>
	<circle class="st0" cx="486.2" cy="262.2" r="3.5"/>
	<circle class="st0" cx="433.8" cy="262.5" r="3.5"/>
	<circle class="st0" cx="486.2" cy="288.3" r="3.5"/>
	<circle class="st0" cx="394.5" cy="433.2" r="3.5"/>
	<circle class="st0" cx="394.5" cy="419.8" r="3.5"/>
	<circle class="st0" cx="355.3" cy="445.9" r="3.5"/>
	<circle class="st0" cx="381.5" cy="419.8" r="3.5"/>
	<circle class="st0" cx="420.7" cy="406.9" r="3.5"/>
	<circle class="st0" cx="460" cy="367.4" r="3.5"/>
	<circle class="st0" cx="394.5" cy="472.2" r="3.5"/>
	<circle class="st0" cx="381.5" cy="485.1" r="3.5"/>
	<circle class="st0" cx="407.6" cy="498.1" r="3.5"/>
	<circle class="st0" cx="355.3" cy="498.3" r="3.5"/>
	<circle class="st0" cx="355.3" cy="511.2" r="3.5"/>
	<circle class="st0" cx="329.1" cy="275.5" r="3.5"/>
	<circle class="st0" cx="316" cy="275.5" r="3.5"/>
	<circle class="st0" cx="473.1" cy="341" r="3.5"/>
	<circle class="st0" cx="433.8" cy="314.7" r="3.5"/>
	<circle class="st0" cx="486.2" cy="393.4" r="3.5"/>
	<circle class="st0" cx="446.9" cy="406.4" r="3.5"/>
	<circle class="st0" cx="420.7" cy="314.7" r="3.5"/>
	<circle class="st0" cx="473.1" cy="472.3" r="3.5"/>
	<circle class="st0" cx="460" cy="472.1" r="3.5"/>
	<circle class="st0" cx="473.1" cy="432.7" r="3.5"/>
	<circle class="st0" cx="433.8" cy="472.1" r="3.5"/>
	<circle class="st0" cx="486.2" cy="511.5" r="3.5"/>
	<circle class="st0" cx="446.9" cy="498.1" r="3.5"/>
	<circle class="st0" cx="433.8" cy="524.3" r="3.5"/>
	<circle class="st0" cx="446.9" cy="550.6" r="3.5"/>
	<circle class="st0" cx="446.9" cy="563.6" r="3.5"/>
	<circle class="st0" cx="446.9" cy="576.5" r="3.5"/>
	<circle class="st0" cx="342.2" cy="485.1" r="3.5"/>
	<circle class="st0" cx="368.4" cy="446.2" r="3.5"/>
	<circle class="st0" cx="329.1" cy="485.1" r="3.5"/>
	<circle class="st0" cx="342.2" cy="524.5" r="3.5"/>
	<circle class="st0" cx="368.4" cy="524.3" r="3.5"/>
	<circle class="st0" cx="329.1" cy="498.1" r="3.5"/>
	<circle class="st0" cx="329.1" cy="524.2" r="3.5"/>
	<circle class="st0" cx="355.3" cy="550.6" r="3.5"/>
	<circle class="st0" cx="355.3" cy="563.6" r="3.5"/>
	<circle class="st0" cx="302.9" cy="550.6" r="3.5"/>
	<circle class="st0" cx="329.1" cy="537.5" r="3.5"/>
	<circle class="st0" cx="276.7" cy="537.5" r="3.5"/>
	<circle class="st0" cx="263.6" cy="550.6" r="3.5"/>
	<circle class="st0" cx="276.7" cy="550.6" r="3.5"/>
	<circle class="st0" cx="276.7" cy="524.4" r="3.5"/>
	<circle class="st0" cx="263.6" cy="524.5" r="3.5"/>
	<circle class="st0" cx="211.2" cy="498.1" r="3.5"/>
	<circle class="st0" cx="316" cy="511.2" r="3.5"/>
	<circle class="st0" cx="289.8" cy="511.3" r="3.5"/>
	<circle class="st0" cx="263.6" cy="498.1" r="3.5"/>
	<circle class="st0" cx="302.9" cy="576.9" r="3.5"/>
	<circle class="st0" cx="250.5" cy="498.2" r="3.5"/>
	<circle class="st0" cx="250.5" cy="511.2" r="3.5"/>
	<circle class="st0" cx="289.8" cy="576.8" r="3.5"/>
	<circle class="st0" cx="276.7" cy="576.9" r="3.5"/>
	<circle class="st0" cx="302.9" cy="524.5" r="3.5"/>
	<circle class="st0" cx="289.8" cy="524.5" r="3.5"/>
	<circle class="st0" cx="250.5" cy="524.4" r="3.5"/>
	<circle class="st0" cx="263.6" cy="576.5" r="3.5"/>
	<circle class="st0" cx="237.4" cy="563.7" r="3.5"/>
	<circle class="st0" cx="237.4" cy="576.6" r="3.5"/>
	<circle class="st0" cx="224.3" cy="550.6" r="3.5"/>
	<circle class="st0" cx="224.3" cy="563.6" r="3.5"/>
	<circle class="st0" cx="329.1" cy="445.8" r="3.5"/>
	<circle class="st0" cx="237.4" cy="458.8" r="3.5"/>
	<circle class="st0" cx="224.3" cy="458.7" r="3.5"/>
	<circle class="st0" cx="289.8" cy="498.5" r="3.5"/>
	<circle class="st0" cx="276.7" cy="498.5" r="3.5"/>
	<circle class="st0" cx="211.2" cy="444.9" r="3.5"/>
	<circle class="st0" cx="289.8" cy="485.1" r="3.5"/>
	<circle class="st0" cx="289.8" cy="472.2" r="3.5"/>
	<circle class="st0" cx="355.3" cy="458.9" r="3.5"/>
	<circle class="st0" cx="381.5" cy="446" r="3.5"/>
	<circle class="st0" cx="420.7" cy="524.3" r="3.5"/>
	<circle class="st0" cx="407.6" cy="524.3" r="3.5"/>
	<circle class="st0" cx="420.7" cy="301.8" r="3.5"/>
	<circle class="st0" cx="407.6" cy="301.8" r="3.5"/>
	<circle class="st0" cx="433.8" cy="341.3" r="3.5"/>
	<circle class="st0" cx="433.8" cy="419.8" r="3.5"/>
	<circle class="st0" cx="486.2" cy="406.4" r="3.5"/>
	<circle class="st0" cx="473.1" cy="458.8" r="3.5"/>
	<circle class="st0" cx="473.1" cy="511.4" r="3.5"/>
	<circle class="st0" cx="486.2" cy="563.7" r="3.5"/>
	<circle class="st0" cx="486.2" cy="550.5" r="3.5"/>
	<circle class="st0" cx="460" cy="524.5" r="3.5"/>
	<circle class="st0" cx="460" cy="576.9" r="3.5"/>
	<circle class="st0" cx="486.2" cy="576.8" r="3.5"/>
	<circle class="st0" cx="473.1" cy="576.7" r="3.5"/>
	<circle class="st0" cx="368.4" cy="576.9" r="3.5"/>
	<circle class="st0" cx="355.3" cy="576.9" r="3.5"/>
	<circle class="st0" cx="460" cy="537.4" r="3.5"/>
	<circle class="st0" cx="407.6" cy="576.8" r="3.5"/>
	<circle class="st0" cx="394.5" cy="576.7" r="3.5"/>
	<circle class="st0" cx="407.6" cy="563.7" r="3.5"/>
	<circle class="st0" cx="381.5" cy="563.6" r="3.5"/>
	<circle class="st0" cx="368.4" cy="563.7" r="3.5"/>
	<circle class="st0" cx="460" cy="550.5" r="3.5"/>
	<circle class="st0" cx="460" cy="419.6" r="3.5"/>
	<circle class="st0" cx="368.4" cy="486" r="3.5"/>
	<circle class="st0" cx="433.8" cy="445.8" r="3.5"/>
	<circle class="st0" cx="407.6" cy="380.3" r="3.5"/>
	<circle class="st0" cx="394.5" cy="367.2" r="3.5"/>
	<circle class="st0" cx="381.5" cy="354" r="3.5"/>
	<circle class="st0" cx="394.5" cy="314.9" r="3.5"/>
	<circle class="st0" cx="407.6" cy="314.8" r="3.5"/>
	<circle class="st0" cx="394.5" cy="327.9" r="3.5"/>
	<circle class="st0" cx="381.5" cy="327.8" r="3.5"/>
	<circle class="st0" cx="394.5" cy="301.8" r="3.5"/>
	<circle class="st0" cx="368.4" cy="301.7" r="3.5"/>
	<circle class="st0" cx="368.4" cy="288.6" r="3.5"/>
	<circle class="st0" cx="433.8" cy="354.2" r="3.5"/>
	<circle class="st0" cx="433.8" cy="367.2" r="3.5"/>
	<circle class="st0" cx="407.6" cy="354.2" r="3.5"/>
	<circle class="st0" cx="420.7" cy="354.1" r="3.5"/>
	<circle class="st0" cx="407.6" cy="367.2" r="3.5"/>
	<circle class="st0" cx="420.7" cy="367.1" r="3.5"/>
	<circle class="st0" cx="473.1" cy="393.4" r="3.5"/>
	<circle class="st0" cx="460" cy="380.3" r="3.5"/>
	<circle class="st0" cx="460" cy="393.3" r="3.5"/>
	<circle class="st0" cx="394.5" cy="393.5" r="3.5"/>
	<circle class="st0" cx="420.7" cy="380.3" r="3.5"/>
	<circle class="st0" cx="381.5" cy="393.4" r="3.5"/>
	<circle class="st0" cx="381.5" cy="406.4" r="3.5"/>
	<circle class="st0" cx="329.1" cy="419.7" r="3.5"/>
	<circle class="st0" cx="329.1" cy="406.4" r="3.5"/>
	<circle class="st0" cx="316" cy="419.5" r="3.5"/>
	<circle class="st0" cx="276.7" cy="485.1" r="3.5"/>
	<circle class="st0" cx="316" cy="472.1" r="3.5"/>
	<circle class="st0" cx="316" cy="485.1" r="3.5"/>
	<circle class="st0" cx="446.9" cy="367.1" r="3.5"/>
	<circle class="st0" cx="381.5" cy="471.9" r="3.5"/>
	<circle class="st0" cx="394.5" cy="380.3" r="3.5"/>
	<circle class="st0" cx="368.4" cy="471.9" r="3.5"/>
	<circle class="st0" cx="355.3" cy="472.4" r="3.5"/>
	<circle class="st0" cx="420.7" cy="471.9" r="3.5"/>
	<circle class="st0" cx="342.2" cy="472.3" r="3.5"/>
	<circle class="st0" cx="407.6" cy="471.9" r="3.5"/>
	<circle class="st0" cx="473.1" cy="445.8" r="3.5"/>
	<circle class="st0" cx="486.2" cy="498.1" r="3.5"/>
	<circle class="st0" cx="473.1" cy="485.1" r="3.5"/>
	<circle class="st0" cx="473.1" cy="498.1" r="3.5"/>
	<circle class="st0" cx="394.5" cy="524.4" r="3.5"/>
	<circle class="st0" cx="381.5" cy="550.8" r="3.5"/>
	<circle class="st0" cx="381.5" cy="524.4" r="3.5"/>
	<circle class="st0" cx="368.4" cy="550.7" r="3.5"/>
	<circle class="st0" cx="381.5" cy="498.3" r="3.5"/>
	<circle class="st0" cx="381.5" cy="511.2" r="3.5"/>
	<circle class="st0" cx="368.4" cy="498.2" r="3.5"/>
	<circle class="st0" cx="420.7" cy="550.6" r="3.5"/>
	<circle class="st0" cx="368.4" cy="537.5" r="3.5"/>
	<circle class="st0" cx="420.7" cy="537.4" r="3.5"/>
	<circle class="st0" cx="329.1" cy="550.6" r="3.5"/>
	<circle class="st0" cx="407.6" cy="537.3" r="3.5"/>
	<circle class="st0" cx="237.4" cy="498.1" r="3.5"/>
	<circle class="st0" cx="237.4" cy="524.3" r="3.5"/>
	<circle class="st0" cx="224.3" cy="511.3" r="3.5"/>
	<circle class="st0" cx="224.3" cy="498.5" r="3.5"/>
	<circle class="st0" cx="302.9" cy="472" r="3.5"/>
	<circle class="st0" cx="302.9" cy="485" r="3.5"/>
	<circle class="st0" cx="263.6" cy="472" r="3.5"/>
	<circle class="st0" cx="250.5" cy="485.1" r="3.5"/>
	<circle class="st0" cx="250.5" cy="458.6" r="3.5"/>
	<circle class="st0" cx="302.9" cy="498.5" r="3.5"/>
	<circle class="st0" cx="145.7" cy="498.2" r="3.5"/>
	<circle class="st0" cx="198.1" cy="484.7" r="3.5"/>
	<circle class="st0" cx="119.5" cy="524.5" r="3.5"/>
	<circle class="st0" cx="171.9" cy="524.2" r="3.5"/>
	<circle class="st0" cx="145.7" cy="538.2" r="3.5"/>
	<circle class="st0" cx="145.7" cy="551.2" r="3.5"/>
	<circle class="st0" cx="198.1" cy="498.5" r="3.5"/>
	<circle class="st0" cx="185" cy="563.6" r="3.5"/>
	<circle class="st0" cx="145.7" cy="563.8" r="3.5"/>
	<circle class="st0" cx="132.6" cy="550.4" r="3.5"/>
	<circle class="st0" cx="185" cy="576.2" r="3.5"/>
	<circle class="st0" cx="158.8" cy="576.6" r="3.5"/>
	<circle class="st0" cx="158.8" cy="459" r="3.5"/>
	<circle class="st0" cx="171.9" cy="445.8" r="3.5"/>
	<circle class="st0" cx="185" cy="432.7" r="3.5"/>
	<circle class="st0" cx="185" cy="445.7" r="3.5"/>
	<circle class="st0" cx="342.2" cy="288.7" r="3.5"/>
	<circle class="st0" cx="355.3" cy="288.6" r="3.5"/>
	<circle class="st0" cx="329.1" cy="301.8" r="3.5"/>
	<circle class="st0" cx="355.3" cy="301.6" r="3.5"/>
	<circle class="st0" cx="342.2" cy="210.1" r="3.5"/>
	<circle class="st0" cx="355.3" cy="210.1" r="3.5"/>
	<circle class="st0" cx="355.3" cy="249.3" r="3.5"/>
	<circle class="st0" cx="355.3" cy="223" r="3.5"/>
	<circle class="st0" cx="302.9" cy="197" r="3.5"/>
	<circle class="st0" cx="302.9" cy="210" r="3.5"/>
	<circle class="st0" cx="381.5" cy="158.1" r="3.5"/>
	<circle class="st0" cx="368.4" cy="171.1" r="3.5"/>
	<circle class="st0" cx="381.5" cy="171" r="3.5"/>
	<circle class="st0" cx="368.4" cy="144.5" r="3.5"/>
	<circle class="st0" cx="381.5" cy="144.5" r="3.5"/>
	<circle class="st0" cx="381.5" cy="118.9" r="3.5"/>
	<circle class="st0" cx="381.5" cy="105.3" r="3.5"/>
	<circle class="st0" cx="355.3" cy="118.4" r="3.5"/>
	<circle class="st0" cx="368.4" cy="118.3" r="3.5"/>
	<circle class="st0" cx="276.7" cy="131.5" r="3.5"/>
	<circle class="st0" cx="263.6" cy="131.6" r="3.5"/>
	<circle class="st0" cx="263.6" cy="118.4" r="3.5"/>
	<circle class="st0" cx="237.4" cy="144.7" r="3.5"/>
	<circle class="st0" cx="237.4" cy="131.5" r="3.5"/>
	<circle class="st0" cx="289.8" cy="131.5" r="3.5"/>
	<circle class="st0" cx="198.1" cy="105.6" r="3.5"/>
	<circle class="st0" cx="211.2" cy="105.6" r="3.5"/>
	<circle class="st0" cx="263.6" cy="170.7" r="3.5"/>
	<circle class="st0" cx="276.7" cy="170.6" r="3.5"/>
	<circle class="st0" cx="289.8" cy="236.1" r="3.5"/>
	<circle class="st0" cx="263.6" cy="197.1" r="3.5"/>
	<circle class="st0" cx="250.5" cy="210.1" r="3.5"/>
	<circle class="st0" cx="263.6" cy="236.2" r="3.5"/>
	<circle class="st0" cx="158.8" cy="197.1" r="3.5"/>
	<circle class="st0" cx="158.8" cy="170.7" r="3.5"/>
	<circle class="st0" cx="171.9" cy="223.1" r="3.5"/>
	<circle class="st0" cx="171.9" cy="210" r="3.5"/>
	<circle class="st0" cx="145.7" cy="432.7" r="3.5"/>
	<circle class="st0" cx="158.8" cy="340.9" r="3.5"/>
	<circle class="st0" cx="171.9" cy="131.6" r="3.5"/>
	<circle class="st0" cx="185" cy="131.6" r="3.5"/>
	<circle class="st0" cx="171.9" cy="118.4" r="3.5"/>
	<circle class="st0" cx="185" cy="118.4" r="3.5"/>
	<circle class="st0" cx="119.5" cy="105.4" r="3.5"/>
	<circle class="st0" cx="132.6" cy="131.5" r="3.5"/>
	<circle class="st0" cx="119.5" cy="131.5" r="3.5"/>
	<circle class="st0" cx="119.5" cy="118.4" r="3.5"/>
	<circle class="st0" cx="132.6" cy="118.3" r="3.5"/>
	<circle class="st0" cx="119.5" cy="210.1" r="3.5"/>
	<circle class="st0" cx="132.6" cy="210" r="3.5"/>
	<circle class="st0" cx="119.5" cy="170.7" r="3.5"/>
	<circle class="st0" cx="132.6" cy="170.7" r="3.5"/>
	<circle class="st0" cx="54.1" cy="249.4" r="3.5"/>
	<circle class="st0" cx="67.2" cy="249.3" r="3.5"/>
	<circle class="st0" cx="54.1" cy="262.4" r="3.5"/>
	<circle class="st0" cx="106.4" cy="262.3" r="3.5"/>
	<circle class="st0" cx="14.8" cy="236.3" r="3.5"/>
	<circle class="st0" cx="80.3" cy="249.4" r="3.5"/>
	<circle class="st0" cx="14.8" cy="223.1" r="3.5"/>
	<circle class="st0" cx="80.3" cy="262.4" r="3.5"/>
	<circle class="st0" cx="473.1" cy="210.1" r="3.5"/>
	<circle class="st0" cx="486.2" cy="210" r="3.5"/>
	<circle class="st0" cx="394.5" cy="210.1" r="3.5"/>
	<circle class="st0" cx="407.6" cy="210" r="3.5"/>
	<circle class="st0" cx="355.3" cy="315.1" r="3.5"/>
	<circle class="st0" cx="368.4" cy="315" r="3.5"/>
	<circle class="st0" cx="342.2" cy="341" r="3.5"/>
	<circle class="st0" cx="355.3" cy="340.9" r="3.5"/>
	<circle class="st0" cx="473.1" cy="354.2" r="3.5"/>
	<circle class="st0" cx="460" cy="315" r="3.5"/>
	<circle class="st0" cx="446.9" cy="328" r="3.5"/>
	<circle class="st0" cx="460" cy="328" r="3.5"/>
	<circle class="st0" cx="355.3" cy="367.2" r="3.5"/>
	<circle class="st0" cx="316" cy="367.3" r="3.5"/>
	<circle class="st0" cx="316" cy="380.3" r="3.5"/>
	<circle class="st0" cx="329.1" cy="393.4" r="3.5"/>
	<circle class="st0" cx="342.2" cy="393.5" r="3.5"/>
	<circle class="st0" cx="407.6" cy="419.6" r="3.5"/>
	<circle class="st0" cx="420.7" cy="432.7" r="3.5"/>
	<circle class="st0" cx="368.4" cy="394.1" r="3.5"/>
	<circle class="st0" cx="355.3" cy="419.5" r="3.5"/>
	<circle class="st0" cx="420.7" cy="210" r="3.5"/>
	<circle class="st0" cx="316" cy="144.7" r="3.5"/>
	<circle class="st0" cx="329.1" cy="144.6" r="3.5"/>
	<circle class="st0" cx="342.2" cy="144.6" r="3.5"/>
	<circle class="st0" cx="355.3" cy="144.6" r="3.5"/>
	<circle class="st0" cx="185" cy="275.5" r="3.5"/>
	<circle class="st0" cx="119.5" cy="288.6" r="3.5"/>
	<circle class="st0" cx="80.3" cy="327.9" r="3.5"/>
	<circle class="st0" cx="93.3" cy="314.8" r="3.5"/>
	<circle class="st0" cx="93.3" cy="341" r="3.5"/>
	<circle class="st0" cx="132.6" cy="354.1" r="3.5"/>
	<circle class="st0" cx="145.7" cy="354.2" r="3.5"/>
	<circle class="st0" cx="158.8" cy="354.1" r="3.5"/>
	<circle class="st0" cx="145.7" cy="314.8" r="3.5"/>
	<circle class="st0" cx="93.3" cy="367.2" r="3.5"/>
	<circle class="st0" cx="80.3" cy="432.8" r="3.5"/>
	<circle class="st0" cx="106.4" cy="406.5" r="3.5"/>
	<circle class="st0" cx="54.1" cy="432.8" r="3.5"/>
	<circle class="st0" cx="106.4" cy="432.7" r="3.5"/>
	<circle class="st0" cx="93.3" cy="419.6" r="3.5"/>
	<circle class="st0" cx="67.2" cy="327.9" r="3.5"/>
	<circle class="st0" cx="80.3" cy="367.2" r="3.5"/>
	<circle class="st0" cx="119.5" cy="354.1" r="3.5"/>
	<circle class="st0" cx="119.5" cy="327.9" r="3.5"/>
	<circle class="st0" cx="80.3" cy="354.1" r="3.5"/>
	<circle class="st0" cx="67.2" cy="354.1" r="3.5"/>
	<circle class="st0" cx="54.1" cy="354.1" r="3.5"/>
	<circle class="st0" cx="41" cy="354.1" r="3.5"/>
	<circle class="st0" cx="14.8" cy="354.1" r="3.5"/>
	<circle class="st0" cx="27.9" cy="380.3" r="3.5"/>
	<circle class="st0" cx="27.9" cy="367.2" r="3.5"/>
	<circle class="st0" cx="14.8" cy="380.3" r="3.5"/>
	<circle class="st0" cx="14.8" cy="445.8" r="3.5"/>
	<circle class="st0" cx="14.8" cy="406.5" r="3.5"/>
	<circle class="st0" cx="93.3" cy="393.4" r="3.5"/>
	<circle class="st0" cx="67.2" cy="432.7" r="3.5"/>
	<circle class="st0" cx="67.2" cy="419.6" r="3.5"/>
	<circle class="st0" cx="80.3" cy="393.4" r="3.5"/>
	<circle class="st0" cx="158.8" cy="380.3" r="3.5"/>
	<circle class="st0" cx="145.7" cy="367.2" r="3.5"/>
	<circle class="st0" cx="119.5" cy="341" r="3.5"/>
	<circle class="st0" cx="132.6" cy="393.4" r="3.5"/>
	<circle class="st0" cx="132.6" cy="367.2" r="3.5"/>
	<circle class="st0" cx="132.6" cy="380.3" r="3.5"/>
	<circle class="st0" cx="171.9" cy="288.6" r="3.5"/>
	<circle class="st0" cx="171.9" cy="314.8" r="3.5"/>
	<circle class="st0" cx="171.9" cy="341" r="3.5"/>
	<circle class="st0" cx="185" cy="354.1" r="3.5"/>
	<circle class="st0" cx="185" cy="380.3" r="3.5"/>
	<circle class="st0" cx="185" cy="367.2" r="3.5"/>
	<circle class="st0" cx="158.8" cy="419.6" r="3.5"/>
	<circle class="st0" cx="145.7" cy="458.8" r="3.5"/>
	<circle class="st0" cx="158.8" cy="472" r="3.5"/>
	<circle class="st0" cx="185" cy="419.6" r="3.5"/>
	<circle class="st0" cx="185" cy="458.9" r="3.5"/>
	<circle class="st0" cx="185" cy="498.1" r="3.5"/>
	<circle class="st0" cx="198.1" cy="550.5" r="3.5"/>
	<circle class="st0" cx="185" cy="550.5" r="3.5"/>
	<circle class="st0" cx="211.2" cy="550.6" r="3.5"/>
	<circle class="st0" cx="224.3" cy="576.6" r="3.5"/>
	<circle class="st0" cx="171.9" cy="563.4" r="3.5"/>
	<circle class="st0" cx="185" cy="524.3" r="3.5"/>
	<circle class="st0" cx="145.7" cy="419.6" r="3.5"/>
	<circle class="st0" cx="132.6" cy="419.6" r="3.5"/>
	<circle class="st0" cx="171.9" cy="406.5" r="3.5"/>
	<circle class="st0" cx="132.6" cy="459" r="3.5"/>
	<circle class="st0" cx="41" cy="393.4" r="3.5"/>
	<circle class="st0" cx="41" cy="406.5" r="3.5"/>
	<circle class="st0" cx="41" cy="419.6" r="3.5"/>
	<circle class="st0" cx="14.8" cy="393.4" r="3.5"/>
	<circle class="st0" cx="27.9" cy="432.7" r="3.5"/>
	<circle class="st0" cx="27.9" cy="393.4" r="3.5"/>
	<circle class="st0" cx="14.8" cy="458.9" r="3.5"/>
	<circle class="st0" cx="14.8" cy="432.7" r="3.5"/>
	<circle class="st0" cx="14.8" cy="472" r="3.5"/>
	<circle class="st0" cx="106.4" cy="288.6" r="3.5"/>
	<circle class="st0" cx="93.3" cy="288.6" r="3.5"/>
	<circle class="st0" cx="80.3" cy="406.5" r="3.5"/>
	<circle class="st0" cx="198.1" cy="472.2" r="3.5"/>
	<circle class="st0" cx="171.9" cy="472" r="3.5"/>
	<circle class="st0" cx="198.1" cy="458.9" r="3.5"/>
	<circle class="st0" cx="211.2" cy="458.9" r="3.5"/>
	<circle class="st0" cx="276.7" cy="445.7" r="3.5"/>
	<circle class="st0" cx="250.5" cy="445.9" r="3.5"/>
	<circle class="st0" cx="263.6" cy="445.9" r="3.5"/>
	<circle class="st0" cx="224.3" cy="406.4" r="3.5"/>
	<circle class="st0" cx="158.8" cy="445.8" r="3.5"/>
	<circle class="st0" cx="237.4" cy="419.6" r="3.5"/>
	<circle class="st0" cx="316" cy="446.1" r="3.5"/>
	<circle class="st0" cx="198.1" cy="445.7" r="3.5"/>
	<circle class="st0" cx="263.6" cy="485.1" r="3.5"/>
	<circle class="st0" cx="289.8" cy="432.7" r="3.5"/>
	<circle class="st0" cx="263.6" cy="419.6" r="3.5"/>
	<circle class="st0" cx="289.8" cy="445.7" r="3.5"/>
	<circle class="st0" cx="198.1" cy="406.6" r="3.5"/>
	<circle class="st0" cx="211.2" cy="406.6" r="3.5"/>
	<circle class="st0" cx="276.7" cy="419.8" r="3.5"/>
	<circle class="st0" cx="302.9" cy="419.8" r="3.5"/>
	<circle class="st0" cx="263.6" cy="406.8" r="3.5"/>
	<circle class="st0" cx="289.8" cy="406.9" r="3.5"/>
	<circle class="st0" cx="316" cy="458.8" r="3.5"/>
	<circle class="st0" cx="211.2" cy="432.7" r="3.5"/>
	<circle class="st0" cx="237.4" cy="432.5" r="3.5"/>
	<circle class="st0" cx="185" cy="472.1" r="3.5"/>
	<circle class="st0" cx="67.2" cy="406.5" r="3.5"/>
	<circle class="st0" cx="119.5" cy="458.9" r="3.5"/>
	<circle class="st0" cx="41" cy="472" r="3.5"/>
	<circle class="st0" cx="93.3" cy="472" r="3.5"/>
	<circle class="st0" cx="80.3" cy="472" r="3.5"/>
	<circle class="st0" cx="67.2" cy="472.1" r="3.5"/>
	<circle class="st0" cx="54.1" cy="406.5" r="3.5"/>
	<circle class="st0" cx="93.3" cy="445.8" r="3.5"/>
	<circle class="st0" cx="54.1" cy="419.6" r="3.5"/>
	<circle class="st0" cx="67.2" cy="445.8" r="3.5"/>
	<circle class="st0" cx="54.1" cy="445.8" r="3.5"/>
	<circle class="st0" cx="54.1" cy="458.9" r="3.5"/>
	<circle class="st0" cx="119.5" cy="472.2" r="3.5"/>
	<circle class="st0" cx="106.4" cy="472.2" r="3.5"/>
	<circle class="st0" cx="119.5" cy="445.8" r="3.5"/>
	<circle class="st0" cx="132.6" cy="511.2" r="3.5"/>
	<circle class="st0" cx="132.6" cy="524.3" r="3.5"/>
	<circle class="st0" cx="119.5" cy="537.7" r="3.5"/>
	<circle class="st0" cx="145.7" cy="511.3" r="3.5"/>
	<circle class="st0" cx="119.5" cy="550.5" r="3.5"/>
	<circle class="st0" cx="132.6" cy="563.6" r="3.5"/>
	<circle class="st0" cx="145.7" cy="485.1" r="3.5"/>
	<circle class="st0" cx="132.6" cy="485.1" r="3.5"/>
	<circle class="st0" cx="119.5" cy="485.1" r="3.5"/>
	<circle class="st0" cx="145.7" cy="262.4" r="3.5"/>
	<circle class="st0" cx="132.6" cy="275.7" r="3.5"/>
	<circle class="st0" cx="145.7" cy="275.5" r="3.5"/>
	<circle class="st0" cx="145.7" cy="223.1" r="3.5"/>
	<circle class="st0" cx="158.8" cy="223.1" r="3.5"/>
	<circle class="st0" cx="185" cy="262.4" r="3.5"/>
	<circle class="st0" cx="171.9" cy="262.4" r="3.5"/>
	<circle class="st0" cx="158.8" cy="288.7" r="3.5"/>
	<circle class="st0" cx="145.7" cy="288.7" r="3.5"/>
	<circle class="st0" cx="185" cy="249.6" r="3.5"/>
	<circle class="st0" cx="185" cy="327.3" r="3.5"/>
	<circle class="st0" cx="185" cy="314.2" r="3.5"/>
	<circle class="st0" cx="185" cy="301.4" r="3.5"/>
	<circle class="st0" cx="171.9" cy="249.6" r="3.5"/>
	<circle class="st0" cx="211.2" cy="170.8" r="3.5"/>
	<circle class="st0" cx="198.1" cy="183.9" r="3.5"/>
	<circle class="st0" cx="198.1" cy="157.7" r="3.5"/>
	<circle class="st0" cx="211.2" cy="157.7" r="3.5"/>
	<circle class="st0" cx="185" cy="170.8" r="3.5"/>
	<circle class="st0" cx="302.9" cy="105.4" r="3.5"/>
	<circle class="st0" cx="289.8" cy="105.4" r="3.5"/>
	<circle class="st0" cx="329.1" cy="157.7" r="3.5"/>
	<circle class="st0" cx="316" cy="157.7" r="3.5"/>
	<circle class="st0" cx="224.3" cy="118.4" r="3.5"/>
	<circle class="st0" cx="302.9" cy="131.5" r="3.5"/>
	<circle class="st0" cx="316" cy="131.5" r="3.5"/>
	<circle class="st0" cx="302.9" cy="118.3" r="3.5"/>
	<circle class="st0" cx="289.8" cy="144.6" r="3.5"/>
	<circle class="st0" cx="289.8" cy="157.7" r="3.5"/>
	<circle class="st0" cx="211.2" cy="131.6" r="3.5"/>
	<circle class="st0" cx="355.3" cy="131.5" r="3.5"/>
	<circle class="st0" cx="263.6" cy="105.3" r="3.5"/>
	<circle class="st0" cx="93.3" cy="262.4" r="3.5"/>
	<circle class="st0" cx="80.3" cy="275.5" r="3.5"/>
	<circle class="st0" cx="80.3" cy="314.8" r="3.5"/>
	<circle class="st0" cx="106.4" cy="301.7" r="3.5"/>
	<circle class="st0" cx="14.8" cy="367.2" r="3.5"/>
	<circle class="st0" cx="106.4" cy="314.8" r="3.5"/>
	<circle class="st0" cx="67.2" cy="301.7" r="3.5"/>
	<circle class="st0" cx="106.4" cy="354.1" r="3.5"/>
	<circle class="st0" cx="67.2" cy="288.6" r="3.5"/>
	<circle class="st0" cx="41" cy="328" r="3.5"/>
	<circle class="st0" cx="54.1" cy="341" r="3.5"/>
	<circle class="st0" cx="14.8" cy="327.9" r="3.5"/>
	<circle class="st0" cx="14.8" cy="341" r="3.5"/>
	<circle class="st0" cx="67.2" cy="275.5" r="3.5"/>
	<circle class="st0" cx="93.3" cy="210" r="3.5"/>
	<circle class="st0" cx="27.9" cy="262.4" r="3.5"/>
	<circle class="st0" cx="41" cy="262.4" r="3.5"/>
	<circle class="st0" cx="41" cy="288.6" r="3.5"/>
	<circle class="st0" cx="41" cy="314.8" r="3.5"/>
	<circle class="st0" cx="14.8" cy="288.6" r="3.5"/>
	<circle class="st0" cx="27.9" cy="301.7" r="3.5"/>
	<circle class="st0" cx="14.8" cy="262.4" r="3.5"/>
	<circle class="st0" cx="93.3" cy="183.9" r="5.3"/>
	<circle class="st0" cx="407.6" cy="105.3" r="5.3"/>
	<circle class="st0" cx="407.6" cy="118.4" r="3.5"/>
	<circle class="st0" cx="446.9" cy="144.6" r="16.2"/>
	<circle class="st0" cx="407.6" cy="131.5" r="3.5"/>
	<circle class="st0" cx="407.6" cy="144.6" r="3.5"/>
	<circle class="st0" cx="407.6" cy="157.7" r="3.5"/>
	<circle class="st0" cx="407.6" cy="170.8" r="3.5"/>
	<circle class="st0" cx="407.6" cy="183.9" r="5.3"/>
	<circle class="st0" cx="486.2" cy="105.3" r="5.3"/>
	<circle class="st0" cx="486.2" cy="118.4" r="3.5"/>
	<circle class="st0" cx="486.2" cy="131.5" r="3.5"/>
	<circle class="st0" cx="486.2" cy="144.6" r="3.5"/>
	<circle class="st0" cx="486.2" cy="157.7" r="3.5"/>
	<circle class="st0" cx="486.2" cy="170.8" r="3.5"/>
	<circle class="st0" cx="473.1" cy="105.3" r="3.5"/>
	<circle class="st0" cx="460" cy="105.3" r="3.5"/>
	<circle class="st0" cx="446.9" cy="105.3" r="3.5"/>
	<circle class="st0" cx="433.8" cy="105.3" r="3.5"/>
	<circle class="st0" cx="420.7" cy="105.3" r="3.5"/>
	<circle class="st0" cx="446.9" cy="144.6" r="5.7"/>
	<circle class="st0" cx="473.1" cy="183.9" r="3.5"/>
	<circle class="st0" cx="460" cy="183.9" r="3.5"/>
	<circle class="st0" cx="446.9" cy="183.9" r="3.5"/>
	<circle class="st0" cx="433.8" cy="183.9" r="3.5"/>
	<circle class="st0" cx="420.7" cy="183.9" r="3.5"/>
	<circle class="st0" cx="486.2" cy="183.9" r="5.3"/>
	<circle class="st0" cx="14.8" cy="498.1" r="5.3"/>
	<circle class="st0" cx="14.8" cy="511.2" r="3.5"/>
	<circle class="st0" cx="54.1" cy="537.4" r="16.2"/>
	<circle class="st0" cx="14.8" cy="524.3" r="3.5"/>
	<circle class="st0" cx="14.8" cy="537.4" r="3.5"/>
	<circle class="st0" cx="14.8" cy="550.5" r="3.5"/>
	<circle class="st0" cx="14.8" cy="563.6" r="3.5"/>
	<circle class="st0" cx="14.8" cy="576.7" r="5.3"/>
	<circle class="st0" cx="93.3" cy="498.1" r="5.3"/>
	<circle class="st0" cx="93.3" cy="511.2" r="3.5"/>
	<circle class="st0" cx="93.3" cy="524.3" r="3.5"/>
	<circle class="st0" cx="93.3" cy="537.4" r="3.5"/>
	<circle class="st0" cx="93.3" cy="550.5" r="3.5"/>
	<circle class="st0" cx="93.3" cy="563.6" r="3.5"/>
	<circle class="st0" cx="80.3" cy="498.1" r="3.5"/>
	<circle class="st0" cx="67.2" cy="498.1" r="3.5"/>
	<circle class="st0" cx="54.1" cy="498.1" r="3.5"/>
	<circle class="st0" cx="41" cy="498.1" r="3.5"/>
	<circle class="st0" cx="27.9" cy="498.1" r="3.5"/>
	<circle class="st0" cx="54.1" cy="537.4" r="5.7"/>
	<circle class="st0" cx="80.3" cy="576.7" r="3.5"/>
	<circle class="st0" cx="67.2" cy="576.7" r="3.5"/>
	<circle class="st0" cx="54.1" cy="576.7" r="3.5"/>
	<circle class="st0" cx="41" cy="576.7" r="3.5"/>
	<circle class="st0" cx="27.9" cy="576.7" r="3.5"/>
	<circle class="st0" cx="93.3" cy="576.7" r="5.3"/>
	<polyline class="st1" points="251.5,299.6 209.7,299.6 209.7,381.8 251.5,381.8 	"/>
	<polyline class="st1" points="248.4,302.3 212.6,302.3 212.6,379.2 248.4,379.2 	"/>
	<polyline class="st1" points="245.1,305.3 215.9,305.3 215.9,376.2 245.1,376.2 	"/>
	<polyline class="st1" points="295.8,299.6 267.9,299.7 251.5,339.6 269.6,381.8 295.8,381.8 	"/>
	<polyline class="st1" points="292.9,302.3 269.9,302.3 254.4,339.7 271.7,379.1 292.9,379.2 	"/>
	<polyline class="st1" points="290.1,304.8 272.1,304.9 257.8,339.7 273.7,376.1 290.1,376.2 	"/>
	<line class="st1" x1="215.9" y1="339.8" x2="241" y2="339.8"/>
	<line class="st1" x1="215.9" y1="336.6" x2="244.5" y2="336.6"/>
	<line class="st1" x1="215.9" y1="343" x2="244.5" y2="343"/>
</g>
<g>
	<path class="st2" d="M78.2,46.7V22.4h12.7v1.9H80.6v8.9h9.3v1.9h-9.3v9.6h11.1v1.9C91.6,46.7,78.2,46.7,78.2,46.7z"/>
	<path class="st2" d="M107.9,46.7h-2.1l-0.1-3.1h-0.1c-1.2,2.3-3,3.5-5.5,3.5c-1.8,0-3.3-0.5-4.2-1.4c-1-0.9-1.5-2.2-1.5-3.7
		c0-1.8,0.7-3.2,2.1-4.1c1.4-1,3.5-1.4,6.4-1.5l2.9-0.1v-0.7c0-1.7-0.3-2.9-1-3.7c-0.6-0.8-1.7-1.2-3.1-1.2c-1.3,0-2.2,0.2-2.9,0.6
		c-0.6,0.4-1.1,1.1-1.4,2.1L95.4,33c0.4-1.5,1-2.6,2.1-3.1c1-0.6,2.5-0.9,4.2-0.9c2.2,0,3.8,0.6,4.8,1.7c1,1.1,1.5,2.9,1.5,5.2
		L107.9,46.7L107.9,46.7z M100.5,45.3c1,0,1.9-0.2,2.7-0.7c0.8-0.5,1.4-1.1,1.8-2c0.5-0.8,0.6-1.7,0.6-2.6v-2.2l-2.6,0.1
		c-2.3,0.1-4,0.4-5,1c-1,0.6-1.5,1.7-1.5,3C96.7,44.2,97.9,45.3,100.5,45.3z"/>
	<path class="st2" d="M123.9,41.8c0,1.7-0.6,3-1.6,3.8c-1.1,0.9-2.6,1.4-4.5,1.4c-1.8,0-3.3-0.3-4.3-1c-1-0.6-1.8-1.8-2.2-3.3l2-0.4
		c0.2,1,0.7,1.7,1.4,2.2c0.7,0.5,1.7,0.7,3,0.7c2.7,0,4.1-1.1,4.1-3.3c0-0.6-0.2-1.1-0.4-1.5c-0.2-0.4-0.6-0.7-1-1
		c-0.4-0.2-1-0.5-1.5-0.6c-0.6-0.2-1.2-0.3-1.9-0.6c-1.3-0.3-2.2-0.6-2.9-1c-0.6-0.4-1.1-0.9-1.5-1.5c-0.3-0.6-0.5-1.4-0.5-2.2
		c0-1.5,0.5-2.8,1.4-3.6c1-0.9,2.4-1.3,4.2-1.3c1.7,0,3,0.3,3.9,1c1,0.6,1.5,1.6,1.8,3l-2.1,0.2c-0.2-0.9-0.6-1.5-1.2-1.8
		c-0.6-0.4-1.4-0.6-2.6-0.6c-1.2,0-2.1,0.2-2.6,0.8c-0.6,0.5-0.9,1.2-0.9,2.2c0,0.6,0.1,1,0.3,1.4c0.2,0.3,0.6,0.6,1,0.9
		c0.5,0.2,1.4,0.6,3,1c1.5,0.4,2.6,0.9,3.3,1.3c0.6,0.4,1.1,0.9,1.5,1.5C123.7,40.2,123.9,41,123.9,41.8z"/>
	<path class="st2" d="M127.6,53.6c-0.6,0-1.1-0.1-1.6-0.2v-2c0.4,0.1,0.9,0.2,1.4,0.2c0.7,0,1.3-0.2,1.8-0.5c0.5-0.3,1-0.8,1.4-1.5
		c0.4-0.6,0.8-1.4,1.2-2l0.3-0.8l-6.9-17.7h2.3l3.9,10.4c0.9,2.3,1.4,4.1,1.8,5.2c0.2-0.8,0.6-1.6,0.8-2.3c0.2-0.8,0.6-1.5,0.9-2.3
		l4.1-10.9h2.3l-7.5,19c-0.8,1.6-1.7,3-2.6,3.9C130.2,53,129,53.6,127.6,53.6z"/>
	<path class="st2" d="M153.6,47.1c-3.1,0-5.6-1.1-7.4-3.3c-1.8-2.2-2.6-5.3-2.6-9.3s0.9-6.9,2.7-9.2c1.8-2.2,4.3-3.3,7.6-3.3
		c2.1,0,3.8,0.4,5.2,1.3c1.4,0.8,2.6,2.2,3.3,4l-2.2,0.9c-0.6-1.4-1.4-2.6-2.5-3.2c-1-0.6-2.4-1-3.9-1c-2.6,0-4.5,1-5.9,2.8
		c-1.4,1.8-2.1,4.4-2.1,7.7c0,3.3,0.7,5.9,2.1,7.8c1.4,1.9,3.3,2.9,5.7,2.9c1.8,0,3.1-0.4,4.2-1.3c1.1-0.8,1.9-2,2.5-3.3l2,1
		C160.9,45.2,157.9,47.1,153.6,47.1z"/>
	<path class="st2" d="M178,46.7V36.4c0-2.1-0.3-3.5-1-4.5c-0.7-0.9-1.8-1.4-3.3-1.4c-1.6,0-2.9,0.6-3.8,1.7s-1.4,2.7-1.4,4.6v9.7
		h-2.2v-25h2.2v7c0,0.6,0,1.3,0,1.9s0,1.3-0.1,1.9h0.1c0.6-1.3,1.4-2.2,2.4-2.7c1-0.6,2.1-0.9,3.5-0.9c2,0,3.5,0.6,4.5,1.8
		s1.4,3,1.4,5.3v10.8H178V46.7z"/>
	<path class="st2" d="M198,46.7h-2.1l-0.1-3.1h-0.1c-1.2,2.3-3,3.5-5.5,3.5c-1.8,0-3.3-0.5-4.2-1.4c-1-0.9-1.5-2.2-1.5-3.7
		c0-1.8,0.7-3.2,2.1-4.1c1.4-1,3.5-1.4,6.4-1.5l2.9-0.1v-0.7c0-1.7-0.3-2.9-1-3.7c-0.6-0.8-1.7-1.2-3.1-1.2c-1.3,0-2.2,0.2-2.9,0.6
		c-0.6,0.4-1.1,1.1-1.4,2.1l-2.1-0.4c0.4-1.5,1-2.6,2.1-3.1c1-0.6,2.5-0.9,4.2-0.9c2.2,0,3.8,0.6,4.8,1.7c1,1.1,1.5,2.9,1.5,5.2
		L198,46.7L198,46.7z M190.5,45.3c1,0,1.9-0.2,2.7-0.7s1.4-1.1,1.8-2c0.5-0.8,0.6-1.7,0.6-2.6v-2.2l-2.6,0.1c-2.3,0.1-4,0.4-5,1
		c-1,0.6-1.5,1.7-1.5,3C186.7,44.2,188,45.3,190.5,45.3z"/>
	<path class="st2" d="M203.5,46.7V33.5c0-1-0.1-2.4-0.2-4.4h2.1c0.2,1.3,0.2,2.6,0.2,4h0.1c0.5-1.5,1.1-2.6,1.9-3.3
		c0.8-0.6,1.8-1,3.1-1c0.5,0,1,0.1,1.4,0.2v2.1c-0.4-0.1-1-0.2-1.7-0.2c-1.4,0-2.6,0.6-3.4,1.8c-0.8,1.3-1.2,3-1.2,5.1v8.9
		L203.5,46.7L203.5,46.7z"/>
	<path class="st2" d="M219.8,47c-1.3,0-2.2-0.3-2.9-1c-0.6-0.7-1-1.7-1-3V31h-2.6v-1.8h2.6l0.6-4.1h1.6v4.1h4.7V31h-4.7v11.6
		c0,0.8,0.2,1.4,0.5,1.9s1,0.7,1.8,0.7c0.7,0,1.6-0.1,2.6-0.3v1.7C222,46.9,221,47,219.8,47z"/>
	<path class="st2" d="M237.1,41.8c0,1.7-0.6,3-1.6,3.8c-1.1,0.9-2.6,1.4-4.5,1.4c-1.8,0-3.3-0.3-4.3-1c-1-0.6-1.8-1.8-2.2-3.3l2-0.4
		c0.2,1,0.7,1.7,1.4,2.2c0.7,0.5,1.7,0.7,3,0.7c2.7,0,4.1-1.1,4.1-3.3c0-0.6-0.2-1.1-0.4-1.5c-0.2-0.4-0.6-0.7-1-1
		c-0.4-0.2-1-0.5-1.5-0.6c-0.6-0.2-1.2-0.3-1.9-0.6c-1.3-0.3-2.2-0.6-2.9-1c-0.6-0.4-1.1-0.9-1.5-1.5c-0.3-0.6-0.5-1.4-0.5-2.2
		c0-1.5,0.5-2.8,1.4-3.6c1-0.9,2.4-1.3,4.2-1.3c1.7,0,3,0.3,3.9,1c1,0.6,1.5,1.6,1.8,3l-2.1,0.2c-0.2-0.9-0.6-1.5-1.2-1.8
		c-0.6-0.4-1.4-0.6-2.6-0.6c-1.2,0-2.1,0.2-2.6,0.8c-0.6,0.5-0.9,1.2-0.9,2.2c0,0.6,0.1,1,0.3,1.4c0.2,0.3,0.6,0.6,1,0.9
		c0.5,0.2,1.4,0.6,3,1c1.5,0.4,2.6,0.9,3.3,1.3s1.1,0.9,1.5,1.5C236.9,40.2,237.1,41,237.1,41.8z"/>
	<path class="st2" d="M248.7,36.4c2.9-1.9,5.3-5,7.5-9.4l2.2,1.3c0.2,0.1,0.2,0.2,0.2,0.2c0,0.1-0.1,0.2-0.3,0.2
		c-0.3,0.2-0.7,0.6-1.2,1c-0.2,0.5-0.8,1.3-1.5,2.5v15.3c0,1,0.1,1.9,0.2,2.9h-2.3c0.2-0.9,0.2-1.8,0.2-2.9V34.7
		c-0.7,1-1.6,1.9-2.5,3C250.3,37.2,249.6,36.7,248.7,36.4z M251.3,27.8c-0.5-0.5-1.2-0.9-1.9-1.4c2.6-1.9,4.9-4.6,6.7-8.3l2.1,1.4
		c0.1,0.1,0.2,0.2,0.2,0.2c0,0.1-0.1,0.2-0.3,0.3c-0.5,0.2-0.9,0.6-1,0.9C255.5,23,253.7,25.3,251.3,27.8z M255.8,46.3
		c2.9-1.9,4.2-4.9,4.2-8.9c0-0.9-0.1-1.8-0.2-2.7c0.9,0.2,1.6,0.2,2.2,0.2h3.5c0.6,0,1.4-0.1,2.2-0.2c-0.2,0.7-0.3,1.4-0.3,2.3
		l-0.3,5.3c1.4-1,2.5-1.9,3.3-2.8l0.2,2.2c-1.5,1-3.1,2.2-4.8,3.7l-1.4-1.8c0.5-0.3,0.8-1,0.7-1.9l0.2-5h-3.7
		c0.2,4.4-1.2,8-4.1,10.8C257.2,47,256.6,46.7,255.8,46.3z M259.7,30.5h10c1.7-2.8,2.8-6.9,3.5-12.5l2.6,0.8
		c0.2,0.1,0.4,0.2,0.4,0.2s-0.1,0.2-0.4,0.4s-0.6,0.6-0.7,1.3c-0.4,1.7-0.9,3.4-1.4,5.3h6.1c0.6,0,1.3-0.1,2.1-0.2V28
		c-0.7-0.2-1.4-0.2-2.1-0.2H279c-0.1,6.1-1,10.8-2.6,14.3c1.7,2.9,3.7,4.9,6.2,6.2c-1.1,0.4-1.9,1-2.6,1.8c-2.1-1.9-3.7-4-5-6.1
		c-2.3,2.5-5.4,4.6-9.3,6.5c-0.5-1-1-1.7-1.7-2.1c4.2-1,7.5-3.1,9.9-6.3c-1.2-2.8-2.2-6.1-2.8-9.8c-0.3,0.5-0.6,1-0.8,1.4
		c-0.7-0.3-1.5-0.6-2.2-0.7c0.2-0.2,0.4-0.5,0.5-0.7h-8.9c-0.6,0-1.4,0.1-2.2,0.2v-2.1C258.4,30.5,259.1,30.6,259.7,30.5z
		 M261.1,23.6v3h2.6v-5.4c0-0.8-0.1-1.8-0.2-3l2.6,0.3c0.3,0.1,0.5,0.2,0.5,0.3c0,0.2-0.2,0.3-0.5,0.6c-0.4,0.3-0.6,1-0.6,1.9v5.3
		h2.8v-3.4c0-1-0.1-2-0.2-3l2.6,0.5c0.2,0,0.3,0.1,0.3,0.2c0,0.1-0.1,0.2-0.2,0.4c-0.6,0.4-0.8,1.1-0.7,2.2v2.8
		c0,0.6,0.1,1.4,0.2,2.3c-1-0.2-1.7-0.2-2.2-0.2h-6.2c-0.8,0-1.6,0.1-2.6,0.2c0.2-1,0.2-1.8,0.2-2.5v-2.6c0-1.1-0.1-2.2-0.2-3.3
		l2.6,0.3c0.2,0.1,0.3,0.2,0.3,0.3s-0.2,0.3-0.3,0.4C261.4,21.4,261.1,22.2,261.1,23.6z M273.5,31.5c0,0.3-0.1,0.6-0.1,0.9
		c0,2,0.6,4.4,1.9,7.3c1-2.5,1.5-6.5,1.6-12H273c-0.4,1-1,2.4-1.6,4L273.5,31.5z"/>
	<path class="st2" d="M283.9,32.8c3.7-3,6.8-7.9,9-14.9l2.6,1.2c0.2,0.1,0.2,0.2,0.2,0.2s-0.2,0.2-0.4,0.3c-0.6,0.3-1.1,1.1-1.6,2.2
		c-0.7,1.7-1.3,2.9-1.8,3.7v21.9c0,0.7,0.1,1.8,0.2,3.3h-2.4c0.1-1.4,0.2-2.5,0.2-3.3V29.2c-1,1.7-2.2,3.3-3.3,5
		C286.1,33.7,285.1,33.2,283.9,32.8z M294.4,25.4v-2.2c1,0.1,2,0.2,2.7,0.2h10c-1.6-1.4-3.3-2.8-5-4.1l1.7-1.8
		c1.8,1.4,3.6,2.8,5.3,4.1l-1.6,1.8h6.8c0.6,0,1.7-0.1,3.1-0.2v2.2c-1.4-0.1-2.4-0.2-3.1-0.2h-17C296.5,25.3,295.6,25.3,294.4,25.4z
		 M299.6,50.8h-2.4c0.1-1.2,0.2-2.2,0.2-3v-5.4c0-0.6-0.1-1.7-0.2-3.1c1.7,0.2,2.9,0.2,3.4,0.2h10c0.7,0,1.9-0.1,3.6-0.2
		c-0.1,1.1-0.2,2.2-0.2,3.1v5.2c0,0.5,0.1,1.5,0.2,3h-2.4c0.2-1,0.2-1.8,0.2-2.2h-12.6C299.4,48.8,299.4,49.6,299.6,50.8z
		 M297.5,30.8v-2.2c1.2,0.2,2.2,0.2,3,0.2h11c0.6,0,1.6-0.1,3-0.2v2.2c-1.2-0.1-2.2-0.2-3-0.2h-11C299.6,30.6,298.7,30.7,297.5,30.8
		z M297.5,36v-2.2c1.2,0.2,2.2,0.2,3,0.2h11c0.7,0,1.7-0.1,3-0.2V36c-1.3-0.1-2.2-0.2-3-0.2h-11C299.8,35.9,298.8,35.9,297.5,36z
		 M299.4,41.1v5.4H312v-5.4H299.4z"/>
	<path class="st2" d="M330.7,20.2l2.8,1.1c0.2,0.1,0.4,0.2,0.4,0.3s-0.2,0.2-0.4,0.2c-0.6,0.2-1,0.8-1.5,1.7
		c-1.9,4.9-5.1,9.6-9.5,14c-0.6-0.5-1.5-1-2.6-1.7C324.4,33.2,328,27.9,330.7,20.2z M329.4,46c1.6-0.1,4.4-0.3,8.3-0.6
		c2.4-0.2,4.1-0.3,5.4-0.4c-1.6-2.5-2.9-4.3-3.8-5.5l1.9-1.3c2.6,3.7,4.7,7.1,6.4,9.9l-2.1,1.4c-0.3-0.8-0.8-1.8-1.5-2.7
		c-5.8,0.5-10.6,1-14.2,1.4c-0.1,0-1,0.2-2.9,0.6c-0.6-1.1-1-1.9-1.2-2.4c0.9-0.4,1.5-0.9,1.9-1.3c3.3-4.9,5.9-9.8,7.6-15L338,31
		c0.3,0.1,0.4,0.2,0.4,0.4s-0.2,0.3-0.5,0.5c-0.4,0.2-0.8,0.7-1.2,1.6C334.9,37.3,332.5,41.4,329.4,46z M350.1,37.5
		c-6.1-5-10.1-11-11.9-18h0.1c0.4-0.1,1.1-0.2,2.2-0.4c1.6,7.1,5.7,12.6,12.2,16.6C351.9,36.1,351.2,36.7,350.1,37.5z"/>
	<path class="st2" d="M355.3,48.6c5.6-3.3,8.4-8.1,8.4-14.5c0-0.5,0-1-0.1-1.5l2.8,0.6c0.3,0.1,0.5,0.2,0.5,0.2s-0.2,0.2-0.4,0.4
		c-0.3,0.3-0.6,0.6-0.6,1c-0.2,1.4-0.4,2.8-0.6,4.2c2.2,1.5,4.5,3.2,6.9,5c-0.5,0.6-1,1.3-1.5,2.1c-1.6-1.5-3.7-3.2-6.1-5
		c-1.1,3.1-3.3,6.1-6.7,9.1C357.3,49.8,356.5,49.3,355.3,48.6z M370.7,18.2l2.9,0.6c0.2,0.1,0.3,0.2,0.3,0.2s-0.1,0.2-0.3,0.5
		c-0.4,0.3-0.6,0.8-0.6,1.4c1.8,4.3,6.3,7.7,13.6,10.1c-0.6,0.5-1.4,1.2-2.2,2.2c-6.5-3.2-10.6-6.6-12.4-10.4
		c-2,5-6.1,8.6-12.4,10.8c-0.6-0.7-1.4-1.5-2.3-2.2C365.4,30,369.9,25.7,370.7,18.2z M368.1,49.3c3.1-1.5,5.3-3.7,6.5-6.3
		c1-2.2,1.5-5,1.5-8.6c0-0.8,0-1.6-0.1-2.4l2.6,0.6c0.3,0.1,0.5,0.2,0.5,0.2s-0.1,0.2-0.3,0.4c-0.3,0.3-0.6,0.7-0.6,1.3
		c0,0.3-0.1,0.7-0.1,1.1s0,0.6,0,0.9c1,4.9,4.2,8.8,9.8,11.8c-1,0.3-1.8,1-2.4,1.8c-4.2-3.4-6.9-6.6-8.1-9.7
		c-0.9,4.1-3.1,7.5-6.9,10.4C369.9,50.1,369,49.7,368.1,49.3z"/>
	<path class="st2" d="M402.2,37.9h13.1c1,0,2-0.1,3-0.2c-0.2,0.9-0.3,1.8-0.4,2.8c-0.3,4.1-1.1,6.5-2.4,7.3c-1.4,1.2-4.9,1.8-10.7,2
		c-0.1-1-0.3-1.9-0.7-2.7c1.3,0.2,2.6,0.3,4,0.3c0.5,0,1,0,1.5-0.1c2-0.2,3.4-0.5,4.3-1c1.3-0.8,1.9-3,1.9-6.8H402
		c-0.9,0-1.9,0.1-3.3,0.2c1-2,1.9-3.9,2.5-5.8h-6.6c-1,0-2,0.1-3.1,0.2v-2.2c1.1,0.1,2.2,0.2,3.1,0.2h25.2c1,0,2-0.1,3-0.2v2.2
		c-1-0.1-2.1-0.2-3-0.2h-15.9C403.3,35.1,402.7,36.4,402.2,37.9z M397.7,19.4c1.2,0.1,2.2,0.2,3.1,0.2h12.9c1,0,2-0.1,3.1-0.2
		c-0.1,1.1-0.2,2.2-0.2,3v4c0,0.9,0.1,1.9,0.2,3c-1.1-0.1-2.2-0.2-3.1-0.2h-12.9c-1,0-2,0.1-3.2,0.2c0.2-1,0.2-2,0.2-3v-4
		C397.9,21.6,397.8,20.6,397.7,19.4z M414.8,27.6v-6.1h-14.9v6.1H414.8z"/>
</g>
<line class="st3" x1="9.5" y1="67" x2="491.5" y2="66.7"/>
<g>
	<path class="st2" d="M124.1,640.8c4.6-2.2,6.8-7,6.8-14.5c0-0.5,0-0.9,0-1.2v-9.8c0-1.3-0.1-2.3-0.2-3.2l2.6,0.4
		c0.2,0,0.3,0.1,0.3,0.2c0,0.1-0.1,0.2-0.2,0.3c-0.5,0.4-0.6,1.2-0.6,2.7v9.4c0.1,4.6-0.4,8-1.3,10.1c-0.9,2.3-2.6,4.7-5.3,7
		C125.6,641.6,124.9,641.2,124.1,640.8z M125.1,615.7l2.5,0.3c0.2,0,0.4,0.1,0.4,0.2s-0.1,0.2-0.2,0.3c-0.4,0.4-0.6,1.2-0.6,2.5
		v11.6c0,1.1,0.1,1.9,0.2,2.7H125c0.2-0.7,0.2-1.6,0.2-2.7v-11.8C125.3,617.5,125.3,616.4,125.1,615.7z M135.6,618.1
		c0.6,0.2,1.5,0.2,2.6,0.2h4v-4.2c0-1.3-0.1-2.2-0.2-2.9l2.8,0.5c0.2,0.1,0.2,0.1,0.2,0.2c0,0.1-0.1,0.2-0.2,0.4
		c-0.5,0.5-0.6,1.3-0.7,2.6v3.6h4.3c1.2,0,2.2-0.1,2.9-0.2c-0.2,0.8-0.2,1.7-0.2,2.9v11.6c0.1,1.2-0.2,1.9-0.9,2.2
		c-0.5,0.5-1.9,0.8-3.8,1c-0.1-1.1-0.4-1.9-0.9-2.5c0.8,0.1,1.5,0.2,2,0.2c0.5,0,0.9-0.1,1-0.2c0.5-0.2,0.7-0.6,0.6-1.4v-12.1H144
		v19c0,1.6,0.1,2.9,0.2,3.6H142c0.2-0.9,0.2-2.1,0.2-3.6v-19h-4.6v13.2c0,1.2,0.1,2.1,0.2,2.7h-2.3c0.2-0.6,0.2-1.5,0.2-2.7v-12.2
		C135.8,619.8,135.8,618.8,135.6,618.1z"/>
	<path class="st2" d="M160.4,641.8h-2.2c0.2-1.4,0.2-2.4,0.2-3v-16.9c0-0.9-0.1-1.9-0.2-3.3c0.9,0.2,1.8,0.2,2.7,0.2
		c0.9-2.5,1.6-4.9,2-7.2l2.4,0.6c0.3,0.1,0.5,0.2,0.5,0.3s-0.1,0.3-0.4,0.5c-0.5,0.3-0.8,0.7-0.9,1.4c-0.5,1.5-1.1,3-1.6,4.4h3.7
		c1,0,2-0.1,3.1-0.2c-0.2,1.4-0.2,2.5-0.2,3.3V638c0,0.8,0.1,1.7,0.2,2.8h-2.2c0.1-0.7,0.2-1.3,0.2-1.9h-7.3
		C160.2,639.6,160.3,640.6,160.4,641.8z M160.3,620.4v7.6h7.3v-7.6H160.3z M160.3,629.6v7.6h7.3v-7.6H160.3z M169.7,623.4
		c2.9-2.7,4.8-6.7,5.8-12.1l2.4,0.9c0.3,0.1,0.5,0.2,0.4,0.3c0,0.2-0.2,0.3-0.5,0.5c-0.3,0.2-0.5,0.6-0.8,1.2
		c-0.5,1.6-1.1,3-1.6,4.3h6.7c0.9,0,1.8-0.1,2.9-0.2c-0.2,1.4-0.2,2.6-0.2,3.5l-0.2,15.7c0,1.9-0.5,3.1-1.4,3.7
		c-0.9,0.7-2.8,1.2-5.6,1.5c-0.1-0.9-0.5-1.7-1-2.6c0.8,0.1,1.5,0.1,2.2,0.1c1.2,0,2-0.2,2.6-0.4c0.9-0.4,1.3-1.2,1.3-2.5l0.2-17.2
		h-8.2c-0.9,1.5-1.7,3-2.6,4.3C171.3,624.1,170.6,623.7,169.7,623.4z M173.5,627l1.6-1.4c1.8,1.9,3.6,3.9,5.3,6.2l-1.9,1.4
		C177.1,631,175.4,628.9,173.5,627z"/>
	<path class="st2" d="M189.4,639.1c9.7-2.8,14.5-10.4,14.5-23c0-1.2-0.1-2.3-0.1-3.6l2.9,0.5c0.2,0.1,0.4,0.2,0.4,0.2
		c0.1,0.1-0.1,0.2-0.2,0.4c-0.4,0.4-0.6,0.9-0.7,1.4c0,0.3,0,0.7,0,1.2c0,10.1,4.7,17.8,14.2,23.1c-0.9,0.2-1.6,0.9-2.4,1.9
		c-6.3-3.8-10.7-9.5-12.8-17.1c-1.5,7.8-6,13.5-13.7,17C190.9,640.2,190.2,639.5,189.4,639.1z"/>
	<path class="st2" d="M223.5,630.6c2.7-0.5,6-3,10-7.4H227c-0.5,0-1.2,0.1-2.2,0.2v-1.9c0.9,0.2,1.6,0.2,2.2,0.2h4.6v-4.6h-2.9
		c-0.7,0-1.4,0.1-2.1,0.2v-1.9c0.6,0.2,1.3,0.2,2,0.2h3v-1.5c0-1-0.1-2-0.2-3l2.5,0.4c0.2,0,0.4,0.1,0.4,0.2c0,0.1-0.1,0.2-0.3,0.5
		c-0.2,0.3-0.4,0.9-0.4,1.7v1.6h1.9c0.5,0,1.2-0.1,2.2-0.2v1.9c-0.9-0.2-1.6-0.2-2.2-0.2h-1.9v4.6h1.2c1.9-2.1,3.6-4.6,5.1-7.9
		l1.9,1.5c0.2,0.2,0.3,0.3,0.2,0.3c0,0.1-0.2,0.2-0.6,0.4c-0.3,0.2-0.6,0.4-0.8,0.7c-1.3,1.9-2.5,3.5-3.6,4.9h3.5
		c0.5,0,1.2-0.1,2.2-0.2v1.9c-0.9-0.2-1.6-0.2-2.2-0.2h-4.6c-1.4,1.6-2.7,3-4,4.2h6.2c0.6,0,1.5-0.1,2.6-0.2
		c-0.2,1.1-0.2,1.9-0.2,2.6v8c0,0.9,0.1,1.9,0.2,3.2h-2.4c0.2-0.8,0.2-1.3,0.2-1.7h-7.7c0,0.6,0.1,1.3,0.2,2.2h-2.4
		c0.2-1.2,0.2-2.2,0.2-3v-8.3c-1.2,1-2.3,1.8-3.4,2.3C224.9,631.7,224.2,631,223.5,630.6z M230.7,629v3.5h7.7V629H230.7z
		 M230.7,634.1v3.6h7.7v-3.6H230.7z M243.8,613c1.2,0.2,2.2,0.2,2.9,0.2h4.6c1.1,0,2.3-0.1,3.6-0.2c-1,3.2-2.5,7-4.5,11.4
		c2.6,2.3,4.2,4.5,4.7,6.4c0.1,0.5,0.2,1,0.2,1.5c0,3.3-2.2,5.1-6.7,5.4c-0.2-1.1-0.5-1.9-0.9-2.6c0.9,0.1,1.8,0.2,2.5,0.2
		c1,0,1.7-0.2,2-0.4c0.7-0.3,1.1-1.4,1.2-3.2c-0.5-2.2-2.2-4.5-5.3-6.9c1.8-3.6,3.2-6.9,4.3-10H246v24.9c0,0.9,0.1,1.9,0.2,3h-2.4
		c0.2-1.2,0.2-2.2,0.2-3v-23.9C244,615.1,243.9,614.2,243.8,613z"/>
	<path class="st2" d="M258.5,640.2c6.9-1.7,11.1-5.1,12.5-10.4h-9.4c-1.2,0-2.2,0.1-2.7,0.2V628c0.7,0.1,1.6,0.2,2.7,0.2h9.7
		c0.2-1.7,0.2-3.8,0.2-6.5H263c-1.2,0-2.1,0.1-2.7,0.2v-2.1c0.7,0.2,1.6,0.2,2.7,0.2h10.7c2.6-3,4.4-5.8,5.6-8.4l2.1,1.5
		c0.3,0.2,0.5,0.5,0.5,0.6s-0.2,0.2-0.6,0.3c-0.4,0.1-0.7,0.2-1,0.6c-1.3,1.8-2.6,3.5-4.2,5.3h6.7c1,0,1.9-0.1,2.7-0.2v2.1
		c-0.9-0.2-1.8-0.2-2.7-0.2h-9.2c0,1.2-0.1,2.9-0.2,5.5c0,0.5,0,0.8,0,1h11c1.2,0,2.1-0.1,2.7-0.2v2.1c-0.7-0.2-1.6-0.2-2.7-0.2
		h-9.7c2.6,5.1,7,8.4,13.6,10c-0.7,0.9-1.3,1.6-1.8,2.4c-7-3-11.5-7-13.5-11.8c-1.2,5-5.4,9-12.5,12.1
		C259.9,641.5,259.2,640.7,258.5,640.2z M262.7,613.9l1.2-1.7c2.6,1.6,4.8,3.2,6.6,4.6l-1.3,1.6
		C267.5,616.9,265.4,615.4,262.7,613.9z"/>
	<path class="st2" d="M291.3,623.1c0.2-0.2,0.6-0.7,1.2-1.5c2,1.2,3.9,2.6,5.7,4.1c-0.5,0.6-0.9,1.2-1.2,1.8
		C295.8,626.2,294,624.8,291.3,623.1z M292,640.6c2.9-4,5.2-7.8,6.6-11.6c0.3,0.5,0.9,1.2,1.5,1.9c-1.9,3.3-3.9,7.1-6.1,11.3
		C293.5,641.6,292.9,641.1,292,640.6z M293.9,614.5l1.2-1.6c1.9,1.3,3.7,2.7,5.6,4.3l-1.4,1.6C297.3,616.9,295.5,615.5,293.9,614.5z
		 M302.6,639.1h7.9v-9.5h-5.2c-0.9,0-1.8,0.1-2.7,0.2v-2.1c0.9,0.2,1.7,0.2,2.7,0.2h5.2v-7.5h-6.3c-0.8,0-1.7,0.1-2.6,0.2v-2.1
		c0.7,0.2,1.5,0.2,2.6,0.2h14.3c1.2,0,2-0.1,2.6-0.2v2.1c-0.9-0.2-1.8-0.2-2.6-0.2h-6.2v7.5h4.9c0.9,0,1.8-0.1,2.7-0.2v2.1
		c-0.9-0.2-1.8-0.2-2.7-0.2h-4.9v9.5h7.1c0.9,0,1.7-0.1,2.7-0.2v2.1c-0.9-0.2-1.8-0.2-2.7-0.2h-16.9c-1,0-1.9,0.1-2.7,0.2v-2.1
		C301.1,639,301.9,639.1,302.6,639.1z M307.3,612.9l1.4-1.4c1.6,1.4,3.2,3,4.9,4.8l-1.6,1.5C310.8,616.3,309.3,614.6,307.3,612.9z"
		/>
	<path class="st2" d="M328.6,635.8h-2.3c0.1-1.1,0.2-2,0.2-2.8v-14.4c0-0.8-0.1-1.7-0.2-2.8c1,0.2,1.9,0.2,2.7,0.2h1.9
		c0.9,0,1.8-0.1,2.8-0.2c-0.1,1.1-0.2,2-0.2,2.7v13.5c0,0.9,0.1,1.9,0.2,2.9h-2.3c0.1-0.8,0.2-1.5,0.2-2.3h-3.2v0.3
		C328.4,633.9,328.4,634.8,328.6,635.8z M331.7,631v-13.2h-3.3V631H331.7z M337,628.7v-8.1h-0.2c-0.8,0-1.6,0.1-2.7,0.2v-2.1
		c0.9,0.1,1.9,0.2,2.7,0.2h0.2v-4.3c0-0.9-0.1-1.9-0.2-3.2l2.7,0.3c0.2,0.1,0.2,0.2,0.2,0.3c0,0.2-0.1,0.3-0.3,0.5
		c-0.4,0.2-0.5,1.1-0.5,2.6v3.9h0.7c0.7,0,1.5-0.1,2.6-0.2v2.1c-0.9-0.1-1.8-0.2-2.6-0.2H339v6.7c0.7-0.6,1.5-1.4,2.6-2.5
		c0,0.9,0.1,1.9,0.3,2.7c-1.1,0.8-2,1.5-2.9,2.2v10.1c0,1.1-0.2,1.8-0.9,2.2c-0.5,0.4-1.7,0.7-3.5,0.9c-0.1-0.9-0.5-1.9-1.1-2.7
		c0.9,0.1,1.5,0.2,2,0.2c0.5,0,0.8-0.1,0.9-0.2c0.5-0.1,0.6-0.5,0.5-1.3v-7.7c-0.9,0.8-1.7,1.5-2.5,2.2l-1-2.2
		C334.6,630.6,335.8,629.7,337,628.7z M351.3,623l2.7,1.1c0.2,0.1,0.4,0.2,0.3,0.3c0,0.2-0.2,0.2-0.4,0.4c-0.3,0.2-0.6,0.6-0.9,1.5
		c-1.8,6.3-3.1,10.7-3.9,13.1h4c0.9,0,1.9-0.1,2.7-0.2v2.1c-0.9-0.1-1.9-0.2-2.7-0.2H343c-0.8,0-1.7,0.1-2.7,0.2v-2.1
		c1,0.2,1.9,0.2,2.7,0.2h4.2C349.2,633.7,350.6,628.3,351.3,623z M355.4,618.5v2.1c-0.9-0.1-1.8-0.2-2.6-0.2h-7
		c-0.8,0-1.7,0.1-2.7,0.2v-2.1c1,0.1,1.9,0.2,2.7,0.2h7C353.6,618.7,354.5,618.6,355.4,618.5z M344.8,623.5c1.2,3.8,2.2,7.7,3,11.5
		l-2,0.5c-0.6-3.7-1.5-7.5-2.9-11.4L344.8,623.5z M346.5,611.2c1.9,2.2,3.2,3.9,4.3,5.3l-1.9,1.4c-1.2-1.9-2.6-3.7-4.2-5.3
		L346.5,611.2z"/>
	<path class="st2" d="M372.8,629.4c-0.7,0-1.5-0.2-2.2-0.4s-1.5-0.5-2.3-0.8c-1.4-0.5-2.6-0.8-3.5-0.8c-0.7,0-1.4,0.1-2,0.3
		c-0.6,0.2-1.2,0.6-1.9,1.1v-1.6c1.2-0.9,2.6-1.4,4.2-1.4c0.5,0,1.2,0.1,1.8,0.2c0.6,0.2,1.7,0.5,3.2,1c0.4,0.2,0.9,0.3,1.5,0.5
		c0.6,0.2,1.2,0.2,1.7,0.2c1.4,0,2.6-0.5,3.9-1.5v1.9c-0.6,0.5-1.3,0.9-1.9,1C374.4,629.3,373.7,629.4,372.8,629.4z"/>
</g>
</svg>
