<?xml version="1.0" encoding="utf-8"?>
<!-- Generator: Adobe Illustrator 19.0.0, SVG Export Plug-In . SVG Version: 6.00 Build 0)  -->
<svg version="1.1" id="图层_1" xmlns="http://www.w3.org/2000/svg" xmlns:xlink="http://www.w3.org/1999/xlink" x="0px" y="0px"
	 viewBox="0 0 66 66" style="enable-background:new 0 0 66 66;" xml:space="preserve">
<style type="text/css">
	.st0{opacity:0.7;fill:#00C46E;enable-background:new    ;}
	.st1{fill:#F2F2F2;}
</style>
<circle id="XMLID_3_" class="st0" cx="33" cy="33" r="33"/>
<g id="XMLID_281_">
	<g id="XMLID_282_">
		<g id="XMLID_287_">
			<path id="XMLID_266_" class="st1" d="M35.2,25.5c0,1.1-0.9,2-2,2l0,0c-1.1,0-2-0.9-2-2v-9c0-1.1,0.9-2,2-2l0,0c1.1,0,2,0.9,2,2
				V25.5z"/>
			<path id="XMLID_256_" class="st1" d="M35.2,24.8c0,1.1-0.9,2-2,2l0,0c-1.1,0-2-0.9-2-2v-9c0-1.1,0.9-2,2-2l0,0c1.1,0,2,0.9,2,2
				V24.8z"/>
			<path id="XMLID_255_" class="st1" d="M35.2,25.2c0,1.1-0.9,2-2,2l0,0c-1.1,0-2-0.9-2-2v-9c0-1.1,0.9-2,2-2l0,0c1.1,0,2,0.9,2,2
				V25.2z"/>
		</g>
		<g id="XMLID_283_">
			<path id="XMLID_254_" class="st1" d="M37.3,20v4c4.2,1.7,7.1,5.8,7.1,10.7c0,6.3-5.1,11.5-11.5,11.5c-6.3,0-11.5-5.1-11.5-11.5
				c0-4.9,3.3-9.1,7.5-10.8v-4c-6.3,1.8-11.1,7.7-11.1,14.6c0,8.4,6.8,15.2,15.2,15.2s15.2-6.8,15.2-15.2
				C48.2,27.7,43.7,21.9,37.3,20z"/>
			<path id="XMLID_253_" class="st1" d="M37.3,19.3v4c4.2,1.7,7.1,5.8,7.1,10.7c0,6.3-5.1,11.5-11.5,11.5c-6.3,0-11.5-5.1-11.5-11.5
				c0-4.9,3.3-9.1,7.5-10.8v-3.9c-6.3,1.8-11.1,7.7-11.1,14.6c0,8.4,6.8,15.2,15.2,15.2s15.2-6.8,15.2-15.2
				C48.2,27,43.7,21.2,37.3,19.3z"/>
			<path id="XMLID_252_" class="st1" d="M37.3,19.6v4c4.2,1.7,7.1,5.8,7.1,10.7c0,6.3-5.1,11.5-11.5,11.5c-6.3,0-11.5-5.1-11.5-11.5
				c0-4.9,3.3-9.1,7.5-10.8v-4c-6.3,1.8-11.1,7.7-11.1,14.6c0,8.4,6.8,15.2,15.2,15.2s15.2-6.8,15.2-15.2
				C48.2,27.3,43.7,21.5,37.3,19.6z"/>
		</g>
	</g>
</g>
<g id="XMLID_45_">
</g>
</svg>
