<?xml version="1.0" encoding="utf-8"?>
<!-- Generator: Adobe Illustrator 19.0.0, SVG Export Plug-In . SVG Version: 6.00 Build 0)  -->
<svg version="1.1" id="图层_1" xmlns="http://www.w3.org/2000/svg" xmlns:xlink="http://www.w3.org/1999/xlink" x="0px" y="0px"
	 viewBox="0 0 66 66" style="enable-background:new 0 0 66 66;" xml:space="preserve">
<style type="text/css">
	.st0{opacity:0.2;fill:#00C46E;enable-background:new    ;}
	.st1{opacity:0.4;fill:#00C46E;enable-background:new    ;}
	.st2{opacity:0.6;fill:#00C46E;enable-background:new    ;}
	.st3{opacity:0.8;fill:#00C46E;enable-background:new    ;}
	.st4{fill:#00C46E;}
	.st5{opacity:0.2;fill:#FF335F;enable-background:new    ;}
	.st6{opacity:0.4;fill:#FF335F;enable-background:new    ;}
	.st7{opacity:0.6;fill:#FF335F;enable-background:new    ;}
	.st8{opacity:0.8;fill:#FF335F;enable-background:new    ;}
	.st9{fill:#FF335F;}
</style>
<g id="XMLID_6_">
	<g id="XMLID_5_">
		<path id="XMLID_73_" class="st0" d="M32.9,33.1L13.6,6.5c5.9-4.3,12-6.2,19.3-6.2C32.9,0.3,32.9,33.1,32.9,33.1z"/>
		<path id="XMLID_71_" class="st1" d="M32.9,33.1L1.6,23c2.3-6.9,6-12.1,11.9-16.4L32.9,33.1z"/>
		<path id="XMLID_69_" class="st2" d="M32.9,33.1L1.6,43.2c-2.3-6.9-2.3-13.4,0-20.3L32.9,33.1z"/>
		<path id="XMLID_67_" class="st3" d="M32.9,33.1L13.6,59.7c-5.9-4.3-9.6-9.5-11.9-16.4L32.9,33.1z"/>
		<path id="XMLID_65_" class="st4" d="M32.9,33.1V66c-7.3,0-13.4-2-19.3-6.2L32.9,33.1z"/>
		<path id="XMLID_63_" class="st5" d="M32.9,33.1l19.3,26.6c-5.9,4.3-12,6.2-19.3,6.2C32.9,65.9,32.9,33.1,32.9,33.1z"/>
		<path id="XMLID_61_" class="st6" d="M32.9,33.1l31.3,10.1c-2.3,6.9-6,12.1-11.9,16.4L32.9,33.1z"/>
		<path id="XMLID_59_" class="st7" d="M32.9,33.1L64.2,23c2.3,6.9,2.3,13.4,0,20.3L32.9,33.1z"/>
		<path id="XMLID_57_" class="st8" d="M32.9,33.1L52.2,6.5c5.9,4.3,9.6,9.5,11.9,16.4L32.9,33.1z"/>
		<path id="XMLID_55_" class="st9" d="M32.9,33.1v-33c7.3,0,13.4,2,19.3,6.2L32.9,33.1z"/>
	</g>
</g>
<g id="XMLID_45_">
</g>
</svg>
