<?xml version="1.0" encoding="utf-8"?>
<!-- Generator: Adobe Illustrator 19.0.0, SVG Export Plug-In . SVG Version: 6.00 Build 0)  -->
<svg version="1.1" id="图层_1" xmlns="http://www.w3.org/2000/svg" xmlns:xlink="http://www.w3.org/1999/xlink" x="0px" y="0px"
	 viewBox="0 0 66 66" style="enable-background:new 0 0 66 66;" xml:space="preserve">
<style type="text/css">
	.st0{fill:#4C4C4C;}
	.st1{fill:#FF335F;}
	.st2{fill:#1A1311;}
	.st3{fill:#FFFFFF;}
	.st4{fill:#595959;}
</style>
<path id="XMLID_2296_" class="st0" d="M33.4,38.6c-3.6,0-6.6-2.9-6.6-6.6c0-3.6,2.9-6.6,6.6-6.6S40,28.3,40,32
	C40,35.6,37.2,38.6,33.4,38.6z M33.4,25.4c-3.5,0-6.5,2.9-6.5,6.5c0,3.5,2.9,6.5,6.5,6.5c3.5,0,6.5-2.9,6.5-6.5
	C39.9,28.4,37.1,25.4,33.4,25.4z"/>
<path id="XMLID_2292_" class="st0" d="M33.4,46.3c-7.9,0-14.3-6.5-14.3-14.3c0-7.9,6.5-14.3,14.3-14.3c7.9,0,14.3,6.5,14.3,14.3
	C47.8,39.8,41.4,46.3,33.4,46.3z M33.4,17.8c-7.8,0-14.2,6.3-14.2,14.2c0,7.9,6.3,14.2,14.2,14.2S47.6,39.9,47.6,32
	S41.3,17.8,33.4,17.8z"/>
<path id="XMLID_2288_" class="st0" d="M33.4,53.4c-11.9,0-21.5-9.6-21.5-21.5s9.6-21.5,21.5-21.5S54.9,20,54.9,31.9
	S45.3,53.4,33.4,53.4z M33.4,10.5c-11.8,0-21.3,9.5-21.3,21.3s9.5,21.3,21.3,21.3s21.3-9.5,21.3-21.3C54.9,20.2,45.2,10.5,33.4,10.5
	z"/>
<path id="XMLID_2284_" class="st0" d="M33.4,57.4c-14.1,0-25.5-11.5-25.5-25.5S19.4,6.4,33.4,6.4c14.1,0,25.5,11.5,25.5,25.5
	C59,45.9,47.5,57.4,33.4,57.4z M33.4,6.6C19.5,6.6,8.1,17.9,8.1,31.9s11.3,25.3,25.3,25.3s25.3-11.3,25.3-25.3S47.5,6.6,33.4,6.6z"
	/>
<path id="XMLID_2280_" class="st0" d="M33.4,62.4c-16.8,0-30.5-13.6-30.5-30.5c0-16.8,13.6-30.5,30.5-30.5
	c16.8,0,30.5,13.6,30.5,30.5S50.2,62.4,33.4,62.4z M33.4,1.6C16.7,1.6,3.1,15.2,3.1,31.9s13.6,30.3,30.3,30.3s30.3-13.6,30.3-30.3
	C63.8,15.2,50.2,1.6,33.4,1.6z"/>
<path id="XMLID_1234_" class="st1" d="M36.6,35c-0.9,0.9-2.2,1.4-3.4,1.2v-0.4c-1.1-0.1-2.3-0.7-2.9-1.6l-1,0.8l0,0l-0.5,0.3
	c0.6,0.8,1.4,1.4,2.3,1.8c2.3,1,4.9,0.5,6.6-1.2L36.6,35z"/>
<path id="XMLID_1233_" class="st1" d="M37.4,39.5c-0.9,0.5-1.9,0.7-2.9,0.8l0.2,2.7c1.2-0.1,2.6-0.5,3.9-1.1
	c2.8-1.4,4.8-3.7,5.7-6.5l-2.6-0.9C40.9,36.6,39.4,38.3,37.4,39.5z"/>
<path id="XMLID_1232_" class="st1" d="M40.7,28.1l2-1.1c-1.2-2.4-3.4-4.3-6.1-5.1l-0.8,2.5l0,0l-0.6,1.7c1.5,0.5,2.8,1.5,3.6,2.9
	c0.3,0.7,0.6,1.4,0.7,2l2-0.2C41.5,29.9,41.1,29,40.7,28.1L40.7,28.1z"/>
<path id="XMLID_1231_" class="st1" d="M23.3,41.3l0.7-0.6c-2.4-2.7-3.4-6-3.3-9.4h-0.9l0,0l-3.4-0.2l0,0l0,0L15.2,31
	c-0.1,2.2,0.1,4.3,0.8,6.5c1.5,4.9,4.9,8.7,9.2,10.9l2.2-4.1C25.8,43.7,24.5,42.5,23.3,41.3z"/>
<path id="XMLID_1230_" class="st1" d="M25.3,32c0-1.5,0.5-2.9,1.1-4.2l-2.3-1.4c-0.9,1.6-1.5,3.5-1.5,5.6c0,0.7,0.1,1.4,0.2,2
	l2.6-0.5C25.3,32.9,25.3,32.4,25.3,32z"/>
<path id="XMLID_1229_" class="st1" d="M29.8,50.8c-3.4-0.7-6.5-2.3-9-4.5l-4.2,4.6c3.3,2.9,7.3,5.1,11.9,6c1.6,0.3,3.1,0.5,4.6,0.5
	l0.1-6.2C32.1,51.3,30.9,51.1,29.8,50.8z"/>
<path id="XMLID_1228_" class="st1" d="M33.4,17v-4.9c-7.3,0-13.6,3.9-17,9.8l4.2,2.5C23.2,20,28,17,33.4,17z"/>
<path id="XMLID_1227_" class="st1" d="M53.1,47.9l6.3,5.2c7.8-9.4,9.6-21.9,5.8-32.7l-7.7,2.8C60.3,31.4,59,40.8,53.1,47.9z"/>
<polygon id="XMLID_1226_" class="st1" points="33.7,32 2.6,44 3.6,46.4 "/>
<polygon id="XMLID_1225_" class="st1" points="33.7,32 61.9,61.2 64.1,59 "/>
<polygon id="XMLID_1224_" class="st1" points="33.7,32 22.2,6.9 20.3,7.9 "/>
<polygon id="XMLID_1223_" class="st1" points="33.7,32 57,8.2 55.1,6.5 "/>
<rect id="XMLID_1222_" x="33.6" y="24.4" class="st2" width="0.1" height="1"/>
<rect id="XMLID_1221_" x="33.6" y="46.2" class="st2" width="0.1" height="1"/>
<rect id="XMLID_1220_" x="33.6" y="53.3" class="st2" width="0.1" height="1"/>
<rect id="XMLID_1219_" x="28.8" y="62.3" class="st2" width="0.1" height="1"/>
<rect id="XMLID_1218_" x="51.2" y="57.1" transform="matrix(0.579 0.8153 -0.8153 0.579 68.3543 -18.0926)" class="st2" width="1" height="0.1"/>
<rect id="XMLID_1217_" x="58.6" y="13.1" transform="matrix(0.5819 0.8133 -0.8133 0.5819 35.5902 -42.0348)" class="st2" width="0.1" height="1"/>
<rect id="XMLID_1216_" x="37.5" y="0.7" transform="matrix(0.9915 0.1298 -0.1298 0.9915 0.475 -4.865)" class="st2" width="0.1" height="1"/>
<rect id="XMLID_1215_" x="16.5" y="5.6" transform="matrix(0.5342 0.8454 -0.8454 0.5342 12.6879 -11.7125)" class="st2" width="1" height="0.1"/>
<rect id="XMLID_1214_" x="2.3" y="29.2" transform="matrix(0.9961 8.799257e-002 -8.799257e-002 0.9961 2.5858 -0.1342)" class="st2" width="1" height="0.1"/>
<rect id="XMLID_1213_" x="12.2" y="53.7" transform="matrix(0.724 0.6898 -0.6898 0.724 40.752 6.5154)" class="st2" width="0.1" height="1"/>
<rect id="XMLID_1212_" x="42.5" y="56.1" transform="matrix(0.356 0.9345 -0.9345 0.356 80.157 -4.004)" class="st2" width="1" height="0.1"/>
<rect id="XMLID_1211_" x="53.2" y="48.5" transform="matrix(0.7664 0.6423 -0.6423 0.7664 43.7267 -23.1373)" class="st2" width="1" height="0.1"/>
<rect id="XMLID_1210_" x="55.1" y="16.8" transform="matrix(0.5588 0.8293 -0.8293 0.5588 38.7266 -38.119)" class="st2" width="0.1" height="1"/>
<rect id="XMLID_1209_" x="40.4" y="6.5" transform="matrix(0.9644 0.2645 -0.2645 0.9644 3.2946 -10.4538)" class="st2" width="0.1" height="1"/>
<rect id="XMLID_1208_" x="25.6" y="7.1" transform="matrix(0.2933 0.956 -0.956 0.2933 25.2751 -19.8868)" class="st2" width="1" height="0.1"/>
<rect id="XMLID_1207_" x="12.9" y="16.1" transform="matrix(0.791 0.6118 -0.6118 0.791 12.6875 -4.7924)" class="st2" width="1" height="0.1"/>
<rect id="XMLID_1206_" x="7.2" y="32.1" class="st2" width="1" height="0.1"/>
<rect id="XMLID_1205_" x="12.1" y="45.8" transform="matrix(0.5576 0.8301 -0.8301 0.5576 43.7937 10.3805)" class="st2" width="0.1" height="1"/>
<rect id="XMLID_1204_" x="20.9" y="53.9" transform="matrix(0.8715 0.4904 -0.4904 0.8715 29.3447 -3.2866)" class="st2" width="0.1" height="1"/>
<rect id="XMLID_1203_" x="47.6" y="48.5" transform="matrix(0.653 0.7573 -0.7573 0.653 53.4543 -19.6001)" class="st2" width="1" height="0.1"/>
<rect id="XMLID_1202_" x="55.3" y="28.5" transform="matrix(0.1231 0.9924 -0.9924 0.1231 77.2932 -29.4843)" class="st2" width="0.1" height="1"/>
<rect id="XMLID_1201_" x="40" y="10.4" transform="matrix(0.9534 0.3018 -0.3018 0.9534 5.1581 -11.5935)" class="st2" width="0.1" height="1"/>
<rect id="XMLID_1200_" x="17.1" y="17" transform="matrix(0.7351 0.6779 -0.6779 0.7351 16.1909 -7.4032)" class="st2" width="1" height="0.1"/>
<rect id="XMLID_1199_" x="11.6" y="35" transform="matrix(0.1631 0.9866 -0.9866 0.1631 44.8232 18.1881)" class="st2" width="0.1" height="1"/>
<rect id="XMLID_1198_" x="11.5" y="27" transform="matrix(0.9761 0.2174 -0.2174 0.9761 6.1712 -1.9658)" class="st2" width="1" height="0.1"/>
<rect id="XMLID_1197_" x="41.3" y="44.1" transform="matrix(0.5616 0.8274 -0.8274 0.5616 54.8319 -15.2327)" class="st2" width="1" height="0.1"/>
<rect id="XMLID_1196_" x="47.2" y="35.9" transform="matrix(0.9611 0.2761 -0.2761 0.9611 11.7875 -11.7769)" class="st2" width="1" height="0.1"/>
<rect id="XMLID_1195_" x="45.3" y="22.7" transform="matrix(0.6054 0.7959 -0.7959 0.6054 36.3203 -26.94)" class="st2" width="0.1" height="1"/>
<rect id="XMLID_1194_" x="37.1" y="17.1" transform="matrix(0.9726 0.2324 -0.2324 0.9726 5.1123 -8.1551)" class="st2" width="0.1" height="1"/>
<rect id="XMLID_1193_" x="18.6" y="30.2" transform="matrix(0.9943 0.1064 -0.1064 0.9943 3.3285 -1.862)" class="st2" width="1" height="0.1"/>
<rect id="XMLID_1192_" x="27.2" y="28.2" transform="matrix(0.8521 0.5234 -0.5234 0.8521 18.8594 -10.3276)" class="st2" width="1" height="0.1"/>
<rect id="XMLID_1191_" x="29.6" y="37.4" transform="matrix(0.8242 0.5664 -0.5664 0.8242 26.6571 -10.1519)" class="st2" width="0.1" height="1"/>
<rect id="XMLID_1190_" x="37.2" y="37.7" transform="matrix(0.5776 0.8163 -0.8163 0.5776 46.7473 -14.877)" class="st2" width="1" height="0.1"/>
<rect id="XMLID_1189_" x="40.5" y="31" transform="matrix(5.472819e-002 0.9985 -0.9985 5.472819e-002 69.7992 -10.6362)" class="st2" width="0.1" height="1"/>
<rect id="XMLID_1188_" x="34.5" y="38.8" transform="matrix(0.1497 0.9887 -0.9887 0.1497 68.1525 -1.5642)" class="st2" width="1" height="0.1"/>
<path id="XMLID_2195_" class="st2" d="M41.4,31.1L41.4,31.1l0.1,0.5h0.3l0,0h-0.3L41.4,31.1z"/>
<path id="XMLID_2192_" class="st2" d="M42.1,31.2c0.1,0,0.2,0.1,0.2,0.2s-0.1,0.2-0.2,0.2s-0.2-0.1-0.2-0.2
	C41.8,31.3,41.8,31.2,42.1,31.2z M42.1,31.5C42.2,31.5,42.2,31.4,42.1,31.5c0.1-0.2,0-0.2-0.1-0.2s-0.1,0.1-0.1,0.1
	C41.8,31.5,41.9,31.6,42.1,31.5z"/>
<path id="XMLID_2190_" class="st2" d="M42.3,31.2L42.3,31.2L42.3,31.2L42.3,31.2c0.1,0,0.1,0,0.2,0l0,0l0,0l0,0
	C42.4,31.2,42.4,31.2,42.3,31.2l0.1,0.3l0,0L42.3,31.2z"/>
<path id="XMLID_2187_" class="st2" d="M43,31.4c0,0.1-0.1,0.1-0.2,0.1s-0.2-0.1-0.2-0.2s0-0.2,0.2-0.2C42.9,31.2,43,31.2,43,31.4
	h-0.3c0,0.1,0.1,0.1,0.1,0.1C42.9,31.5,43,31.5,43,31.4L43,31.4z M43,31.3C43,31.2,42.9,31.2,43,31.3c-0.2-0.1-0.2-0.1-0.2,0H43z"/>
<path id="XMLID_2185_" class="st2" d="M43.6,31.3C43.6,31.2,43.6,31.2,43.6,31.3c-0.2-0.1-0.2-0.1-0.2,0v0.2l0,0v-0.2
	c0,0,0-0.1-0.1-0.1s-0.1,0-0.1,0.1v0.2l0,0v-0.3l0,0v0.1l0,0l0.1-0.1c0.1,0,0.1,0,0.1,0.1l0.1-0.1C43.6,31.2,43.8,31.2,43.6,31.3
	l0.1,0.2l0,0L43.6,31.3z"/>
<path id="XMLID_2182_" class="st2" d="M44,31L44,31L44,31L44,31L44,31z M44,31.2L44,31.2l0.1,0.3l0,0L44,31.2z"/>
<path id="XMLID_2179_" class="st2" d="M44.1,31.1L44.1,31.1L44.1,31.1L44.1,31.1c0.1,0,0.1,0,0.2,0s0.2,0.1,0.2,0.2s0,0.2-0.2,0.2
	c-0.1,0-0.1,0-0.1-0.1l0,0v0.2l0,0L44.1,31.1z M44.3,31.4C44.4,31.4,44.4,31.3,44.3,31.4c0.1-0.2,0.1-0.2,0-0.2S44.2,31.3,44.3,31.4
	C44.2,31.4,44.2,31.5,44.3,31.4z"/>
<path id="XMLID_2177_" class="st2" d="M44.9,31.2C44.9,31.1,44.9,31.1,44.9,31.2c-0.2-0.1-0.2-0.1-0.2,0
	C44.7,31.2,44.7,31.3,44.9,31.2C44.9,31.3,45,31.3,44.9,31.2c0.1,0.2,0.1,0.2-0.1,0.2c-0.1,0-0.2,0-0.2-0.1l0,0c0,0.1,0,0.1,0.1,0.1
	S44.8,31.4,44.9,31.2c-0.1,0.1-0.1,0.1-0.2,0c-0.1,0-0.1,0-0.1-0.1s0-0.1,0.1-0.1C44.9,31.1,44.9,31.1,44.9,31.2L44.9,31.2z"/>
<path id="XMLID_2175_" class="st2" d="M45.3,31.4L45.3,31.4L45.3,31.4c-0.2,0.1-0.2,0-0.3,0v-0.2l0,0v0.2c0,0.1,0,0.1,0.1,0.1
	C45.3,31.4,45.3,31.4,45.3,31.4v-0.3l0,0V31.4L45.3,31.4L45.3,31.4z"/>
<path id="XMLID_2173_" class="st2" d="M46.1,31.2C46.1,31.1,46.1,31.1,46.1,31.2c-0.2-0.1-0.2-0.1-0.2,0v0.2l0,0v-0.2
	c0,0,0-0.1-0.1-0.1s-0.1,0-0.1,0.1v0.2l0,0v-0.3l0,0v0.1l0,0l0.1-0.1c0.1,0,0.1,0,0.1,0.1l0.1-0.1C46.1,31.1,46.1,31.1,46.1,31.2
	l0.1,0.2l0,0L46.1,31.2z"/>
<path id="XMLID_2170_" class="st2" d="M48.7,35.8L48.7,35.8l-0.1,0.5l0.3,0.1l0,0l-0.3-0.1L48.7,35.8z"/>
<path id="XMLID_2167_" class="st2" d="M49.3,36.2c0.1,0,0.2,0.1,0.1,0.2c0,0.1-0.1,0.2-0.2,0.1c-0.1,0-0.2-0.1-0.1-0.2
	C49,36.2,49.1,36.1,49.3,36.2z M49.2,36.5c0.1,0,0.2,0,0.2-0.1s0-0.1-0.1-0.2c-0.1,0-0.2,0-0.2,0.1C49,36.4,49.1,36.4,49.2,36.5z"/>
<path id="XMLID_2165_" class="st2" d="M49.5,36.3L49.5,36.3L49.5,36.3L49.5,36.3c0.1,0.1,0.1,0,0.2,0l0,0l0,0l0,0c0,0-0.1,0-0.1,0.1
	l-0.1,0.2l0,0V36.3z"/>
<path id="XMLID_2162_" class="st2" d="M50.1,36.6c0,0.1-0.1,0.1-0.2,0.1s-0.1-0.1-0.1-0.2s0.1-0.2,0.2-0.1
	C50.1,36.4,50.2,36.5,50.1,36.6l-0.3-0.1c0,0.1,0,0.1,0.1,0.2C50,36.7,50,36.7,50.1,36.6L50.1,36.6z M50.1,36.6c0-0.1,0-0.1-0.1-0.2
	c-0.1,0-0.1,0-0.2,0.1L50.1,36.6z"/>
<path id="XMLID_2160_" class="st2" d="M50.8,36.7C50.8,36.6,50.8,36.6,50.8,36.7c-0.2-0.1-0.2-0.1-0.2,0l-0.1,0.2l0,0l0.1-0.2
	c0,0,0-0.1-0.1-0.1s-0.1,0-0.1,0.1l-0.1,0.2l0,0l0.1-0.3l0,0v0.1l0,0c0,0,0.1-0.1,0.1,0c0.1,0,0.1,0.1,0.1,0.1S50.7,36.7,50.8,36.7
	C50.8,36.6,50.9,36.7,50.8,36.7v0.2l0,0V36.7z"/>
<path id="XMLID_2157_" class="st2" d="M51.1,36.7L51.1,36.7L51,37l0,0L51.1,36.7z M51.2,36.6L51.2,36.6L51.2,36.6L51.2,36.6
	L51.2,36.6z"/>
<path id="XMLID_2154_" class="st2" d="M51.2,36.7L51.2,36.7L51.2,36.7L51.2,36.7c0,0.1,0.1,0,0.2,0s0.1,0.1,0.1,0.2
	s-0.1,0.2-0.2,0.1c-0.1,0-0.1-0.1-0.1-0.1l0,0l-0.1,0.2l0,0L51.2,36.7z M51.4,37.2c0.1,0,0.1,0,0.2-0.1c0-0.1,0-0.1-0.1-0.2
	c-0.1,0-0.2,0-0.2,0.1C51.2,37.1,51.2,37.1,51.4,37.2z"/>
<path id="XMLID_2152_" class="st2" d="M52,37.1C52,37,52,37,52,37.1L51.8,37C51.7,37.1,51.8,37.1,52,37.1c0,0.1,0,0.1,0,0.2
	s-0.1,0.1-0.2,0.1s-0.2-0.1-0.1-0.2l0,0c0,0.1,0,0.1,0.1,0.1s0.1,0,0.1,0s0-0.1-0.1-0.1s-0.1-0.1-0.1-0.1C51.7,37,51.8,37,52,37.1
	C52,37,52,37.1,52,37.1L52,37.1z"/>
<path id="XMLID_2150_" class="st2" d="M52.4,37.4L52.4,37.4c0,0-0.1,0.1-0.2,0c-0.1,0-0.1-0.1-0.1-0.2l0.1-0.2l0,0l-0.1,0.2
	c0,0.1,0,0.1,0.1,0.1C52.3,37.4,52.4,37.4,52.4,37.4l0.1-0.3l0,0L52.4,37.4L52.4,37.4L52.4,37.4z"/>
<path id="XMLID_2148_" class="st2" d="M53.2,37.5c0-0.1,0-0.1-0.1-0.1s-0.1,0-0.1,0.1l-0.1,0.2l0,0l0.1-0.2c0,0,0-0.1-0.1-0.1
	s-0.1,0-0.1,0.1l-0.1,0.2l0,0l0.1-0.3l0,0v0.1l0,0c0,0,0.1-0.1,0.1,0c0.1,0,0.1,0.1,0.1,0.1S53.1,37.5,53.2,37.5
	C53.2,37.3,53.2,37.4,53.2,37.5v0.2l0,0V37.5z"/>
<path id="XMLID_2145_" class="st2" d="M56,28.7L56,28.7l0.1,0.5h0.3l0,0h-0.3L56,28.7z"/>
<path id="XMLID_2142_" class="st2" d="M56.7,28.7c0.1,0,0.2,0.1,0.2,0.2s0,0.2-0.2,0.2c-0.1,0-0.2-0.1-0.2-0.2S56.6,28.7,56.7,28.7z
	 M56.7,29c0.1,0,0.1-0.1,0.1-0.2s-0.1-0.1-0.2-0.1s-0.1,0.1-0.1,0.2C56.6,29,56.6,29,56.7,29z"/>
<path id="XMLID_2140_" class="st2" d="M56.9,28.7L56.9,28.7L56.9,28.7L56.9,28.7c0.1,0,0.1,0,0.2,0l0,0l0,0l0,0
	C57,28.7,57,28.7,56.9,28.7L57,29l0,0L56.9,28.7z"/>
<path id="XMLID_2137_" class="st2" d="M57.7,28.8c0,0.1-0.1,0.1-0.2,0.1s-0.2-0.1-0.2-0.2s0-0.2,0.2-0.2
	C57.5,28.6,57.6,28.6,57.7,28.8h-0.3C57.4,28.9,57.5,28.9,57.7,28.8C57.6,28.9,57.6,28.9,57.7,28.8L57.7,28.8z M57.6,28.7
	c0-0.1-0.1-0.1-0.2-0.1s-0.1,0-0.1,0.1H57.6z"/>
<path id="XMLID_2135_" class="st2" d="M58.3,28.6C58.3,28.5,58.3,28.5,58.3,28.6c-0.2-0.1-0.2,0-0.2,0v0.2l0,0v-0.2
	c0,0,0-0.1-0.1-0.1s-0.1,0.1-0.1,0.1v0.2l0,0v-0.3l0,0v0.1l0,0c0,0,0-0.1,0.1-0.1s0.1,0,0.1,0.1l0.1-0.1
	C58.3,28.5,58.4,28.5,58.3,28.6l0.1,0.2l0,0L58.3,28.6z"/>
<path id="XMLID_2132_" class="st2" d="M58.6,28.2L58.6,28.2L58.6,28.2L58.6,28.2L58.6,28.2z M58.6,28.5L58.6,28.5l0.1,0.3l0,0
	L58.6,28.5z"/>
<path id="XMLID_2129_" class="st2" d="M58.7,28.5L58.7,28.5L58.7,28.5L58.7,28.5c0.1,0,0.1,0,0.2,0s0.2,0.1,0.2,0.2s0,0.2-0.2,0.2
	c-0.1,0-0.1,0-0.1-0.1l0,0V29l0,0L58.7,28.5z M59.1,28.7c0.1,0,0.1-0.1,0.1-0.2s-0.1-0.1-0.2-0.1s-0.1,0.1-0.1,0.2
	S59,28.7,59.1,28.7z"/>
<path id="XMLID_2127_" class="st2" d="M59.5,28.5C59.5,28.4,59.4,28.4,59.5,28.5c-0.2-0.1-0.2-0.1-0.2,0
	C59.3,28.5,59.3,28.5,59.5,28.5C59.5,28.6,59.6,28.6,59.5,28.5c0.1,0.2,0.1,0.2,0,0.2s-0.2,0-0.2-0.1l0,0c0,0.1,0.1,0.1,0.1,0.1
	C59.5,28.7,59.5,28.7,59.5,28.5C59.5,28.6,59.5,28.6,59.5,28.5c-0.2,0.1-0.2,0.1-0.3,0c0-0.1,0-0.1,0.1-0.1
	C59.5,28.4,59.6,28.4,59.5,28.5L59.5,28.5z"/>
<path id="XMLID_2125_" class="st2" d="M60,28.6L60,28.6L60,28.6c-0.2,0.1-0.3,0.1-0.3,0v-0.2l0,0v0.2c0,0.1,0.1,0.1,0.1,0.1
	C60,28.6,60,28.6,60,28.6v-0.3l0,0V28.6L60,28.6L60,28.6z"/>
<path id="XMLID_2123_" class="st2" d="M60.8,28.2C60.8,28.1,60.8,28.1,60.8,28.2c-0.2-0.1-0.2,0-0.2,0v0.2l0,0v-0.2
	c0,0,0-0.1-0.1-0.1s-0.1,0.1-0.1,0.1v0.2l0,0v-0.3l0,0v0.1l0,0c0,0,0-0.1,0.1-0.1s0.1,0,0.1,0.1l0.1-0.1
	C60.8,28.1,60.8,28.2,60.8,28.2l0.1,0.2l0,0L60.8,28.2z"/>
<path id="XMLID_2120_" class="st2" d="M45.7,22.3L45.7,22.3l0.3,0.3l0.2-0.2l0,0l-0.3,0.2L45.7,22.3z"/>
<path id="XMLID_2117_" class="st2" d="M46.3,22c0.1-0.1,0.2,0,0.3,0c0.1,0.1,0.1,0.2-0.1,0.3c-0.1,0.1-0.2,0-0.3,0
	C46.1,22.2,46.1,22.1,46.3,22z M46.5,22.3c0.1-0.1,0.1-0.1,0-0.2c0-0.1-0.1-0.1-0.2,0s-0.1,0.1,0,0.2S46.4,22.3,46.5,22.3z"/>
<path id="XMLID_2115_" class="st2" d="M46.5,21.9L46.5,21.9L46.5,21.9L46.5,21.9C46.6,21.9,46.6,21.8,46.5,21.9L46.5,21.9L46.5,21.9
	L46.5,21.9C46.6,21.8,46.5,21.9,46.5,21.9l0.2,0.2l0,0L46.5,21.9z"/>
<path id="XMLID_2112_" class="st2" d="M47.2,21.7c0,0.1,0,0.1-0.1,0.2s-0.2,0-0.3,0c-0.1-0.1-0.1-0.2,0-0.3
	C46.9,21.5,47,21.5,47.2,21.7l-0.3,0.1C46.9,21.9,47,21.9,47.2,21.7C47.2,21.9,47.2,21.8,47.2,21.7L47.2,21.7z M47.2,21.7
	c-0.1-0.1-0.1-0.1-0.2,0c-0.1,0-0.1,0.1,0,0.2L47.2,21.7z"/>
<path id="XMLID_2110_" class="st2" d="M47.7,21.2C47.7,21.1,47.6,21.1,47.7,21.2c-0.2,0-0.2,0.1-0.1,0.2l0.1,0.2l0,0l-0.1-0.2h-0.1
	c-0.1,0-0.1,0.1,0,0.2l0.1,0.2l0,0l-0.2-0.3l0,0v0.1l0,0c0,0,0-0.1,0.1-0.1s0.1,0,0.1,0s0-0.1,0.1-0.1
	C47.6,21.1,47.7,21.1,47.7,21.2l0.2,0.1l0,0L47.7,21.2z"/>
<path id="XMLID_2107_" class="st2" d="M47.8,20.8L47.8,20.8L47.8,20.8L47.8,20.8L47.8,20.8z M47.8,20.9L47.8,20.9l0.2,0.2l0,0
	L47.8,20.9z"/>
<path id="XMLID_2104_" class="st2" d="M48,20.9L48,20.9L48,20.9L48,20.9C48.1,20.9,48.1,20.8,48,20.9c0.2-0.2,0.3-0.1,0.4-0.1
	c0.1,0.1,0.1,0.2,0,0.3c-0.1,0-0.1,0-0.2,0l0,0l0.1,0.2l0,0L48,20.9z M48.4,21c0.1,0,0.1-0.1,0-0.2c0-0.1-0.1-0.1-0.2,0
	c-0.1,0-0.1,0.1,0,0.2C48.2,21,48.3,21.1,48.4,21z"/>
<path id="XMLID_2102_" class="st2" d="M48.7,20.5L48.7,20.5C48.6,20.5,48.5,20.6,48.7,20.5C48.5,20.6,48.5,20.6,48.7,20.5
	C48.7,20.5,48.8,20.5,48.7,20.5c0.1,0.2,0.1,0.2,0,0.3s-0.2,0.1-0.2,0l0,0h0.1c0.1,0,0.1-0.1,0.1-0.1s0,0-0.1,0
	c-0.1,0.1-0.1,0.1-0.2,0c0,0,0-0.1,0.1-0.2C48.6,20.4,48.7,20.4,48.7,20.5L48.7,20.5z"/>
<path id="XMLID_2100_" class="st2" d="M49.2,20.4L49.2,20.4C49.2,20.4,49.2,20.5,49.2,20.4c-0.2,0.2-0.3,0.1-0.3,0.1l-0.1-0.2l0,0
	l0.1,0.2c0,0.1,0.1,0.1,0.1,0C49.2,20.4,49.2,20.4,49.2,20.4L49,20.2l0,0L49.2,20.4L49.2,20.4L49.2,20.4z"/>
<path id="XMLID_2098_" class="st2" d="M49.7,19.8C49.7,19.7,49.6,19.7,49.7,19.8c-0.2,0-0.2,0.1-0.1,0.2l0.1,0.2l0,0L49.6,20h-0.1
	c-0.1,0-0.1,0.1,0,0.2l0.1,0.2l0,0l-0.2-0.3l0,0v0.1l0,0c0,0,0-0.1,0.1-0.1s0.1,0,0.1,0s0-0.1,0.1-0.1
	C49.7,19.7,49.7,19.7,49.7,19.8l0.2,0.1l0,0L49.7,19.8z"/>
<path id="XMLID_2095_" class="st2" d="M55.6,16.8L55.6,16.8l0.3,0.3l0.2-0.2l0,0l-0.3,0.2L55.6,16.8z"/>
<path id="XMLID_2092_" class="st2" d="M56.2,16.4c0.1-0.1,0.2,0,0.3,0s0.1,0.2-0.1,0.3c-0.1,0.1-0.2,0-0.3,0
	C56.1,16.7,56.1,16.6,56.2,16.4z M56.3,16.8c0.1-0.1,0.1-0.1,0-0.2c0-0.1-0.1-0.1-0.2,0s-0.1,0.1,0,0.2S56.3,16.8,56.3,16.8z"/>
<path id="XMLID_2090_" class="st2" d="M56.5,16.3L56.5,16.3L56.5,16.3L56.5,16.3C56.6,16.3,56.6,16.2,56.5,16.3L56.5,16.3L56.5,16.3
	L56.5,16.3C56.6,16.2,56.5,16.3,56.5,16.3l0.2,0.2l0,0L56.5,16.3z"/>
<path id="XMLID_2087_" class="st2" d="M57.1,16.1c0,0.1,0,0.1-0.1,0.2s-0.2,0-0.3,0c-0.1-0.1-0.1-0.2,0-0.3C56.9,16,57,16,57.1,16.1
	l-0.3,0.1C56.8,16.3,56.9,16.3,57.1,16.1C57.1,16.3,57.1,16.2,57.1,16.1L57.1,16.1z M57,16.1c-0.1-0.1-0.1-0.1-0.2,0
	c-0.1,0-0.1,0.1,0,0.2L57,16.1z"/>
<path id="XMLID_2085_" class="st2" d="M57.6,15.7C57.6,15.6,57.5,15.6,57.6,15.7c-0.2,0-0.2,0.1-0.1,0.2l0.1,0.2l0,0l-0.1-0.2h-0.1
	c-0.1,0-0.1,0.1,0,0.2l0.1,0.2l0,0L57.3,16l0,0v0.1l0,0c0,0,0-0.1,0.1-0.1s0.1,0,0.1,0s0-0.1,0.1-0.1C57.6,15.5,57.6,15.5,57.6,15.7
	l0.2,0.1l0,0L57.6,15.7z"/>
<path id="XMLID_2082_" class="st2" d="M57.7,15.2L57.7,15.2L57.7,15.2L57.7,15.2L57.7,15.2z M57.8,15.3L57.8,15.3l0.2,0.2l0,0
	L57.8,15.3z"/>
<path id="XMLID_2079_" class="st2" d="M57.9,15.3L57.9,15.3L57.9,15.3L57.9,15.3C58,15.3,58,15.2,57.9,15.3c0.2-0.2,0.3-0.1,0.4-0.1
	c0.1,0.1,0.1,0.2,0,0.3c-0.1,0-0.1,0-0.2,0l0,0l0.1,0.2l0,0L57.9,15.3z M58.3,15.4c0.1,0,0.1-0.1,0-0.2c0-0.1-0.1-0.1-0.2,0
	c-0.1,0-0.1,0.1,0,0.2C58.2,15.4,58.3,15.5,58.3,15.4z"/>
<path id="XMLID_2077_" class="st2" d="M58.6,15L58.6,15C58.5,15,58.4,15.1,58.6,15C58.5,15.1,58.5,15.1,58.6,15
	C58.6,15,58.7,15,58.6,15c0.1,0.2,0.1,0.2,0,0.3s-0.2,0.1-0.2,0l0,0h0.1c0.1,0,0.1-0.1,0.1-0.1s0,0-0.1,0c-0.1,0.1-0.1,0.1-0.2,0
	c0,0,0-0.1,0.1-0.2C58.6,14.9,58.6,14.9,58.6,15L58.6,15z"/>
<path id="XMLID_2075_" class="st2" d="M59.1,14.9L59.1,14.9C59.1,14.9,59.1,15,59.1,14.9c-0.2,0.2-0.3,0.1-0.3,0.1l-0.1-0.2l0,0
	l0.1,0.2c0,0.1,0.1,0.1,0.1,0C59.1,14.9,59.1,14.9,59.1,14.9l-0.2-0.2l0,0L59.1,14.9L59.1,14.9L59.1,14.9z"/>
<path id="XMLID_2073_" class="st2" d="M59.6,14.3C59.6,14.2,59.5,14.2,59.6,14.3c-0.2,0-0.2,0.1-0.1,0.2l0.1,0.2l0,0l-0.1-0.2h-0.1
	c-0.1,0-0.1,0.1,0,0.2l0.1,0.2l0,0l-0.2-0.3l0,0v0.1l0,0c0,0,0-0.1,0.1-0.1s0.1,0,0.1,0s0-0.1,0.1-0.1
	C59.5,14.2,59.6,14.2,59.6,14.3l0.2,0.1l0,0L59.6,14.3z"/>
<path id="XMLID_2070_" class="st2" d="M59,13L59,13l0.3,0.3l0.2-0.2l0,0l-0.3,0.2L59,13z"/>
<path id="XMLID_2067_" class="st2" d="M59.6,12.8c0.1-0.1,0.2,0,0.3,0s0.1,0.2-0.1,0.3c-0.1,0.1-0.2,0-0.3,0
	C59.5,13,59.5,12.9,59.6,12.8z M59.7,13.2c0.1-0.1,0.1-0.1,0-0.2c0-0.1-0.1-0.1-0.2,0s-0.1,0.1,0,0.2C59.6,13.2,59.7,13.2,59.7,13.2
	z"/>
<path id="XMLID_2065_" class="st2" d="M59.9,12.7L59.9,12.7L59.9,12.7L59.9,12.7C60,12.7,60,12.6,59.9,12.7L59.9,12.7L59.9,12.7
	L59.9,12.7C60,12.6,59.9,12.7,59.9,12.7l0.2,0.2l0,0L59.9,12.7z"/>
<path id="XMLID_2062_" class="st2" d="M60.5,12.5c0,0.1,0,0.1-0.1,0.2s-0.2,0-0.3,0c-0.1-0.1-0.1-0.2,0-0.3
	C60.3,12.4,60.4,12.2,60.5,12.5l-0.3,0.1C60.2,12.7,60.3,12.7,60.5,12.5C60.5,12.6,60.5,12.6,60.5,12.5L60.5,12.5z M60.4,12.5
	c-0.1-0.1-0.1-0.1-0.2,0c-0.1,0-0.1,0.1,0,0.2L60.4,12.5z"/>
<path id="XMLID_2060_" class="st2" d="M61,12C61,11.9,60.9,11.9,61,12c-0.2,0-0.2,0.1-0.1,0.2l0.1,0.2l0,0l-0.1-0.2h-0.1
	c-0.1,0-0.1,0.1,0,0.2l0.1,0.2l0,0l-0.2-0.3l0,0v0.1l0,0c0,0,0-0.1,0.1-0.1s0.1,0,0.1,0s0-0.1,0.1-0.1C60.9,11.9,61,11.9,61,12
	l0.2,0.1l0,0L61,12z"/>
<path id="XMLID_2057_" class="st2" d="M61.1,11.6L61.1,11.6L61.1,11.6L61.1,11.6L61.1,11.6z M61.2,11.7L61.2,11.7l0.2,0.2l0,0
	L61.2,11.7z"/>
<path id="XMLID_2054_" class="st2" d="M61.3,11.6L61.3,11.6L61.3,11.6L61.3,11.6C61.4,11.6,61.4,11.5,61.3,11.6
	c0.2-0.2,0.3-0.1,0.4-0.1c0.1,0.1,0.1,0.2,0,0.3c-0.1,0-0.1,0-0.2,0l0,0l0.1,0.2l0,0L61.3,11.6z M61.7,11.8c0.1,0,0.1-0.1,0-0.2
	c0-0.1-0.1-0.1-0.2,0c-0.1,0-0.1,0.1,0,0.2C61.6,11.8,61.6,11.8,61.7,11.8z"/>
<path id="XMLID_2052_" class="st2" d="M62,11.2L62,11.2C61.9,11.2,61.8,11.3,62,11.2C61.8,11.5,61.9,11.5,62,11.2
	C62,11.2,62.1,11.2,62,11.2c0.1,0.2,0.1,0.2,0,0.3c-0.1,0.1-0.2,0.1-0.2,0l0,0h0.1c0.1,0,0.1-0.1,0.1-0.1s0,0-0.1,0
	c-0.1,0.1-0.1,0.1-0.2,0c0,0,0-0.1,0.1-0.2C61.9,11.1,62,11.2,62,11.2L62,11.2z"/>
<path id="XMLID_2050_" class="st2" d="M62.5,11.1L62.5,11.1C62.5,11.1,62.5,11.2,62.5,11.1c-0.2,0.2-0.3,0.1-0.3,0.1L62.1,11l0,0
	l0.1,0.2c0,0.1,0.1,0.1,0.1,0C62.5,11.2,62.5,11.1,62.5,11.1l-0.2-0.2l0,0L62.5,11.1L62.5,11.1L62.5,11.1z"/>
<path id="XMLID_2048_" class="st2" d="M63,10.7C63,10.6,62.9,10.6,63,10.7c-0.2,0-0.2,0.1-0.1,0.2l0.1,0.2l0,0l-0.1-0.2h-0.1
	c-0.1,0-0.1,0.1,0,0.2l0.1,0.2l0,0L62.7,11l0,0v0.1l0,0c0,0,0-0.1,0.1-0.1s0.1,0,0.1,0s0-0.1,0.1-0.1C62.9,10.4,63,10.5,63,10.7
	l0.2,0.1l0,0L63,10.7z"/>
<path id="XMLID_2045_" class="st2" d="M37.1,16.8L37.1,16.8l0.5,0.1l0.1-0.3l0,0l-0.1,0.3L37.1,16.8z"/>
<path id="XMLID_2042_" class="st2" d="M37.3,16.2c0-0.1,0.1-0.2,0.2-0.1c0.1,0,0.2,0.1,0.1,0.2c0,0.1-0.1,0.2-0.2,0.1
	C37.3,16.4,37.3,16.3,37.3,16.2z M37.6,16.2c0-0.1,0-0.2-0.1-0.2s-0.1,0-0.2,0.1c0,0.1,0,0.2,0.1,0.2C37.5,16.4,37.6,16.3,37.6,16.2
	z"/>
<path id="XMLID_2040_" class="st2" d="M37.4,15.9L37.4,15.9L37.4,15.9L37.4,15.9c0.1-0.1,0-0.1,0-0.2l0,0l0,0l0,0
	C37.4,15.8,37.4,15.8,37.4,15.9l0.3-0.1l0,0L37.4,15.9z"/>
<path id="XMLID_2037_" class="st2" d="M37.9,15.3c0.1,0,0.1,0.1,0.1,0.2s-0.1,0.2-0.2,0.1c-0.1,0-0.2-0.1-0.1-0.2
	C37.5,15.3,37.6,15.2,37.9,15.3l-0.1,0.3c0.1,0,0.1,0,0.2-0.1C37.9,15.4,37.9,15.4,37.9,15.3L37.9,15.3z M37.7,15.3
	C37.6,15.3,37.6,15.3,37.7,15.3c-0.1,0.2-0.1,0.2,0,0.3V15.3z"/>
<path id="XMLID_2035_" class="st2" d="M37.9,14.6C37.8,14.6,37.8,14.6,37.9,14.6c-0.1,0.2-0.1,0.2,0,0.2l0.2,0.1l0,0l-0.2-0.1
	c0,0-0.1,0-0.1,0.1s0,0.1,0.1,0.1h0.2l0,0l-0.3-0.1l0,0h0.1l0,0c0,0-0.1-0.1,0-0.1C37.9,14.7,38,14.7,37.9,14.6
	C38,14.7,37.9,14.6,37.9,14.6C37.7,14.6,37.7,14.5,37.9,14.6h0.2l0,0H37.9z"/>
<path id="XMLID_2032_" class="st2" d="M37.6,14.2L37.6,14.2L37.6,14.2L37.6,14.2L37.6,14.2z M37.9,14.3L37.9,14.3h0.3l0,0H37.9z"/>
<path id="XMLID_2029_" class="st2" d="M37.9,14.2L37.9,14.2L37.9,14.2L37.9,14.2c0.1-0.1,0-0.1,0-0.2s0.1-0.2,0.2-0.1
	c0.1,0,0.2,0.1,0.1,0.2c0,0.1-0.1,0.1-0.1,0.1l0,0l0.2,0.1l0,0L37.9,14.2z M38.2,14.1c0-0.1,0-0.1-0.1-0.2c-0.1,0-0.1,0-0.2,0.1
	c0,0.1,0,0.1,0.1,0.2C38.1,14.2,38.2,14.1,38.2,14.1z"/>
<path id="XMLID_2027_" class="st2" d="M38.2,13.4C38.1,13.4,38.1,13.4,38.2,13.4c-0.1,0.1-0.1,0.2-0.1,0.2S38.2,13.6,38.2,13.4
	c0.1,0,0.1,0,0.2,0s0.1,0.1,0.1,0.2s-0.1,0.2-0.2,0.1l0,0c0.1,0,0.1,0,0.1-0.1s0-0.1,0-0.1s-0.1,0-0.1,0.1s-0.1,0.1-0.1,0.1
	C38.1,13.7,38.1,13.6,38.2,13.4C38.1,13.4,38.1,13.4,38.2,13.4L38.2,13.4z"/>
<path id="XMLID_2025_" class="st2" d="M38.4,13L38.4,13c0,0,0.1,0.1,0,0.2c0,0.1-0.1,0.1-0.2,0.1L38,13.2l0,0l0.2,0.1
	c0.1,0,0.1,0,0.1-0.1C38.5,13,38.4,13,38.4,13l-0.3-0.1l0,0L38.4,13L38.4,13L38.4,13z"/>
<path id="XMLID_2023_" class="st2" d="M38.5,12.2C38.4,12.2,38.4,12.2,38.5,12.2c-0.1,0.2-0.1,0.2,0,0.2l0.2,0.1l0,0l-0.2-0.1
	c0,0-0.1,0-0.1,0.1s0,0.1,0.1,0.1h0.2l0,0l-0.3-0.1l0,0h0.1l0,0c0,0-0.1-0.1,0-0.1C38.5,12.3,38.6,12.3,38.5,12.2
	C38.6,12.3,38.5,12.2,38.5,12.2C38.3,12.2,38.4,12.1,38.5,12.2h0.2l0,0H38.5z"/>
<path id="XMLID_2020_" class="st2" d="M40,10.1L40,10.1l0.5,0.1l0.1-0.3l0,0l-0.1,0.3L40,10.1z"/>
<path id="XMLID_2017_" class="st2" d="M40.2,9.5c0-0.1,0.1-0.2,0.2-0.1c0.1,0,0.2,0.1,0.1,0.2c0,0.1-0.1,0.2-0.2,0.1
	C40.4,9.8,40.2,9.6,40.2,9.5z M40.7,9.6c0-0.1,0-0.2-0.1-0.2s-0.1,0-0.2,0.1c0,0.1,0,0.2,0.1,0.2C40.6,9.8,40.6,9.8,40.7,9.6z"/>
<path id="XMLID_2015_" class="st2" d="M40.4,9.3L40.4,9.3L40.4,9.3L40.4,9.3c0.1-0.1,0-0.1,0-0.2l0,0l0,0l0,0
	C40.4,9.2,40.4,9.2,40.4,9.3l0.3-0.1l0,0L40.4,9.3z"/>
<path id="XMLID_2012_" class="st2" d="M40.8,8.7c0.1,0,0.1,0.1,0.1,0.2S40.8,9.1,40.7,9c-0.1,0-0.2-0.1-0.1-0.2
	C40.6,8.7,40.6,8.6,40.8,8.7L40.7,9c0.1,0,0.1,0,0.2-0.1C40.9,8.8,40.8,8.8,40.8,8.7L40.8,8.7z M40.7,8.7
	C40.6,8.7,40.6,8.7,40.7,8.7c-0.1,0.2-0.1,0.2,0,0.3V8.7z"/>
<path id="XMLID_2010_" class="st2" d="M40.9,8.1C40.8,8.1,40.8,8.1,40.9,8.1c-0.1,0.2-0.1,0.2,0,0.2l0.2,0.1l0,0l-0.2-0.1
	c0,0-0.1,0-0.1,0.1s0,0.1,0.1,0.1l0.2,0.1l0,0l-0.3-0.1l0,0h0.1l0,0c0,0-0.1-0.1,0-0.1c0-0.1,0.1-0.1,0.1-0.1S40.9,8.2,40.9,8.1
	C40.7,7.9,40.8,7.9,40.9,8.1h0.2l0,0H40.9z"/>
<path id="XMLID_2007_" class="st2" d="M40.7,7.6L40.7,7.6L40.7,7.6L40.7,7.6L40.7,7.6z M40.8,7.7L40.8,7.7h0.3l0,0H40.8z"/>
<path id="XMLID_2004_" class="st2" d="M40.9,7.5L40.9,7.5L40.9,7.5L40.9,7.5c0.1,0,0-0.1,0-0.2s0.1-0.2,0.2-0.1
	c0.1,0,0.2,0.1,0.1,0.2c0,0.1-0.1,0.1-0.1,0.1l0,0l0.2,0.1l0,0L40.9,7.5z M41.3,7.4c0-0.1,0-0.1-0.1-0.2c-0.1,0-0.1,0-0.2,0.1
	c0,0.1,0,0.1,0.1,0.2C41.1,7.6,41.3,7.5,41.3,7.4z"/>
<path id="XMLID_2002_" class="st2" d="M41.3,6.8C41.1,6.8,41.1,6.8,41.3,6.8C41.2,6.9,41.2,7,41.2,7C41.1,7,41.1,7,41.3,6.8
	c0.1,0,0.1,0,0.2,0s0.1,0.1,0.1,0.2s-0.1,0.2-0.2,0.1l0,0c0.1,0,0.1,0,0.1-0.1s0-0.1,0-0.1s-0.1,0-0.1,0.1s-0.1,0.1-0.1,0.1
	C41.2,7.1,41.2,7,41.3,6.8C41,6.8,41.1,6.7,41.3,6.8L41.3,6.8z"/>
<path id="XMLID_2000_" class="st2" d="M41.5,6.5L41.5,6.5c0,0,0.1,0.1,0,0.2c0,0.1-0.1,0.1-0.2,0.1l-0.2-0.1l0,0l0.2,0.1
	c0.1,0,0.1,0,0.1-0.1C41.6,6.5,41.5,6.5,41.5,6.5l-0.3-0.1l0,0L41.5,6.5L41.5,6.5L41.5,6.5z"/>
<path id="XMLID_1998_" class="st2" d="M41.6,5.7C41.5,5.7,41.5,5.7,41.6,5.7c-0.1,0.2-0.1,0.2,0,0.2L41.8,6l0,0l-0.2-0.1
	c0,0-0.1,0-0.1,0.1s0,0.1,0.1,0.1l0.2,0.1l0,0l-0.3-0.1l0,0h0.1l0,0c0,0-0.1-0.1,0-0.1c0-0.1,0.1-0.1,0.1-0.1S41.6,5.8,41.6,5.7
	C41.4,5.7,41.5,5.6,41.6,5.7h0.2l0,0H41.6z"/>
<path id="XMLID_1995_" class="st2" d="M40.4,6.1L40.4,6.1l0.5,0.1L41,5.9l0,0l-0.1,0.3L40.4,6.1z"/>
<path id="XMLID_1992_" class="st2" d="M40.7,5.6c0-0.1,0.1-0.2,0.2-0.1c0.1,0,0.2,0.1,0.1,0.2c0,0.1-0.1,0.2-0.2,0.1
	C40.7,5.8,40.6,5.7,40.7,5.6z M41,5.7c0-0.1,0-0.2-0.1-0.2s-0.1,0-0.2,0.1c0,0.1,0,0.2,0.1,0.2S40.9,5.8,41,5.7z"/>
<path id="XMLID_1990_" class="st2" d="M40.7,5.3L40.7,5.3L40.7,5.3L40.7,5.3c0.1-0.1,0-0.1,0-0.2l0,0l0,0l0,0
	C40.7,5.2,40.7,5.2,40.7,5.3L41,5.2l0,0L40.7,5.3z"/>
<path id="XMLID_1987_" class="st2" d="M41.1,4.8c0.1,0,0.1,0.1,0.1,0.2S41.1,5.2,41,5.1c-0.1,0-0.2-0.1-0.1-0.2
	C40.9,4.8,40.9,4.7,41.1,4.8L41,5.1c0.1,0,0.1,0,0.2-0.1C41.3,4.9,41.3,4.9,41.1,4.8L41.1,4.8z M41,4.8C40.9,4.8,40.9,4.8,41,4.8
	C40.9,5,40.9,5,41,5.1V4.8z"/>
<path id="XMLID_1985_" class="st2" d="M41.3,4.1C41.2,4.1,41.2,4.1,41.3,4.1c-0.1,0.2-0.1,0.2,0,0.2l0.2,0.1l0,0l-0.2-0.1
	c0,0-0.1,0-0.1,0.1s0,0.1,0.1,0.1l0.2,0.1l0,0l-0.3-0.1l0,0h0.1l0,0c0,0-0.1-0.1,0-0.1c0-0.1,0.1-0.1,0.1-0.1S41.3,4.2,41.3,4.1
	C41.1,4,41.1,4,41.3,4.1h0.2l0,0H41.3z"/>
<path id="XMLID_1982_" class="st2" d="M41,3.6L41,3.6L41,3.6L41,3.6L41,3.6z M41.3,3.7L41.3,3.7h0.3l0,0H41.3z"/>
<path id="XMLID_1979_" class="st2" d="M41.3,3.5L41.3,3.5L41.3,3.5L41.3,3.5c0.1,0,0-0.1,0-0.2s0.1-0.2,0.2-0.1
	c0.1,0,0.2,0.1,0.1,0.2c0,0.1-0.1,0.1-0.1,0.1l0,0l0.2,0.1l0,0L41.3,3.5z M41.6,3.4c0-0.1,0-0.1-0.1-0.2c-0.1,0-0.1,0-0.2,0.1
	c0,0.1,0,0.1,0.1,0.2S41.6,3.5,41.6,3.4z"/>
<path id="XMLID_1977_" class="st2" d="M41.6,2.8C41.5,2.8,41.5,2.8,41.6,2.8C41.5,2.9,41.5,3,41.5,3C41.5,3.1,41.6,3.1,41.6,2.8
	c0.1,0,0.1,0,0.2,0s0.1,0.1,0.1,0.2s-0.1,0.2-0.2,0.1l0,0c0.1,0,0.1,0,0.1-0.1s0-0.1,0-0.1s-0.1,0-0.1,0.1s-0.1,0.1-0.1,0.1
	C41.5,3.1,41.5,3,41.6,2.8C41.5,2.8,41.5,2.7,41.6,2.8L41.6,2.8z"/>
<path id="XMLID_1975_" class="st2" d="M41.8,2.5L41.8,2.5c0,0,0.1,0.1,0,0.2c0,0.1-0.1,0.1-0.2,0.1l-0.2-0.1l0,0l0.2,0.1
	c0.1,0,0.1,0,0.1-0.1C41.9,2.5,41.8,2.5,41.8,2.5l-0.3-0.1l0,0L41.8,2.5L41.8,2.5L41.8,2.5z"/>
<path id="XMLID_1973_" class="st2" d="M41.9,1.7C41.8,1.7,41.8,1.7,41.9,1.7c-0.1,0.2-0.1,0.2,0,0.2L42.1,2l0,0l-0.2-0.1
	c0,0-0.1,0-0.1,0.1c0,0.1,0,0.1,0.1,0.1l0.2,0.1l0,0l-0.3-0.1l0,0h0.1l0,0c0,0-0.1-0.1,0-0.1c0-0.1,0.1-0.1,0.1-0.1
	S41.9,1.8,41.9,1.7C41.8,1.7,41.8,1.6,41.9,1.7h0.2l0,0H41.9z"/>
<path id="XMLID_1970_" class="st2" d="M37.2,0.3L37.2,0.3h0.5V0l0,0v0.3H37.2z"/>
<path id="XMLID_1967_" class="st2" d="M37.3-0.2c0-0.1,0.1-0.2,0.2-0.2s0.2,0.1,0.2,0.2S37.6,0,37.5,0S37.3-0.1,37.3-0.2z M37.7-0.1
	c0-0.1,0-0.1-0.1-0.2c-0.1,0-0.1,0-0.2,0.1c0,0.1,0,0.2,0.1,0.2S37.7-0.1,37.7-0.1z"/>
<path id="XMLID_1965_" class="st2" d="M37.4-0.5L37.4-0.5L37.4-0.5L37.4-0.5c0-0.1,0-0.1,0-0.2l0,0l0,0l0,0
	C37.4-0.6,37.4-0.6,37.4-0.5l0.3-0.1l0,0L37.4-0.5z"/>
<path id="XMLID_1962_" class="st2" d="M37.7-1.1c0.1,0,0.1,0.1,0.1,0.2s-0.1,0.2-0.2,0.2s-0.2-0.1-0.2-0.2S37.5-1.1,37.7-1.1
	l-0.1,0.3c0.1,0,0.1,0,0.1-0.1C37.9-1,37.7-1,37.7-1.1L37.7-1.1z M37.6-1.1C37.5-1.1,37.5-1,37.6-1.1c-0.1,0.2-0.1,0.2,0,0.3V-1.1z"
	/>
<path id="XMLID_1960_" class="st2" d="M37.7-1.8C37.6-1.8,37.6-1.8,37.7-1.8c-0.1,0.2-0.1,0.2,0,0.2h0.2l0,0h-0.2c0,0-0.1,0-0.1,0.1
	s0,0.1,0.1,0.1h0.2l0,0h-0.3l0,0h0.1l0,0l-0.1-0.1c0-0.1,0.1-0.1,0.1-0.1V-1.8C37.5-1.8,37.6-1.9,37.7-1.8h0.2l0,0H37.7z"/>
<path id="XMLID_1957_" class="st2" d="M37.5-2.2L37.5-2.2L37.5-2.2L37.5-2.2L37.5-2.2z M37.6-2.2L37.6-2.2h0.3l0,0H37.6z"/>
<path id="XMLID_1954_" class="st2" d="M37.6-2.3L37.6-2.3L37.6-2.3L37.6-2.3c0-0.1,0-0.1,0-0.2s0.1-0.2,0.2-0.2S38-2.6,38-2.5
	s-0.1,0.1-0.1,0.1l0,0h0.2l0,0L37.6-2.3z M38-2.5c0-0.1,0-0.1-0.1-0.2c-0.1,0-0.1,0-0.2,0.1c0,0.1,0,0.1,0.1,0.2
	C37.9-2.4,38-2.4,38-2.5z"/>
<path id="XMLID_1952_" class="st2" d="M37.9-3.1C37.8-3.1,37.8-3.1,37.9-3.1c-0.1,0.2-0.1,0.2-0.1,0.2C37.9-2.8,37.9-2.8,37.9-3.1
	C38-3.1,38-3.1,37.9-3.1c0.2,0,0.2,0.1,0.2,0.2S38-2.7,38-2.7l0,0c0.1,0,0.1,0,0.1-0.1s0-0.1,0-0.1S38-2.9,38-2.8s-0.1,0.1-0.1,0.1
	c-0.1,0-0.1-0.1-0.1-0.2C37.7-3.1,37.7-3.1,37.9-3.1L37.9-3.1z"/>
<path id="XMLID_1950_" class="st2" d="M38.1-3.5L38.1-3.5L38.1-3.5c0.1,0.2,0,0.2-0.1,0.2h-0.2l0,0H38C38.1-3.3,38.1-3.3,38.1-3.5
	C38.1-3.4,38.1-3.5,38.1-3.5h-0.3l0,0H38.1L38.1-3.5L38.1-3.5z"/>
<path id="XMLID_1948_" class="st2" d="M38.1-4.2C38-4.2,38-4.2,38.1-4.2C38-4,38-4,38.1-4h0.2l0,0h-0.2c0,0-0.1,0-0.1,0.1
	s0,0.1,0.1,0.1h0.2l0,0H38l0,0h0.1l0,0L38-3.9C38-4,38.1-4,38.1-4L38.1-4.2C37.9-4.3,38-4.3,38.1-4.2h0.2l0,0H38.1z"/>
<path id="XMLID_1945_" class="st2" d="M14.2,0.6L14.2,0.6l-0.3,0.3l0.2,0.3l0,0l-0.2-0.3L14.2,0.6z"/>
<path id="XMLID_1942_" class="st2" d="M14.4,1.3c0.1,0.1,0,0.2-0.1,0.3c-0.1,0-0.2,0-0.3-0.1c-0.1-0.1,0-0.2,0.1-0.3
	S14.3,1.1,14.4,1.3z M14.1,1.4c0,0.1,0.1,0.1,0.2,0.1s0.1-0.1,0-0.2c0-0.1-0.1-0.1-0.2-0.1C14.1,1.3,14.1,1.4,14.1,1.4z"/>
<path id="XMLID_1940_" class="st2" d="M14.5,1.5L14.5,1.5L14.5,1.5L14.5,1.5C14.5,1.6,14.6,1.6,14.5,1.5L14.5,1.5L14.5,1.5L14.5,1.5
	C14.6,1.6,14.5,1.5,14.5,1.5l-0.2,0.2l0,0L14.5,1.5z"/>
<path id="XMLID_1937_" class="st2" d="M14.6,2.2c-0.1,0-0.1,0-0.2-0.1s0-0.2,0.1-0.3c0.1,0,0.2,0,0.2,0.1C14.8,1.9,14.8,2,14.6,2.2
	l-0.1-0.3c-0.1,0-0.1,0.1,0,0.2C14.5,2.2,14.5,2.2,14.6,2.2L14.6,2.2z M14.7,2.2c0.1-0.1,0.1-0.1,0-0.2c0-0.1-0.1-0.1-0.2-0.1
	L14.7,2.2z"/>
<path id="XMLID_1935_" class="st2" d="M15.1,2.7C15.2,2.7,15.2,2.6,15.1,2.7c0-0.2-0.1-0.2-0.2-0.1l-0.2,0.1l0,0l0.2-0.1
	c0,0,0.1-0.1,0-0.1c0-0.1-0.1-0.1-0.2,0l-0.2,0.1l0,0l0.3-0.2l0,0h-0.1l0,0c0,0,0.1,0,0.1,0.1s0,0.1,0,0.1s0.1,0,0.1,0.1
	C15.2,2.6,15.2,2.7,15.1,2.7l-0.2,0.2l0,0L15.1,2.7z"/>
<path id="XMLID_1932_" class="st2" d="M15.5,2.8L15.5,2.8L15.5,2.8L15.5,2.8L15.5,2.8z M15.4,3L15.4,3l-0.3,0.2l0,0L15.4,3z"/>
<path id="XMLID_1929_" class="st2" d="M15.4,3.1L15.4,3.1L15.4,3.1L15.4,3.1c0,0.1,0.1,0.1,0.1,0.2c0.1,0.1,0,0.2-0.1,0.3
	c-0.1,0-0.2,0-0.2-0.1s0-0.1,0-0.2l0,0L15,3.4l0,0L15.4,3.1z M15.3,3.4c0,0.1,0.1,0.1,0.2,0c0.1,0,0.1-0.1,0-0.2
	c0-0.1-0.1-0.1-0.2,0C15.3,3.2,15.2,3.3,15.3,3.4z"/>
<path id="XMLID_1927_" class="st2" d="M15.8,3.7L15.8,3.7l-0.1-0.2C15.6,3.5,15.6,3.6,15.8,3.7C15.8,3.7,15.8,3.8,15.8,3.7
	c-0.2,0.1-0.2,0.1-0.3,0s-0.1-0.2,0-0.2l0,0v0.1c0,0.1,0.1,0.1,0.1,0.1s0,0,0-0.1s0-0.1,0-0.2c0.1,0,0.1,0,0.2,0.1
	C15.9,3.7,15.9,3.7,15.8,3.7L15.8,3.7z"/>
<path id="XMLID_1925_" class="st2" d="M15.9,4.2L15.9,4.2C15.9,4.2,15.8,4.2,15.9,4.2c-0.2-0.2-0.1-0.3-0.1-0.3L16,3.8l0,0l-0.2,0.1
	c-0.1,0-0.1,0.1,0,0.1C15.8,4.2,15.9,4.2,15.9,4.2l0.2-0.1l0,0L15.9,4.2L15.9,4.2L15.9,4.2z"/>
<path id="XMLID_1923_" class="st2" d="M16.3,4.8C16.4,4.8,16.4,4.7,16.3,4.8c0-0.2-0.1-0.2-0.2-0.1l-0.2,0.1l0,0l0.2-0.1
	c0,0,0.1-0.1,0-0.1c0-0.1-0.1-0.1-0.2,0l-0.2,0.1l0,0L16,4.5l0,0h-0.1l0,0c0,0,0.1,0,0.1,0.1s0,0.1,0,0.1s0.1,0,0.1,0.1
	C16.5,4.8,16.4,4.8,16.3,4.8L16.1,5l0,0L16.3,4.8z"/>
<path id="XMLID_1920_" class="st2" d="M8.7,12.1L8.7,12.1l-0.2,0.5l0.2,0.2l0,0l-0.3-0.2L8.7,12.1z"/>
<path id="XMLID_1917_" class="st2" d="M9.2,12.6c0.1,0.1,0.1,0.2,0,0.3S9,13,8.9,12.9s-0.1-0.2,0-0.3C8.9,12.5,9.1,12.5,9.2,12.6z
	 M8.9,12.8c0.1,0.1,0.1,0,0.2,0c0.1-0.1,0-0.1,0-0.2c-0.1-0.1-0.1,0-0.2,0C8.8,12.7,8.8,12.8,8.9,12.8z"/>
<path id="XMLID_1915_" class="st2" d="M9.4,12.8L9.4,12.8L9.4,12.8L9.4,12.8C9.4,12.9,9.5,12.9,9.4,12.8L9.4,12.8L9.4,12.8L9.4,12.8
	C9.5,12.9,9.4,12.9,9.4,12.8L9.2,13l0,0L9.4,12.8z"/>
<path id="XMLID_1912_" class="st2" d="M9.7,13.4c-0.1,0-0.1,0-0.2,0c-0.1-0.1-0.1-0.2,0-0.3s0.2-0.1,0.3,0
	C9.9,13.2,9.9,13.3,9.7,13.4l-0.2-0.2c0,0.1,0,0.1,0,0.2C9.5,13.4,9.6,13.4,9.7,13.4L9.7,13.4z M9.7,13.3c0-0.1,0-0.1,0-0.2
	c0,0-0.1-0.1-0.2,0L9.7,13.3z"/>
<path id="XMLID_1910_" class="st2" d="M10.3,13.7L10.3,13.7c-0.1-0.1-0.1-0.1-0.2-0.1L10,13.8l0,0l0.1-0.2v-0.1c-0.1,0-0.1,0-0.2,0
	l-0.1,0.1l0,0l0.2-0.3l0,0l0,0l0,0h0.1c0.1,0,0.1,0.1,0,0.1h0.1C10.4,13.6,10.4,13.7,10.3,13.7l-0.1,0.2l0,0L10.3,13.7z"/>
<path id="XMLID_1907_" class="st2" d="M10.8,13.7L10.8,13.7L10.8,13.7L10.8,13.7L10.8,13.7z M10.6,13.8L10.6,13.8l-0.2,0.3l0,0
	L10.6,13.8z"/>
<path id="XMLID_1904_" class="st2" d="M10.8,14L10.8,14L10.8,14L10.8,14c0,0.1,0.1,0.1,0.2,0.1c0.1,0.1,0.1,0.2,0,0.3
	s-0.2,0.1-0.3,0l-0.1-0.1l0,0l-0.1,0.2l0,0L10.8,14z M10.6,14.4c0.1,0,0.1,0,0.2,0c0-0.1,0.1-0.1,0-0.2s-0.1-0.1-0.2,0
	C10.6,14.2,10.6,14.3,10.6,14.4z"/>
<path id="XMLID_1902_" class="st2" d="M11.3,14.5L11.3,14.5C11.3,14.4,11.2,14.3,11.3,14.5C11.1,14.4,11.1,14.4,11.3,14.5
	C11.3,14.6,11.3,14.6,11.3,14.5c0,0.2-0.1,0.1-0.2,0.1C11,14.5,11,14.5,11,14.4l0,0v0.1c0.1,0,0.1,0.1,0.1,0c0,0,0-0.1-0.1-0.1
	c-0.1-0.1-0.1-0.1,0-0.2c0,0,0.1,0,0.2,0C11.3,14.4,11.3,14.5,11.3,14.5L11.3,14.5z"/>
<path id="XMLID_1900_" class="st2" d="M11.6,15L11.6,15c0,0-0.1,0-0.2,0c-0.1-0.1-0.1-0.1,0-0.2l0.1-0.2l0,0l-0.1,0.2
	c0,0.1,0,0.1,0,0.1C11.4,15,11.6,15,11.6,15l0.2-0.2l0,0L11.6,15L11.6,15L11.6,15z"/>
<path id="XMLID_1898_" class="st2" d="M12.2,15.3L12.2,15.3c-0.1-0.1-0.1-0.1-0.2-0.1l-0.1,0.2l0,0l0.1-0.2v-0.1c-0.1,0-0.1,0-0.2,0
	l-0.1,0.1l0,0l0.2-0.3l0,0l0,0l0,0H12c0.1,0,0.1,0.1,0,0.1h0.1C12.2,15.2,12.2,15.3,12.2,15.3l-0.1,0.2l0,0L12.2,15.3z"/>
<path id="XMLID_1895_" class="st2" d="M13.4,12.9L13.4,12.9l-0.2,0.3l0.2,0.2l0,0l-0.3-0.2L13.4,12.9z"/>
<path id="XMLID_1892_" class="st2" d="M13.7,13.5c0.1,0.1,0.1,0.2,0,0.3s-0.2,0.1-0.3,0s-0.1-0.2,0-0.3
	C13.5,13.4,13.6,13.4,13.7,13.5z M13.5,13.7c0.1,0.1,0.1,0.1,0.2,0s0.1-0.1,0-0.2s-0.1-0.1-0.2,0C13.5,13.6,13.5,13.6,13.5,13.7z"/>
<path id="XMLID_1890_" class="st2" d="M13.9,13.6L13.9,13.6L13.9,13.6L13.9,13.6C13.9,13.7,14,13.7,13.9,13.6L13.9,13.6L13.9,13.6
	L13.9,13.6C14,13.7,13.9,13.6,13.9,13.6l-0.2,0.2l0,0L13.9,13.6z"/>
<path id="XMLID_1887_" class="st2" d="M14.3,14.3c-0.1,0-0.1,0-0.2,0c-0.1-0.1-0.1-0.2,0-0.3c0.1-0.1,0.2-0.1,0.3,0
	C14.4,14.1,14.5,14.2,14.3,14.3l-0.2-0.2c0,0.1,0,0.1,0,0.2C14.2,14.3,14.2,14.3,14.3,14.3L14.3,14.3z M14.3,14.2c0-0.1,0-0.1,0-0.2
	c0,0-0.1-0.1-0.2,0L14.3,14.2z"/>
<path id="XMLID_1885_" class="st2" d="M14.8,14.6L14.8,14.6c-0.1-0.1-0.1-0.1-0.2-0.1l-0.1,0.1l0,0l0.2-0.2v-0.1c-0.1,0-0.1,0-0.2,0
	l-0.1,0.1l0,0l0.2-0.3l0,0l0,0l0,0h0.1c0.1,0.1,0.1,0.1,0,0.1h0.1C15,14.5,15,14.6,14.8,14.6l-0.1,0.2l0,0L14.8,14.6z"/>
<path id="XMLID_1882_" class="st2" d="M15.3,14.6L15.3,14.6L15.3,14.6L15.3,14.6L15.3,14.6z M15.2,14.7L15.2,14.7L15,15l0,0
	L15.2,14.7z"/>
<path id="XMLID_1879_" class="st2" d="M15.3,14.9L15.3,14.9L15.3,14.9L15.3,14.9C15.3,15,15.4,15,15.3,14.9c0.2,0.2,0.2,0.3,0.1,0.4
	s-0.2,0.1-0.3,0L15,15.2l0,0l-0.1,0.1l0,0L15.3,14.9z M15.3,15.3c0.1,0.1,0.1,0.1,0.2,0c0-0.1,0.1-0.1,0-0.2s-0.1-0.1-0.2,0
	C15.2,15.1,15.2,15.2,15.3,15.3z"/>
<path id="XMLID_1877_" class="st2" d="M15.9,15.4L15.9,15.4C15.9,15.3,15.8,15.2,15.9,15.4C15.6,15.3,15.6,15.3,15.9,15.4
	C15.9,15.5,15.9,15.5,15.9,15.4c-0.1,0.1-0.2,0.1-0.3,0.1c-0.1-0.1-0.1-0.1-0.1-0.2l0,0v0.1c0.1,0,0.1,0.1,0.1,0c0,0,0-0.1-0.1-0.1
	c-0.1-0.1-0.1-0.1,0-0.2c0,0,0.1,0,0.2,0C15.9,15.4,15.9,15.4,15.9,15.4L15.9,15.4z"/>
<path id="XMLID_1875_" class="st2" d="M16.1,15.9L16.1,15.9c0,0-0.1,0-0.2,0c-0.1-0.1-0.1-0.1,0-0.2l0.1-0.2l0,0l-0.1,0.2
	c0,0.1,0,0.1,0,0.1C16,15.9,16.1,15.9,16.1,15.9l0.2-0.2l0,0L16.1,15.9L16.1,15.9L16.1,15.9z"/>
<path id="XMLID_1873_" class="st2" d="M16.7,16.3L16.7,16.3c-0.1-0.1-0.1-0.1-0.2-0.1l-0.1,0.1l0,0l0.2-0.2V16c-0.1,0-0.1,0-0.2,0
	l-0.1,0.1l0,0l0.2-0.3l0,0l0,0l0,0h0.1c0.1,0.1,0.1,0.1,0,0.1h0.1C16.8,16.2,16.8,16.2,16.7,16.3l-0.1,0.2l0,0L16.7,16.3z"/>
<path id="XMLID_1870_" class="st2" d="M23.1,24.8L23.1,24.8l-0.2,0.5l0.2,0.2l0,0l-0.3-0.2L23.1,24.8z"/>
<path id="XMLID_1867_" class="st2" d="M23.6,25.3c0.1,0.1,0.1,0.2,0.1,0.3c-0.1,0.1-0.2,0.1-0.3,0c-0.1-0.1-0.1-0.2-0.1-0.3
	C23.3,25.3,23.5,25.2,23.6,25.3z M23.3,25.6c0.1,0.1,0.2,0,0.2,0c0-0.1,0-0.1,0-0.2c-0.1-0.1-0.2,0-0.2,0
	C23.2,25.4,23.3,25.5,23.3,25.6z"/>
<path id="XMLID_1865_" class="st2" d="M23.8,25.5L23.8,25.5L23.8,25.5L23.8,25.5c0,0.1,0.1,0,0.2,0.1l0,0l0,0l0,0
	C24,25.6,23.9,25.6,23.8,25.5l-0.1,0.2l0,0L23.8,25.5z"/>
<path id="XMLID_1862_" class="st2" d="M24.3,26.1c-0.1,0-0.1,0.1-0.2,0s-0.1-0.2,0-0.3s0.2-0.1,0.3,0C24.3,25.7,24.4,25.9,24.3,26.1
	l-0.2-0.2c0,0.1,0,0.1,0,0.2C24,26.1,24.1,26.1,24.3,26.1L24.3,26.1z M24.3,26c0-0.1,0-0.1,0-0.2c-0.1,0-0.1,0-0.2,0L24.3,26z"/>
<path id="XMLID_1860_" class="st2" d="M24.8,26.3C24.8,26.2,24.8,26.2,24.8,26.3c-0.1-0.1-0.1-0.1-0.2-0.1l-0.1,0.2l0,0l0.1-0.2
	v-0.1c-0.1,0-0.1,0-0.2,0l-0.1,0.2l0,0l0.2-0.3l0,0v0.1l0,0c0,0,0.1,0,0.2,0S24.8,26.2,24.8,26.3c0-0.1,0.1-0.1,0.2-0.1
	C24.9,26.2,24.9,26.3,24.8,26.3l-0.1,0.2l0,0L24.8,26.3z"/>
<path id="XMLID_1857_" class="st2" d="M25.3,26.3L25.3,26.3L25.3,26.3L25.3,26.3L25.3,26.3z M25.2,26.4L25.2,26.4L25,26.7l0,0
	L25.2,26.4z"/>
<path id="XMLID_1854_" class="st2" d="M25.3,26.5L25.3,26.5L25.3,26.5L25.3,26.5c0,0.1,0.1,0,0.2,0.1s0.1,0.2,0,0.3s-0.2,0.1-0.3,0
	c-0.1,0-0.1-0.1-0.1-0.1l0,0L25,27l0,0L25.3,26.5z M25.3,26.9c0.1,0,0.1,0,0.2,0c0-0.1,0-0.1,0-0.2c-0.1,0-0.1,0-0.2,0
	C25.2,26.8,25.2,26.9,25.3,26.9z"/>
<path id="XMLID_1852_" class="st2" d="M25.8,27.1C25.8,27,25.8,27,25.8,27.1L25.6,27C25.6,26.9,25.7,27,25.8,27.1
	C25.8,27.2,25.8,27.2,25.8,27.1c0,0.2-0.1,0.2-0.2,0.1s-0.1-0.1-0.1-0.2l0,0c0,0.1,0,0.1,0.1,0.1s0.1,0.1,0.1,0c0,0,0-0.1-0.1-0.1
	c-0.1-0.1-0.1-0.1-0.1-0.2c0,0,0.1-0.1,0.2,0C26,27,26,27,25.8,27.1L25.8,27.1z"/>
<path id="XMLID_1850_" class="st2" d="M26.2,27.4L26.2,27.4c0,0-0.1,0-0.2,0c-0.1-0.1-0.1-0.1,0-0.2l0.1-0.2l0,0L26,27.2
	c0,0.1,0,0.1,0,0.1C26.1,27.4,26.2,27.4,26.2,27.4l0.2-0.2l0,0L26.2,27.4L26.2,27.4L26.2,27.4z"/>
<path id="XMLID_1848_" class="st2" d="M26.9,27.8C26.9,27.7,26.9,27.7,26.9,27.8c-0.1-0.1-0.1-0.1-0.2-0.1l-0.1,0.2l0,0l0.1-0.2
	v-0.1c-0.1,0-0.1,0-0.2,0l-0.1,0.2l0,0l0.2-0.3l0,0v0.1l0,0c0,0,0.1,0,0.2,0S26.9,27.7,26.9,27.8c0-0.1,0.1-0.1,0.2-0.1
	C27,27.7,27,27.7,26.9,27.8L26.8,28l0,0L26.9,27.8z"/>
<path id="XMLID_1845_" class="st2" d="M33.8,19.2L33.8,19.2l-0.5,0.1v0.3l0,0v-0.3L33.8,19.2z"/>
<path id="XMLID_1842_" class="st2" d="M33.7,19.8c0,0.1-0.1,0.2-0.2,0.2s-0.2-0.1-0.2-0.2s0.1-0.2,0.2-0.2S33.7,19.6,33.7,19.8z
	 M33.3,19.8C33.3,19.9,33.4,19.9,33.3,19.8c0.2,0.1,0.2,0,0.2,0C33.5,19.7,33.4,19.7,33.3,19.8C33.3,19.6,33.3,19.7,33.3,19.8z"/>
<path id="XMLID_1840_" class="st2" d="M33.7,20.1L33.7,20.1L33.7,20.1L33.7,20.1c0,0.1,0,0.1,0,0.2l0,0l0,0l0,0
	C33.7,20.2,33.7,20.2,33.7,20.1l-0.3,0.1l0,0L33.7,20.1z"/>
<path id="XMLID_1837_" class="st2" d="M33.4,20.8c-0.1,0-0.1-0.1-0.1-0.2s0.1-0.2,0.2-0.2s0.2,0.1,0.2,0.2
	C33.7,20.6,33.7,20.8,33.4,20.8v-0.3c-0.1,0-0.1,0.1-0.1,0.1S33.3,20.6,33.4,20.8L33.4,20.8z M33.6,20.8
	C33.7,20.8,33.7,20.7,33.6,20.8c0.1-0.2,0.1-0.2,0-0.2V20.8z"/>
<path id="XMLID_1835_" class="st2" d="M33.6,21.4C33.7,21.4,33.7,21.4,33.6,21.4c0.1-0.2,0.1-0.2,0-0.2h-0.2l0,0h0.2
	c0,0,0.1,0,0.1-0.1s0-0.1-0.1-0.1h-0.2l0,0h0.3l0,0h-0.1l0,0l0.1,0.1c0,0.1,0,0.1-0.1,0.1V21.4C33.7,21.4,33.7,21.4,33.6,21.4
	l-0.2,0.1l0,0L33.6,21.4z"/>
<path id="XMLID_1832_" class="st2" d="M33.8,21.8L33.8,21.8L33.8,21.8L33.8,21.8L33.8,21.8z M33.7,21.8L33.7,21.8l-0.3,0.1l0,0
	L33.7,21.8z"/>
<path id="XMLID_1829_" class="st2" d="M33.7,21.9L33.7,21.9L33.7,21.9L33.7,21.9c0,0.1,0,0.1,0,0.2s-0.1,0.2-0.2,0.2
	s-0.2-0.1-0.2-0.2s0-0.1,0.1-0.1l0,0h-0.2l0,0L33.7,21.9z M33.3,22.1C33.3,22.2,33.4,22.2,33.3,22.1c0.2,0.1,0.2,0.1,0.2,0
	C33.5,22,33.4,22,33.3,22.1C33.4,22,33.3,22,33.3,22.1z"/>
<path id="XMLID_1827_" class="st2" d="M33.6,22.7C33.7,22.7,33.7,22.7,33.6,22.7c0.1-0.2,0.1-0.2,0-0.2
	C33.6,22.5,33.6,22.5,33.6,22.7C33.5,22.7,33.5,22.8,33.6,22.7c-0.2,0.1-0.2,0-0.2-0.1s0-0.2,0.1-0.2l0,0c-0.1,0-0.1,0-0.1,0.1
	S33.4,22.6,33.6,22.7c-0.1-0.1-0.1-0.1,0-0.2c0-0.1,0-0.1,0.1-0.1s0.1,0,0.1,0.1C33.7,22.7,33.7,22.7,33.6,22.7L33.6,22.7z"/>
<path id="XMLID_1825_" class="st2" d="M33.4,23.1L33.4,23.1L33.4,23.1c-0.1-0.2,0-0.2,0-0.2h0.2l0,0h-0.2
	C33.3,22.9,33.3,22.9,33.4,23.1C33.3,23.1,33.4,23.1,33.4,23.1h0.3l0,0H33.4L33.4,23.1L33.4,23.1z"/>
<path id="XMLID_1823_" class="st2" d="M33.6,23.9C33.7,23.9,33.7,23.9,33.6,23.9c0.1-0.2,0.1-0.2,0-0.2h-0.2l0,0h0.2
	c0,0,0.1,0,0.1-0.1s0-0.1-0.1-0.1h-0.2l0,0h0.3l0,0h-0.1l0,0l0.1,0.1c0,0.1,0,0.1-0.1,0.1V23.9C33.7,23.9,33.7,23.9,33.6,23.9
	L33.4,24l0,0L33.6,23.9z"/>
<path id="XMLID_1820_" class="st2" d="M13.5,28.9L13.5,28.9v0.5l0.3,0.1l0,0l-0.3-0.1V28.9z"/>
<path id="XMLID_1817_" class="st2" d="M14.2,29.1c0.1,0,0.2,0.1,0.2,0.2s-0.1,0.2-0.2,0.1c-0.1,0-0.2-0.1-0.2-0.2
	C13.9,29.3,13.9,29.1,14.2,29.1z M14.1,29.5c0.1,0,0.2,0,0.2-0.1s0-0.1-0.1-0.2c-0.1,0-0.2,0-0.2,0.1C13.9,29.5,13.9,29.5,14.1,29.5
	z"/>
<path id="XMLID_1815_" class="st2" d="M14.4,29.3L14.4,29.3L14.4,29.3L14.4,29.3c0.1,0,0.1,0,0.2,0l0,0l0,0l0,0
	c-0.1,0-0.1,0-0.1,0.1v0.2l0,0L14.4,29.3z"/>
<path id="XMLID_1812_" class="st2" d="M15.1,29.6c0,0.1-0.1,0.1-0.2,0.1s-0.2-0.1-0.1-0.2c0-0.1,0.1-0.2,0.2-0.1
	C15,29.4,15.1,29.4,15.1,29.6l-0.3-0.1c0,0.1,0,0.1,0.1,0.1C14.8,29.7,15,29.6,15.1,29.6L15.1,29.6z M15,29.5
	C15,29.4,14.9,29.4,15,29.5c-0.2-0.1-0.2-0.1-0.3,0H15z"/>
<path id="XMLID_1810_" class="st2" d="M15.8,29.6C15.8,29.5,15.8,29.5,15.8,29.6c-0.2-0.1-0.2-0.1-0.2,0v0.2l0,0v-0.2
	c0,0,0-0.1-0.1-0.1s-0.1,0-0.1,0.1v0.2l0,0l0.1-0.3l0,0v0.1l0,0c0,0,0.1-0.1,0.1,0C15.7,29.6,15.7,29.7,15.8,29.6
	C15.7,29.7,15.8,29.6,15.8,29.6C15.8,29.5,15.8,29.5,15.8,29.6v0.2l0,0V29.6z"/>
<path id="XMLID_1807_" class="st2" d="M16.1,29.4L16.1,29.4L16.1,29.4L16.1,29.4L16.1,29.4z M16.1,29.5L16.1,29.5v0.3l0,0V29.5z"/>
<path id="XMLID_1804_" class="st2" d="M16.2,29.6L16.2,29.6L16.2,29.6L16.2,29.6c0.1,0,0.1,0,0.2,0s0.2,0.1,0.1,0.2
	c0,0.1-0.1,0.2-0.2,0.1c-0.1,0-0.1-0.1-0.1-0.1l0,0V30l0,0V29.6z M16.3,29.9c0.1,0,0.1,0,0.2-0.1c0-0.1,0-0.1-0.1-0.2
	c-0.1,0-0.1,0-0.2,0.1C16.2,29.8,16.2,29.9,16.3,29.9z"/>
<path id="XMLID_1802_" class="st2" d="M17,29.8C17,29.7,17,29.7,17,29.8l-0.2-0.1C16.7,29.8,16.8,29.8,17,29.8
	C17,29.9,17,29.9,17,29.8c0,0.2-0.1,0.2-0.2,0.2s-0.2-0.1-0.1-0.1l0,0c0,0.1,0,0.1,0.1,0.1s0.1,0,0.1,0s0-0.1-0.1-0.1
	s-0.1-0.1-0.1-0.1C16.7,29.7,16.8,29.7,17,29.8C17,29.7,17,29.7,17,29.8L17,29.8z"/>
<path id="XMLID_1800_" class="st2" d="M17.3,30.1L17.3,30.1c0,0-0.1,0.1-0.2,0.1S17,30.1,17,30v-0.2l0,0V30c0,0.1,0,0.1,0.1,0.1
	C17.3,30.1,17.3,30.1,17.3,30.1v-0.3l0,0V30.1L17.3,30.1L17.3,30.1z"/>
<path id="XMLID_1798_" class="st2" d="M18.1,30.1C18.1,30,18.1,30,18.1,30.1c-0.2-0.1-0.2-0.1-0.2,0v0.2l0,0v-0.2c0,0,0-0.1-0.1-0.1
	s-0.1,0-0.1,0.1v0.2l0,0l0.1-0.3l0,0v0.1l0,0c0,0,0.1-0.1,0.1,0C18,30.1,18,30.2,18.1,30.1C18,30.2,18.1,30.1,18.1,30.1
	C18.1,29.8,18.1,29.9,18.1,30.1v0.2l0,0V30.1z"/>
<path id="XMLID_1795_" class="st2" d="M6.9,25.5L6.9,25.5L6.8,26l0.3,0.1l0,0L6.8,26L6.9,25.5z"/>
<path id="XMLID_1792_" class="st2" d="M7.5,25.9c0.1,0,0.2,0.1,0.1,0.2c0,0.1-0.1,0.2-0.2,0.1c-0.1,0-0.2-0.1-0.1-0.2
	C7.2,25.9,7.4,25.9,7.5,25.9z M7.4,26.2c0.1,0,0.2,0,0.2-0.1s0-0.1-0.1-0.2c-0.1,0-0.2,0-0.2,0.1C7.2,26.1,7.4,26.2,7.4,26.2z"/>
<path id="XMLID_1790_" class="st2" d="M7.8,26L7.8,26L7.8,26L7.8,26c0.1,0.1,0.1,0,0.2,0l0,0l0,0l0,0C7.9,26,7.9,26,7.8,26l0.1,0.3
	l0,0L7.8,26z"/>
<path id="XMLID_1787_" class="st2" d="M8.4,26.3c0,0.1-0.1,0.1-0.2,0.1S8,26.3,8.1,26.2c0-0.1,0.1-0.2,0.2-0.1
	C8.3,26.1,8.4,26.1,8.4,26.3l-0.3-0.1c0,0.1,0,0.1,0.1,0.2C8.3,26.4,8.3,26.4,8.4,26.3L8.4,26.3z M8.4,26.2
	C8.4,26.1,8.4,26.1,8.4,26.2c-0.2-0.1-0.2-0.1-0.3,0H8.4z"/>
<path id="XMLID_1785_" class="st2" d="M9.1,26.4C9.1,26.3,9.1,26.3,9.1,26.4c-0.2-0.1-0.2-0.1-0.2,0v0.2l0,0L9.1,26.4
	c-0.1,0-0.1-0.1-0.2-0.1s-0.1,0-0.1,0.1v0.2l0,0l0.1-0.3l0,0v0.1l0,0C8.9,26.4,9,26.3,9.1,26.4C9.1,26.4,9.1,26.5,9.1,26.4
	C9.1,26.5,9.2,26.4,9.1,26.4C9.1,26.2,9.2,26.3,9.1,26.4v0.2l0,0V26.4z"/>
<path id="XMLID_1782_" class="st2" d="M9.4,26.2L9.4,26.2L9.4,26.2L9.4,26.2L9.4,26.2z M9.4,26.3L9.4,26.3v0.3l0,0V26.3z"/>
<path id="XMLID_1779_" class="st2" d="M9.5,26.4L9.5,26.4L9.5,26.4L9.5,26.4c0.1,0.1,0.1,0,0.2,0s0.2,0.1,0.1,0.2
	c0,0.1-0.1,0.2-0.2,0.1c-0.1,0-0.1-0.1-0.1-0.1l0,0v0.2l0,0V26.4z M9.6,26.8c0.1,0,0.1,0,0.2-0.1c0-0.1,0-0.1-0.1-0.2
	c-0.1,0-0.1,0-0.2,0.1C9.5,26.6,9.5,26.8,9.6,26.8z"/>
<path id="XMLID_1777_" class="st2" d="M10.3,26.6C10.3,26.6,10.2,26.5,10.3,26.6c-0.1-0.1-0.2-0.1-0.2-0.1
	C10,26.6,10.1,26.6,10.3,26.6c0,0.1,0,0.1,0,0.2s-0.1,0.1-0.2,0.1s-0.2-0.1-0.1-0.2l0,0c0,0.1,0,0.1,0.1,0.1s0.1,0,0.1,0
	s0-0.1-0.1-0.1S10,26.6,10,26.6C10,26.5,10.1,26.5,10.3,26.6C10.3,26.5,10.3,26.6,10.3,26.6L10.3,26.6z"/>
<path id="XMLID_1775_" class="st2" d="M10.6,27L10.6,27c0,0-0.1,0.1-0.2,0c-0.1,0-0.1-0.1-0.1-0.2l0.1-0.2l0,0l-0.1,0.2
	c0,0.1,0,0.1,0.1,0.1C10.6,27,10.6,27,10.6,27l0.1-0.3l0,0L10.6,27L10.6,27L10.6,27z"/>
<path id="XMLID_1773_" class="st2" d="M11.4,27C11.4,26.9,11.4,26.9,11.4,27c-0.2-0.1-0.2-0.1-0.2,0v0.2l0,0L11.4,27
	c-0.1,0-0.1-0.1-0.2-0.1s-0.1,0-0.1,0.1v0.2l0,0l0.1-0.3l0,0V27l0,0C11.2,27,11.3,26.9,11.4,27C11.4,27,11.4,27.1,11.4,27
	C11.4,27.1,11.5,27,11.4,27C11.4,26.9,11.4,26.9,11.4,27v0.2l0,0V27z"/>
<path id="XMLID_1770_" class="st2" d="M-2.8,28.2L-2.8,28.2v0.5h0.3l0,0h-0.3V28.2z"/>
<path id="XMLID_1767_" class="st2" d="M-2.3,28.5c0.1,0,0.2,0.1,0.2,0.2s-0.1,0.2-0.2,0.2s-0.2-0.1-0.2-0.2
	C-2.5,28.5-2.4,28.5-2.3,28.5z M-2.3,28.8c0.1,0,0.1,0,0.2-0.1c0-0.1,0-0.1-0.1-0.2c-0.1,0-0.1,0-0.2,0.1S-2.4,28.8-2.3,28.8z"/>
<path id="XMLID_1765_" class="st2" d="M-2.1,28.5L-2.1,28.5L-2.1,28.5L-2.1,28.5c0.1,0,0.1,0,0.2,0l0,0l0,0l0,0
	c-0.1,0-0.1,0-0.1,0.1v0.2l0,0L-2.1,28.5z"/>
<path id="XMLID_1762_" class="st2" d="M-1.4,28.8c0,0.1-0.1,0.1-0.2,0.1s-0.2-0.1-0.2-0.2s0.1-0.2,0.2-0.2
	C-1.5,28.6-1.4,28.6-1.4,28.8l-0.3-0.1c0,0.1,0,0.1,0.1,0.1C-1.5,28.9-1.5,28.9-1.4,28.8L-1.4,28.8z M-1.4,28.7
	C-1.4,28.6-1.5,28.6-1.4,28.7c-0.2-0.1-0.2-0.1-0.3,0H-1.4z"/>
<path id="XMLID_1760_" class="st2" d="M-0.7,28.8C-0.7,28.7-0.7,28.7-0.7,28.8c-0.2-0.1-0.2-0.1-0.2,0V29l0,0v-0.2
	c0,0,0-0.1-0.1-0.1s-0.1,0-0.1,0.1V29l0,0v-0.3l0,0v0.1l0,0l0.1-0.1c0.1,0,0.1,0.1,0.1,0.1l0.1-0.1C-0.7,28.6-0.6,28.7-0.7,28.8V29
	l0,0V28.8z"/>
<path id="XMLID_1757_" class="st2" d="M-0.3,28.6L-0.3,28.6L-0.3,28.6L-0.3,28.6L-0.3,28.6z M-0.3,28.7L-0.3,28.7V29l0,0V28.7z"/>
<path id="XMLID_1754_" class="st2" d="M-0.2,28.7L-0.2,28.7L-0.2,28.7L-0.2,28.7c0.1,0,0.1,0,0.2,0s0.2,0.1,0.2,0.2S0.1,29.1,0,29.1
	s-0.1,0-0.1-0.1l0,0v0.2l0,0L-0.2,28.7z M0,29c0.1,0,0.1,0,0.2-0.1c0-0.1,0-0.1-0.1-0.2c-0.1,0-0.1,0-0.2,0.1C-0.1,28.9-0.1,29,0,29
	z"/>
<path id="XMLID_1752_" class="st2" d="M0.6,28.9C0.6,28.8,0.6,28.8,0.6,28.9c-0.2-0.1-0.2-0.1-0.2-0.1C0.3,28.9,0.3,28.9,0.6,28.9
	C0.6,29,0.6,29,0.6,28.9c0,0.2-0.1,0.2-0.2,0.2S0.2,29,0.2,29l0,0c0,0.1,0,0.1,0.1,0.1s0.1,0,0.1-0.1c0,0,0-0.1-0.1-0.1
	s-0.1-0.1-0.1-0.1c0-0.1,0.1-0.1,0.2-0.1C0.6,28.8,0.7,28.8,0.6,28.9L0.6,28.9z"/>
<path id="XMLID_1750_" class="st2" d="M1,29.1L1,29.1L1,29.1c-0.2,0.1-0.2,0-0.2-0.1v-0.2l0,0V29C0.8,29.1,0.8,29.1,1,29.1L1,29.1
	v-0.3l0,0V29.1L1,29.1L1,29.1z"/>
<path id="XMLID_1748_" class="st2" d="M1.7,29C1.7,28.9,1.7,28.9,1.7,29c-0.2-0.1-0.2-0.1-0.2,0v0.2l0,0V29c0,0,0-0.1-0.1-0.1
	s-0.1,0-0.1,0.1v0.2l0,0v-0.3l0,0V29l0,0l0.1-0.1c0.1,0,0.1,0.1,0.1,0.1l0.1-0.1C1.8,28.9,1.8,28.9,1.7,29v0.2l0,0V29z"/>
<path id="XMLID_1745_" class="st2" d="M2,32L2,32l0.1,0.5h0.3l0,0H2.1L2,32z"/>
<path id="XMLID_1742_" class="st2" d="M2.6,32.1c0.1,0,0.2,0.1,0.2,0.2s-0.1,0.2-0.2,0.2s-0.2-0.1-0.2-0.2S2.5,32.1,2.6,32.1z
	 M2.6,32.5C2.7,32.5,2.7,32.4,2.6,32.5c0.1-0.2,0-0.2,0-0.2C2.5,32.3,2.5,32.4,2.6,32.5C2.5,32.4,2.5,32.5,2.6,32.5z"/>
<path id="XMLID_1740_" class="st2" d="M2.9,32.2L2.9,32.2L2.9,32.2L2.9,32.2c0.1,0,0.1,0,0.2,0l0,0l0,0l0,0c-0.1,0-0.1,0-0.1,0.1
	v0.2l0,0L2.9,32.2z"/>
<path id="XMLID_1737_" class="st2" d="M3.6,32.4c0,0.1-0.1,0.1-0.2,0.1s-0.2-0.1-0.2-0.2s0.1-0.2,0.2-0.2S3.6,32.2,3.6,32.4H3.3
	c0,0.1,0.1,0.1,0.1,0.1C3.5,32.5,3.5,32.4,3.6,32.4L3.6,32.4z M3.5,32.3C3.5,32.2,3.4,32.2,3.5,32.3c-0.2-0.1-0.2-0.1-0.2,0H3.5z"/>
<path id="XMLID_1735_" class="st2" d="M4.3,32.3C4.3,32.2,4.3,32.2,4.3,32.3c-0.2-0.1-0.2-0.1-0.2,0v0.2l0,0v-0.2c0,0,0-0.1-0.1-0.1
	c-0.1,0-0.1,0-0.1,0.1v0.2l0,0v-0.3l0,0v0.1l0,0L4,32.2c0.1,0,0.1,0,0.1,0.1l0.1-0.1C4.3,32.1,4.3,32.2,4.3,32.3v0.2l0,0V32.3z"/>
<path id="XMLID_1732_" class="st2" d="M4.6,32L4.6,32L4.6,32L4.6,32L4.6,32z M4.6,32.1L4.6,32.1l0.1,0.3l0,0L4.6,32.1z"/>
<path id="XMLID_1729_" class="st2" d="M4.8,32.1L4.8,32.1L4.8,32.1L4.8,32.1c0.1,0,0.1,0,0.2,0s0.2,0.1,0.2,0.2S5.1,32.5,5,32.5
	s-0.1,0-0.1-0.1l0,0v0.2l0,0L4.8,32.1z M5,32.5C5.1,32.5,5.1,32.4,5,32.5c0.1-0.2,0.1-0.2,0-0.2S4.9,32.4,5,32.5
	C4.8,32.4,4.9,32.5,5,32.5z"/>
<path id="XMLID_1727_" class="st2" d="M5.5,32.2C5.5,32.1,5.5,32.1,5.5,32.2c-0.2-0.1-0.2-0.1-0.2,0S5.3,32.3,5.5,32.2
	C5.5,32.3,5.6,32.3,5.5,32.2c0.1,0.2,0,0.2-0.1,0.2s-0.2,0-0.2-0.1l0,0c0,0.1,0,0.1,0.1,0.1S5.4,32.4,5.5,32.2
	c-0.1,0.1-0.1,0.1-0.2,0c-0.1,0-0.1,0-0.1-0.1s0-0.1,0.1-0.1C5.5,32.1,5.5,32.2,5.5,32.2L5.5,32.2z"/>
<path id="XMLID_1725_" class="st2" d="M6,32.4L6,32.4L6,32.4c-0.2,0.1-0.2,0-0.2,0v-0.2l0,0v0.2C5.8,32.5,5.8,32.5,6,32.4
	C5.9,32.4,6,32.4,6,32.4v-0.3l0,0V32.4L6,32.4L6,32.4z"/>
<path id="XMLID_1723_" class="st2" d="M6.7,32.3C6.7,32.2,6.7,32.2,6.7,32.3c-0.2-0.1-0.2-0.1-0.2,0v0.2l0,0v-0.2c0,0,0-0.1-0.1-0.1
	s-0.1,0-0.1,0.1v0.2l0,0v-0.3l0,0v0.1l0,0l0.1-0.1c0.1,0,0.1,0,0.1,0.1l0.1-0.1C6.7,32.1,6.8,32.2,6.7,32.3v0.2l0,0V32.3z"/>
<path id="XMLID_1720_" class="st2" d="M6.1,36.1L6.1,36.1l0.1,0.5h0.3l0,0H6.2L6.1,36.1z"/>
<path id="XMLID_1717_" class="st2" d="M6.8,36.1c0.1,0,0.2,0.1,0.2,0.1c0,0.1,0,0.2-0.2,0.2c-0.1,0-0.2-0.1-0.2-0.1
	C6.6,36.2,6.6,36.1,6.8,36.1z M6.8,36.4c0.1,0,0.1-0.1,0.1-0.2s-0.1-0.1-0.2-0.1s-0.1,0.1-0.1,0.2C6.7,36.4,6.7,36.4,6.8,36.4z"/>
<path id="XMLID_1715_" class="st2" d="M7,36.1L7,36.1L7,36.1L7,36.1c0.1,0,0.1,0,0.2,0l0,0l0,0l0,0c-0.1,0-0.1,0-0.1,0.1v0.2l0,0
	L7,36.1z"/>
<path id="XMLID_1712_" class="st2" d="M7.7,36.2c0,0.1-0.1,0.1-0.2,0.1s-0.2-0.1-0.2-0.2s0-0.2,0.2-0.2C7.6,35.9,7.7,35.9,7.7,36.2
	H7.4C7.4,36.3,7.5,36.3,7.7,36.2C7.6,36.3,7.7,36.3,7.7,36.2L7.7,36.2z M7.7,36.1C7.7,36,7.6,36,7.5,36s-0.1,0-0.1,0.1H7.7z"/>
<path id="XMLID_1710_" class="st2" d="M8.4,35.9C8.4,35.8,8.4,35.8,8.4,35.9c-0.2-0.1-0.2,0-0.2,0v0.2l0,0v-0.2c0,0,0-0.1-0.1-0.1
	S8,35.9,8,35.9v0.2l0,0v-0.3l0,0v0.1l0,0c0,0,0-0.1,0.1-0.1s0.1,0,0.1,0.1l0.1-0.1C8.4,35.8,8.4,35.8,8.4,35.9l0.1,0.2l0,0L8.4,35.9
	z"/>
<path id="XMLID_1707_" class="st2" d="M8.7,35.6L8.7,35.6L8.7,35.6L8.7,35.6L8.7,35.6z M8.7,35.7L8.7,35.7L8.8,36l0,0L8.7,35.7z"/>
<path id="XMLID_1704_" class="st2" d="M8.8,35.7L8.8,35.7L8.8,35.7L8.8,35.7c0.1,0,0.1,0,0.2,0s0.2,0.1,0.2,0.2s0,0.2-0.2,0.2
	c-0.1,0-0.1,0-0.1-0.1l0,0v0.2l0,0L8.8,35.7z M9.1,36.1c0.1,0,0.1-0.1,0.1-0.2S9.1,35.8,9,35.8S8.9,35.9,8.9,36S8.9,36.1,9.1,36.1z"
	/>
<path id="XMLID_1702_" class="st2" d="M9.6,35.7C9.6,35.6,9.5,35.6,9.6,35.7c-0.1-0.1-0.2-0.1-0.2,0S9.4,35.8,9.6,35.7
	C9.6,35.8,9.7,35.8,9.6,35.7c0.1,0.2,0.1,0.2,0,0.2s-0.2,0-0.2-0.1l0,0c0,0.1,0.1,0.1,0.1,0.1C9.6,35.9,9.6,35.9,9.6,35.7
	C9.6,35.8,9.6,35.8,9.6,35.7c-0.2,0.1-0.2,0.1-0.3,0c0-0.1,0-0.1,0.1-0.1C9.6,35.6,9.6,35.7,9.6,35.7L9.6,35.7z"/>
<path id="XMLID_1700_" class="st2" d="M10.1,35.8L10.1,35.8L10.1,35.8c-0.2,0.1-0.3,0.1-0.3,0v-0.2l0,0v0.2c0,0.1,0.1,0.1,0.1,0.1
	C10.1,35.9,10.1,35.8,10.1,35.8v-0.3l0,0V35.8L10.1,35.8L10.1,35.8z"/>
<path id="XMLID_1698_" class="st2" d="M10.8,35.6C10.8,35.5,10.8,35.5,10.8,35.6c-0.2-0.1-0.2,0-0.2,0v0.2l0,0v-0.2
	c0,0,0-0.1-0.1-0.1s-0.1,0.1-0.1,0.1v0.2l0,0v-0.3l0,0v0.1l0,0c0,0,0-0.1,0.1-0.1s0.1,0,0.1,0.1l0.1-0.1
	C10.8,35.5,10.9,35.5,10.8,35.6l0.1,0.2l0,0L10.8,35.6z"/>
<path id="XMLID_1695_" class="st2" d="M7.1,49L7.1,49l0.3,0.3l0.3-0.1l0,0l-0.3,0.2L7.1,49z"/>
<path id="XMLID_1692_" class="st2" d="M7.8,48.8c0.1-0.1,0.2,0,0.3,0.1c0,0.1,0,0.2-0.1,0.3c-0.1,0.1-0.2,0-0.3-0.1
	C7.6,49,7.6,48.9,7.8,48.8z M7.9,49.1C8,49.1,8,49,8,48.9s-0.1-0.1-0.2,0c-0.1,0-0.1,0.1-0.1,0.2C7.8,49.1,7.8,49.1,7.9,49.1z"/>
<path id="XMLID_1690_" class="st2" d="M8,48.6L8,48.6L8,48.6L8,48.6C8.1,48.6,8.1,48.5,8,48.6L8,48.6L8,48.6L8,48.6L8,48.6l0.2,0.2
	l0,0L8,48.6z"/>
<path id="XMLID_1687_" class="st2" d="M8.7,48.5c0,0.1,0,0.1-0.1,0.2s-0.2,0-0.2-0.1s0-0.2,0.1-0.2C8.5,48.3,8.6,48.3,8.7,48.5
	l-0.3,0.1C8.4,48.7,8.5,48.7,8.7,48.5C8.7,48.6,8.7,48.5,8.7,48.5L8.7,48.5z M8.6,48.4c-0.1-0.1-0.1-0.1-0.2,0
	c-0.1,0-0.1,0.1-0.1,0.2L8.6,48.4z"/>
<path id="XMLID_1685_" class="st2" d="M9.3,48.1C9.3,48,9.2,48,9.3,48.1c-0.2,0-0.2,0.1-0.1,0.2l0.1,0.2l0,0l-0.1-0.2
	c0,0-0.1-0.1-0.1,0c-0.1,0-0.1,0.1,0,0.2l0.1,0.2l0,0L9,48.4l0,0v0.1l0,0c0,0,0-0.1,0.1-0.1s0.1,0,0.1,0s0-0.1,0.1-0.1
	C9.2,48,9.3,48,9.3,48.1l0.2,0.2l0,0L9.3,48.1z"/>
<path id="XMLID_1682_" class="st2" d="M9.4,47.6L9.4,47.6L9.4,47.6L9.4,47.6L9.4,47.6z M9.5,47.7L9.5,47.7L9.7,48l0,0L9.5,47.7z"/>
<path id="XMLID_1679_" class="st2" d="M9.6,47.7L9.6,47.7L9.6,47.7L9.6,47.7c0.1,0,0.1-0.1,0.2-0.1c0.1-0.1,0.2,0,0.2,0.1
	s0,0.2-0.1,0.2s-0.1,0-0.2,0l0,0l0.1,0.2l0,0L9.6,47.7z M10,47.9c0.1,0,0.1-0.1,0-0.2c0-0.1-0.1-0.1-0.2-0.1s-0.1,0.1-0.1,0.2
	C9.7,47.9,9.9,48,10,47.9z"/>
<path id="XMLID_1677_" class="st2" d="M10.3,47.4L10.3,47.4l-0.2,0.1C10.1,47.5,10.2,47.5,10.3,47.4c0,0,0.1,0,0.1,0.1
	s0,0.1-0.1,0.2s-0.2,0.1-0.2,0l0,0h0.1c0.1,0,0.1-0.1,0.1-0.1s0,0-0.1,0s-0.1,0-0.2,0c0-0.1,0-0.1,0.1-0.2S10.3,47.3,10.3,47.4
	L10.3,47.4z"/>
<path id="XMLID_1675_" class="st2" d="M10.8,47.3L10.8,47.3c0,0,0,0.1-0.1,0.1c-0.1,0.1-0.2,0-0.2,0l-0.1-0.2l0,0l0.1,0.2
	c0,0.1,0.1,0.1,0.1,0C10.8,47.4,10.8,47.3,10.8,47.3l-0.1-0.2l0,0L10.8,47.3L10.8,47.3L10.8,47.3z"/>
<path id="XMLID_1673_" class="st2" d="M11.3,46.8C11.3,46.7,11.2,46.7,11.3,46.8c-0.2,0-0.2,0.1-0.1,0.2l0.1,0.2l0,0L11.2,47
	c0,0-0.1-0.1-0.1,0c-0.1,0-0.1,0.1,0,0.2l0.1,0.2l0,0L11,47.1l0,0v0.1l0,0c0,0,0-0.1,0.1-0.1s0.1,0,0.1,0s0-0.1,0.1-0.1
	C11.2,46.7,11.3,46.7,11.3,46.8l0.2,0.2l0,0L11.3,46.8z"/>
<path id="XMLID_1670_" class="st2" d="M25.8,42.2L25.8,42.2l0.5,0.2l0.2-0.2l0,0l-0.2,0.3L25.8,42.2z"/>
<path id="XMLID_1667_" class="st2" d="M26.3,41.7c0.1-0.1,0.2-0.1,0.3,0s0.1,0.2,0,0.3c-0.1,0.1-0.2,0.1-0.3,0
	C26.3,42,26.3,41.8,26.3,41.7z M26.6,42c0.1-0.1,0-0.1,0-0.2c-0.1,0-0.1,0-0.2,0c-0.1,0.1,0,0.1,0,0.2C26.5,42.1,26.5,42.1,26.6,42z
	"/>
<path id="XMLID_1665_" class="st2" d="M26.5,41.5L26.5,41.5L26.5,41.5L26.5,41.5c0.1,0,0.1-0.1,0.1-0.1l0,0l0,0l0,0
	C26.6,41.4,26.6,41.5,26.5,41.5l0.2,0.2l0,0L26.5,41.5z"/>
<path id="XMLID_1662_" class="st2" d="M27.2,41.2c0,0.1,0.1,0.1,0,0.2s-0.2,0.1-0.3,0c-0.1-0.1-0.1-0.2,0-0.3
	C26.9,41,27,40.9,27.2,41.2L27,41.4c0.1,0,0.1,0,0.2,0C27.2,41.3,27.2,41.3,27.2,41.2L27.2,41.2z M27.1,41.2c-0.1,0-0.1,0-0.2,0
	c0,0-0.1,0.1,0,0.2L27.1,41.2z"/>
<path id="XMLID_1660_" class="st2" d="M27.4,40.5L27.4,40.5c-0.1,0.1-0.1,0.1-0.1,0.2l0.2,0.1l0,0l-0.2-0.1h-0.1c0,0.1,0,0.1,0,0.2
	l0.2,0.1l0,0l-0.3-0.2l0,0l0,0l0,0c0,0,0-0.1,0-0.2s0.1-0.1,0.1-0.1v-0.1C27.3,40.5,27.4,40.4,27.4,40.5l0.2,0.1l0,0L27.4,40.5z"/>
<path id="XMLID_1657_" class="st2" d="M27.4,40L27.4,40L27.4,40L27.4,40L27.4,40z M27.5,40.1L27.5,40.1l0.3,0.2l0,0L27.5,40.1z"/>
<path id="XMLID_1654_" class="st2" d="M27.7,40L27.7,40L27.7,40L27.7,40c0.1,0,0-0.1,0.1-0.2s0.2-0.1,0.3,0s0.1,0.2,0,0.3
	c0,0.1-0.1,0.1-0.1,0.1l0,0l0.2,0.1l0,0L27.7,40z M28,40.1c0-0.1,0-0.1,0-0.2c-0.1,0-0.1-0.1-0.2,0c0,0.1,0,0.1,0,0.2
	C27.9,40.1,28,40.1,28,40.1z"/>
<path id="XMLID_1652_" class="st2" d="M28.2,39.5C28.1,39.5,28.1,39.5,28.2,39.5C28.1,39.5,28,39.6,28.2,39.5
	C28.1,39.7,28.1,39.7,28.2,39.5C28.3,39.5,28.3,39.5,28.2,39.5c0.2,0,0.2,0.1,0.1,0.2s-0.1,0.1-0.2,0.1l0,0c0,0,0.1,0,0.1-0.1
	S28.3,39.6,28.2,39.5c0,0.1-0.1,0.1-0.1,0.2c-0.1,0.1-0.1,0.1-0.2,0.1c0,0-0.1-0.1,0-0.2C28.1,39.5,28.2,39.5,28.2,39.5L28.2,39.5z"
	/>
<path id="XMLID_1650_" class="st2" d="M28.7,39.2L28.7,39.2c0,0,0,0.1,0,0.2c-0.1,0.1-0.1,0.1-0.2,0l-0.2-0.1l0,0l0.2,0.1
	c0.1,0,0.1,0,0.1,0C28.7,39.3,28.7,39.2,28.7,39.2L28.5,39l0,0L28.7,39.2L28.7,39.2L28.7,39.2z"/>
<path id="XMLID_1648_" class="st2" d="M28.9,38.6L28.9,38.6c-0.1,0.1-0.1,0.1-0.1,0.2l0.2,0.1l0,0l-0.2-0.1h-0.1c0,0.1,0,0.1,0,0.2
	l0.2,0.1l0,0l-0.3-0.2l0,0l0,0l0,0c0,0,0-0.1,0-0.2s0.1-0.1,0.1-0.1s0-0.1,0-0.2C28.8,38.4,28.9,38.4,28.9,38.6l0.2,0.1l0,0
	L28.9,38.6z"/>
<path id="XMLID_1645_" class="st2" d="M17.6,59.1L17.6,59.1l0.5,0.2l0.2-0.2l0,0l-0.2,0.3L17.6,59.1z"/>
<path id="XMLID_1642_" class="st2" d="M18,58.6c0.1-0.1,0.2-0.1,0.3-0.1c0.1,0.1,0.1,0.2,0,0.3s-0.2,0.1-0.3,0.1S17.9,58.7,18,58.6z
	 M18.4,58.9c0.1-0.1,0-0.2,0-0.2c-0.1,0-0.1,0-0.2,0c-0.1,0.1,0,0.2,0,0.2C18.1,59,18.2,58.9,18.4,58.9z"/>
<path id="XMLID_1640_" class="st2" d="M18.1,58.4L18.1,58.4L18.1,58.4L18.1,58.4c0.1,0,0-0.1,0.1-0.2l0,0l0,0l0,0
	C18.2,58.2,18.2,58.3,18.1,58.4l0.2,0.1l0,0L18.1,58.4z"/>
<path id="XMLID_1637_" class="st2" d="M18.8,57.9c0,0,0.1,0.1,0,0.2s-0.2,0.1-0.3,0.1c-0.1-0.1-0.1-0.1,0-0.3
	C18.5,57.9,18.6,57.8,18.8,57.9l-0.2,0.2c0.1,0,0.1,0,0.2,0C18.8,58.1,18.8,58.1,18.8,57.9L18.8,57.9z M18.7,57.9
	c-0.1,0-0.1,0-0.2,0.1c0,0.1,0,0.1,0,0.2L18.7,57.9z"/>
<path id="XMLID_1635_" class="st2" d="M19,57.4C18.9,57.4,18.9,57.4,19,57.4c-0.1,0.1-0.1,0.1-0.1,0.2l0.2,0.1l0,0l-0.2-0.1h-0.1
	c0,0.1,0,0.1,0,0.2l0.2,0.1l0,0l-0.3-0.2l0,0h0.1l0,0c0,0,0-0.1,0-0.2S18.9,57.4,19,57.4c-0.1,0-0.1-0.1-0.1-0.2
	C18.9,57.3,19,57.3,19,57.4l0.2,0.1l0,0L19,57.4z"/>
<path id="XMLID_1632_" class="st2" d="M19,56.9L19,56.9L19,56.9L19,56.9L19,56.9z M19.2,57L19.2,57l0.3,0.1l0,0L19.2,57z"/>
<path id="XMLID_1629_" class="st2" d="M19.2,56.9L19.2,56.9L19.2,56.9L19.2,56.9c0.1,0,0-0.1,0.1-0.2s0.2-0.1,0.3-0.1
	c0.1,0.1,0.1,0.1,0,0.3c0,0.1-0.1,0.1-0.1,0.1l0,0l0.2,0.1l0,0L19.2,56.9z M19.6,56.9c0-0.1,0-0.1,0-0.2c-0.1,0-0.1,0-0.2,0
	c0,0.1,0,0.1,0,0.2C19.5,56.9,19.5,56.9,19.6,56.9z"/>
<path id="XMLID_1627_" class="st2" d="M19.7,56.2c-0.1,0-0.1,0-0.1,0.1v0.1C19.6,56.5,19.6,56.5,19.7,56.2
	C19.8,56.2,19.8,56.2,19.7,56.2c0.2,0,0.2,0.1,0.1,0.2s-0.1,0.1-0.2,0.1l0,0c0.1,0,0.1,0,0.1-0.1S19.8,56.3,19.7,56.2
	c0,0.1-0.1,0.1-0.1,0.2c-0.1,0.1-0.1,0.1-0.2,0.1c0,0-0.1-0.1,0-0.2C19.6,56.2,19.7,56.2,19.7,56.2L19.7,56.2z"/>
<path id="XMLID_1625_" class="st2" d="M20.2,56L20.2,56c0,0,0,0.1,0,0.2c-0.1,0.1-0.1,0.1-0.2,0l-0.2-0.1l0,0l0.2,0.1
	c0.1,0,0.1,0,0.1,0C20.2,56.1,20.2,56,20.2,56L20,55.8l0,0L20.2,56L20.2,56L20.2,56z"/>
<path id="XMLID_1623_" class="st2" d="M20.4,55.3C20.3,55.3,20.3,55.3,20.4,55.3c-0.1,0.1-0.1,0.1-0.1,0.2l0.2,0.1l0,0l-0.2-0.1
	h-0.1c0,0.1,0,0.1,0,0.2l0.2,0.1l0,0l-0.3-0.2l0,0h0.1l0,0c0,0,0-0.1,0-0.2S20.3,55.3,20.4,55.3c-0.1,0-0.1-0.1-0.1-0.2
	C20.3,55.2,20.4,55.2,20.4,55.3l0.2,0.1l0,0L20.4,55.3z"/>
<path id="XMLID_1620_" class="st2" d="M8,58.3L8,58.3l0.3,0.3l0.2-0.2l0,0l-0.2,0.2L8,58.3z"/>
<path id="XMLID_1617_" class="st2" d="M8.5,57.9c0.1-0.1,0.2-0.1,0.3,0c0.1,0.1,0.1,0.2,0,0.3s-0.2,0.1-0.3,0
	C8.5,58.2,8.5,58.1,8.5,57.9z M8.8,58.2c0.1-0.1,0.1-0.1,0-0.2s-0.1-0.1-0.2,0s-0.1,0.1,0,0.2C8.6,58.3,8.7,58.3,8.8,58.2z"/>
<path id="XMLID_1615_" class="st2" d="M8.7,57.7L8.7,57.7L8.7,57.7L8.7,57.7c0.1,0,0.1-0.1,0.1-0.1l0,0l0,0l0,0L8.7,57.7l0.2,0.2
	l0,0L8.7,57.7z"/>
<path id="XMLID_1612_" class="st2" d="M9.4,57.4c0,0.1,0,0.1,0,0.2c-0.1,0.1-0.2,0.1-0.3,0s-0.1-0.2,0-0.3
	C9.2,57.3,9.3,57.3,9.4,57.4l-0.3,0.2c0.1,0,0.1,0.1,0.2,0C9.4,57.6,9.4,57.5,9.4,57.4L9.4,57.4z M9.3,57.4c-0.1,0-0.1,0-0.2,0
	c0,0-0.1,0.1,0,0.2L9.3,57.4z"/>
<path id="XMLID_1610_" class="st2" d="M9.7,56.8L9.7,56.8c-0.2,0.1-0.1,0.1-0.1,0.2l0.1,0.1l0,0l-0.2-0.2H9.4c0,0-0.1,0.1,0,0.2
	l0.1,0.1l0,0L9.3,57l0,0l0,0l0,0v-0.1c0.1-0.1,0.1-0.1,0.1,0v-0.1C9.6,56.7,9.7,56.7,9.7,56.8l0.2,0.1l0,0L9.7,56.8z"/>
<path id="XMLID_1607_" class="st2" d="M9.9,56.4L9.9,56.4L9.9,56.4L9.9,56.4L9.9,56.4z M9.9,56.5L9.9,56.5l0.3,0.2l0,0L9.9,56.5z"/>
<path id="XMLID_1604_" class="st2" d="M10,56.4L10,56.4L10,56.4L10,56.4C10.1,56.4,10.1,56.3,10,56.4c0.2-0.2,0.3-0.2,0.4-0.1
	s0.1,0.2,0,0.3c0,0-0.1,0.1-0.2,0l0,0l0.1,0.1l0,0L10,56.4z M10.4,56.5c0.1-0.1,0.1-0.1,0-0.2c0,0-0.1-0.1-0.2,0s-0.1,0.1,0,0.2
	C10.2,56.6,10.3,56.6,10.4,56.5z"/>
<path id="XMLID_1602_" class="st2" d="M10.6,55.9L10.6,55.9c-0.1,0-0.2,0.1-0.1,0.1C10.4,56.1,10.5,56.1,10.6,55.9
	c0.1,0,0.1,0,0.1,0.1c0,0,0,0.1,0,0.2c-0.1,0.1-0.1,0.1-0.2,0l0,0h0.1c0,0,0.1-0.1,0-0.1c0,0-0.1,0-0.1,0.1c-0.1,0.1-0.1,0.1-0.2,0
	c0,0,0-0.1,0-0.2C10.5,55.8,10.5,55.8,10.6,55.9L10.6,55.9z"/>
<path id="XMLID_1600_" class="st2" d="M11.1,55.7L11.1,55.7c0,0,0,0.1,0,0.2C11,56,11,56,10.9,55.9l-0.2-0.1l0,0l0.2,0.1H11
	C11.1,55.8,11.1,55.7,11.1,55.7l-0.2-0.2l0,0L11.1,55.7L11.1,55.7L11.1,55.7z"/>
<path id="XMLID_1598_" class="st2" d="M11.4,55.1L11.4,55.1c-0.2,0.1-0.1,0.1-0.1,0.2l0.1,0.1l0,0l-0.2-0.2h-0.1c0,0-0.1,0.1,0,0.2
	l0.1,0.1l0,0L11,55.3l0,0l0,0l0,0v-0.1c0.1-0.1,0.1-0.1,0.1,0v-0.1C11.3,55,11.4,55,11.4,55.1l0.2,0.1l0,0L11.4,55.1z"/>
<path id="XMLID_1595_" class="st2" d="M24.7,1.7L24.7,1.7l-0.5,0.2l0.1,0.3l0,0l-0.1-0.3L24.7,1.7z"/>
<path id="XMLID_1592_" class="st2" d="M24.7,2.4c0,0.1,0,0.2-0.1,0.2s-0.2,0-0.2-0.1s0-0.2,0.1-0.2C24.6,2.2,24.7,2.2,24.7,2.4z
	 M24.4,2.5c0,0.1,0.1,0.1,0.2,0.1s0.1-0.1,0.1-0.2s-0.1-0.1-0.2-0.1S24.4,2.4,24.4,2.5z"/>
<path id="XMLID_1590_" class="st2" d="M24.8,2.6L24.8,2.6L24.8,2.6L24.8,2.6c0,0.1,0,0.1,0.1,0.2l0,0l0,0l0,0c0,0-0.1-0.1-0.2-0.1
	l-0.2,0.1l0,0L24.8,2.6z"/>
<path id="XMLID_1587_" class="st2" d="M24.8,3.3c-0.1,0-0.1,0-0.2-0.1c0-0.1,0-0.2,0.1-0.2s0.2,0,0.2,0.1C25,3.2,25,3.3,24.8,3.3
	L24.7,3c-0.1,0-0.1,0.1-0.1,0.2C24.7,3.3,24.7,3.3,24.8,3.3L24.8,3.3z M24.8,3.3c0.1,0,0.1-0.1,0.1-0.2S24.8,3,24.7,3L24.8,3.3z"/>
<path id="XMLID_1585_" class="st2" d="M25.2,4C25.3,4,25.3,3.9,25.2,4c0.1-0.2,0-0.2,0-0.2L25,3.9l0,0l0.2-0.1c0,0,0.1-0.1,0-0.1
	c0-0.1-0.1-0.1-0.1-0.1l-0.2,0.1l0,0l0.3-0.1l0,0H25l0,0c0,0,0.1,0,0.1,0.1s0,0.1,0,0.1S25.2,3.8,25.2,4C25.3,3.9,25.3,4,25.2,4
	L25,4.1l0,0L25.2,4z"/>
<path id="XMLID_1582_" class="st2" d="M25.5,4.2L25.5,4.2L25.5,4.2L25.5,4.2L25.5,4.2z M25.4,4.2L25.4,4.2l-0.3,0.2l0,0L25.4,4.2z"
	/>
<path id="XMLID_1579_" class="st2" d="M25.4,4.3L25.4,4.3L25.4,4.3L25.4,4.3c0,0.1,0,0.1,0.1,0.2c0,0.1,0,0.2-0.1,0.2
	s-0.2,0-0.2-0.1s0-0.1,0-0.2l0,0L25,4.5l0,0L25.4,4.3z M25.2,4.7c0,0.1,0.1,0.1,0.2,0.1s0.1-0.1,0.1-0.2s-0.1-0.1-0.2-0.1
	S25,4.5,25.2,4.7z"/>
<path id="XMLID_1577_" class="st2" d="M25.5,5.1C25.5,5.1,25.6,5,25.5,5.1c0-0.1,0-0.2-0.1-0.2C25.4,4.9,25.4,5,25.5,5.1L25.5,5.1
	c-0.2,0.1-0.2,0.1-0.3,0c0-0.1,0-0.2,0.1-0.2l0,0c-0.1,0-0.1,0.1,0,0.1C25.3,5.1,25.3,5.1,25.5,5.1C25.4,5.1,25.4,5.1,25.5,5.1
	c-0.1-0.2-0.1-0.2-0.1-0.3c0.1,0,0.1,0,0.1,0.1C25.6,5.1,25.6,5.1,25.5,5.1L25.5,5.1z"/>
<path id="XMLID_1575_" class="st2" d="M25.5,5.7L25.5,5.7C25.5,5.7,25.4,5.7,25.5,5.7c-0.1-0.2-0.1-0.3,0-0.3l0.2-0.1l0,0l-0.2,0.1
	c-0.1,0-0.1,0.1-0.1,0.1C25.4,5.6,25.5,5.7,25.5,5.7l0.3-0.1l0,0L25.5,5.7L25.5,5.7L25.5,5.7z"/>
<path id="XMLID_1573_" class="st2" d="M25.8,6.2C25.9,6.2,25.9,6.1,25.8,6.2c0.1-0.2,0-0.2,0-0.2l-0.2,0.1l0,0L25.8,6
	c0,0,0.1-0.1,0-0.1c0-0.1-0.1-0.1-0.1-0.1l-0.2,0.1l0,0l0.3-0.1l0,0h-0.1l0,0c0,0,0.1,0,0.1,0.1s0,0.1,0,0.1S25.9,6,25.8,6.2
	C26.1,6.2,26,6.2,25.8,6.2l-0.2,0.1l0,0L25.8,6.2z"/>
<path id="XMLID_1570_" class="st2" d="M42.7,44.7L42.7,44.7L42.4,45l0.2,0.2l0,0l-0.2-0.3L42.7,44.7z"/>
<path id="XMLID_1567_" class="st2" d="M43.1,45.2c0.1,0.1,0,0.2,0,0.3c-0.1,0.1-0.2,0.1-0.3-0.1c-0.1-0.1,0-0.2,0-0.3
	C42.9,45.1,43,45.1,43.1,45.2z M42.7,45.5c0.1,0.1,0.1,0.1,0.2,0c0.1,0,0.1-0.1,0-0.2s-0.1-0.1-0.2,0C42.7,45.2,42.6,45.4,42.7,45.5
	z"/>
<path id="XMLID_1565_" class="st2" d="M43.2,45.5L43.2,45.5L43.2,45.5L43.2,45.5C43.2,45.6,43.3,45.6,43.2,45.5L43.2,45.5L43.2,45.5
	L43.2,45.5c0.1,0.1,0,0-0.1,0.1l-0.2,0.1l0,0L43.2,45.5z"/>
<path id="XMLID_1562_" class="st2" d="M43.3,46.2c-0.1,0-0.1,0-0.2-0.1s0-0.2,0-0.3c0.1-0.1,0.2-0.1,0.3,0.1
	C43.5,45.9,43.5,46,43.3,46.2l-0.1-0.3c-0.1,0-0.1,0.1,0,0.2C43.2,46.2,43.3,46.2,43.3,46.2L43.3,46.2z M43.4,46
	c0.1-0.1,0.1-0.1,0-0.2c0-0.1-0.1-0.1-0.2-0.1L43.4,46z"/>
<path id="XMLID_1560_" class="st2" d="M43.9,46.6C44,46.6,44,46.5,43.9,46.6c0-0.2-0.1-0.2-0.2-0.1l-0.2,0.1l0,0l0.2-0.1v-0.1
	c0-0.1-0.1-0.1-0.2,0l-0.2,0.1l0,0l0.3-0.2l0,0h-0.1l0,0c0,0,0.1,0,0.1,0.1s0,0.1,0,0.1s0.1,0,0.1,0.1C44,46.6,44,46.6,43.9,46.6
	l-0.1,0.2l0,0L43.9,46.6z"/>
<path id="XMLID_1557_" class="st2" d="M44.1,46.8L44.1,46.8L43.8,47l0,0L44.1,46.8z M44.2,46.7L44.2,46.7L44.2,46.7L44.2,46.7
	L44.2,46.7z"/>
<path id="XMLID_1554_" class="st2" d="M44.2,46.9L44.2,46.9L44.2,46.9L44.2,46.9c0,0.1,0.1,0.1,0.1,0.1c0.1,0.1,0,0.2,0,0.3
	c-0.1,0.1-0.2,0.1-0.3-0.1c0-0.1,0-0.1,0-0.2l0,0l-0.2,0.1l0,0L44.2,46.9z M44,47.3c0,0.1,0.1,0.1,0.2,0c0.1,0,0.1-0.1,0-0.2
	c0-0.1-0.1-0.1-0.2,0C44,47.2,44,47.3,44,47.3z"/>
<path id="XMLID_1552_" class="st2" d="M44.6,47.6L44.6,47.6C44.6,47.5,44.5,47.4,44.6,47.6C44.4,47.5,44.4,47.5,44.6,47.6
	c0,0,0,0.1-0.1,0.1s-0.1,0-0.2-0.1s-0.1-0.2,0-0.2l0,0v0.1c0,0.1,0.1,0.1,0.1,0.1s0,0,0-0.1c-0.1-0.1-0.1-0.1,0-0.2
	c0,0,0.1,0,0.2,0.1C44.7,47.6,44.7,47.6,44.6,47.6L44.6,47.6z"/>
<path id="XMLID_1550_" class="st2" d="M44.7,48.2L44.7,48.2c0,0-0.1,0-0.1-0.1c-0.1-0.1,0-0.2,0-0.2l0.2-0.1l0,0l-0.2,0.1
	c-0.1,0-0.1,0.1,0,0.1C44.6,48.2,44.7,48.2,44.7,48.2l0.2-0.2l0,0L44.7,48.2L44.7,48.2L44.7,48.2z"/>
<path id="XMLID_1548_" class="st2" d="M45.2,48.6C45.3,48.6,45.3,48.5,45.2,48.6c0-0.2-0.1-0.2-0.2-0.1l-0.2,0.1l0,0l0.2-0.1v-0.1
	c0-0.1-0.1-0.1-0.2,0l-0.2,0.1l0,0l0.3-0.2l0,0h-0.1l0,0c0,0,0.1,0,0.1,0.1s0,0.1,0,0.1s0.1,0,0.1,0.1
	C45.3,48.5,45.3,48.6,45.2,48.6l-0.1,0.2l0,0L45.2,48.6z"/>
<path id="XMLID_1545_" class="st2" d="M35.1,39.6L35.1,39.6l-0.5,0.1l0.1,0.3l0,0l-0.1-0.3L35.1,39.6z"/>
<path id="XMLID_1542_" class="st2" d="M35.1,40.3c0,0.1,0,0.2-0.1,0.2s-0.2,0-0.2-0.1s0-0.2,0.1-0.2C35,40,35.1,40.1,35.1,40.3z
	 M34.8,40.4c0,0.1,0.1,0.1,0.2,0.1s0.1-0.1,0.1-0.2s-0.1-0.1-0.2-0.1C34.8,40.1,34.8,40.3,34.8,40.4z"/>
<path id="XMLID_1540_" class="st2" d="M35.1,40.5L35.1,40.5L35.1,40.5L35.1,40.5c0,0.1,0,0.1,0.1,0.2l0,0l0,0l0,0
	c0-0.1-0.1-0.1-0.2-0.1h-0.2l0,0L35.1,40.5z"/>
<path id="XMLID_1537_" class="st2" d="M35.1,41.3c-0.1,0-0.1,0-0.2-0.1c0-0.1,0.1-0.2,0.1-0.2c0.1,0,0.2,0,0.2,0.1
	C35.4,41,35.4,41.2,35.1,41.3V41C35,41,35,41.1,35,41.2C35,41.2,35,41.2,35.1,41.3L35.1,41.3z M35.1,41.2c0.1,0,0.1-0.1,0.1-0.2
	s-0.1-0.1-0.1-0.1V41.2z"/>
<path id="XMLID_1535_" class="st2" d="M35.4,41.8C35.5,41.8,35.5,41.7,35.4,41.8c0.1-0.2,0-0.2,0-0.2h-0.2l0,0l0.2-0.1
	c0,0,0.1,0,0.1-0.1s-0.1-0.1-0.1-0.1h-0.2l0,0l0.3-0.1l0,0h-0.1l0,0c0,0,0.1,0,0.1,0.1s0,0.1,0,0.1s0.1,0,0.1,0.1
	C35.5,41.8,35.5,42,35.4,41.8l-0.2,0.1l0,0L35.4,41.8z"/>
<path id="XMLID_1532_" class="st2" d="M35.6,42.2L35.6,42.2l-0.3,0.1l0,0L35.6,42.2z M35.7,42.2L35.7,42.2L35.7,42.2L35.7,42.2
	L35.7,42.2z"/>
<path id="XMLID_1529_" class="st2" d="M35.6,42.3L35.6,42.3L35.6,42.3L35.6,42.3c0,0.1,0,0.1,0.1,0.2c0,0.1-0.1,0.2-0.1,0.2
	c-0.1,0-0.2,0-0.2-0.1s0-0.1,0-0.2l0,0h-0.2l0,0L35.6,42.3z M35.4,42.6c0,0.1,0.1,0.1,0.2,0.1s0.1-0.1,0.1-0.2s-0.1-0.1-0.2-0.1
	S35.3,42.5,35.4,42.6z"/>
<path id="XMLID_1527_" class="st2" d="M35.7,43.1C35.8,43.1,35.8,43,35.7,43.1c0-0.1,0-0.2-0.1-0.2C35.6,42.9,35.6,42.9,35.7,43.1
	c-0.1,0-0.1,0.1-0.1,0.1c-0.1,0-0.1,0-0.1-0.1s0-0.2,0.1-0.2l0,0C35.5,42.9,35.5,43,35.7,43.1C35.6,43.1,35.6,43.1,35.7,43.1
	L35.7,43.1c0-0.2,0-0.2,0.1-0.3c0.1,0,0.1,0,0.1,0.1C35.8,43.1,35.8,43.1,35.7,43.1L35.7,43.1z"/>
<path id="XMLID_1525_" class="st2" d="M35.6,43.5L35.6,43.5c0,0-0.1,0-0.1-0.1s0-0.2,0.1-0.2h0.2l0,0l-0.2,0.1
	C35.5,43.3,35.5,43.4,35.6,43.5L35.6,43.5l0.3-0.1l0,0L35.6,43.5L35.6,43.5L35.6,43.5z"/>
<path id="XMLID_1523_" class="st2" d="M35.9,44.2c0.1,0,0.1-0.1,0.1-0.1c0-0.1-0.1-0.1-0.1-0.1h-0.2l0,0l0.2-0.1c0,0,0.1,0,0.1-0.1
	s-0.1-0.1-0.1-0.1h-0.2l0,0l0.3-0.1l0,0h-0.1l0,0c0,0,0.1,0,0.1,0.1s0,0.1,0,0.1s0.1,0,0.1,0.1C36,44.2,36,44.2,35.9,44.2l-0.2,0.1
	l0,0L35.9,44.2z"/>
<path id="XMLID_1520_" class="st2" d="M34,47.4L34,47.4l-0.5,0.1v0.3l0,0v-0.3L34,47.4z"/>
<path id="XMLID_1517_" class="st2" d="M33.9,48.1c0,0.1-0.1,0.2-0.2,0.2s-0.2-0.1-0.2-0.2s0.1-0.2,0.2-0.2S33.9,48,33.9,48.1z
	 M33.6,48.1c0,0.1,0.1,0.1,0.1,0.1c0.1,0,0.1-0.1,0.1-0.1C33.8,48,33.7,48,33.6,48.1C33.6,47.9,33.4,48,33.6,48.1z"/>
<path id="XMLID_1515_" class="st2" d="M33.9,48.3L33.9,48.3L33.9,48.3L33.9,48.3c0,0.1,0,0.1,0,0.2l0,0l0,0l0,0
	C33.9,48.4,33.9,48.4,33.9,48.3l-0.3,0.1l0,0L33.9,48.3z"/>
<path id="XMLID_1512_" class="st2" d="M33.6,49c-0.1,0-0.1-0.1-0.1-0.2s0.1-0.2,0.2-0.2s0.2,0.1,0.2,0.2S33.8,49,33.6,49v-0.3
	c-0.1,0-0.1,0.1-0.1,0.1C33.6,48.9,33.6,49,33.6,49L33.6,49z M33.7,49c0.1,0,0.1-0.1,0.1-0.1c0-0.1,0-0.1-0.1-0.1V49z"/>
<path id="XMLID_1510_" class="st2" d="M33.8,49.7c0.1,0,0.1,0,0.1-0.1s0-0.1-0.1-0.1h-0.2l0,0h0.2c0,0,0.1,0,0.1-0.1s0-0.1-0.1-0.1
	h-0.2l0,0h0.3l0,0h-0.1l0,0l0.1,0.1c0,0.1,0,0.1-0.1,0.1l0.1,0.1C33.9,49.7,33.8,49.8,33.8,49.7l-0.2,0.1l0,0L33.8,49.7z"/>
<path id="XMLID_1507_" class="st2" d="M33.9,50L33.9,50l-0.3,0.1l0,0L33.9,50z M34,50L34,50L34,50L34,50L34,50z"/>
<path id="XMLID_1504_" class="st2" d="M33.9,50.1L33.9,50.1L33.9,50.1L33.9,50.1c0,0.1,0,0.1,0,0.2s-0.1,0.2-0.2,0.2
	s-0.2-0.1-0.2-0.2s0-0.1,0.1-0.1l0,0h-0.2l0,0L33.9,50.1z M33.6,50.3c0,0.1,0.1,0.1,0.1,0.1c0.1,0,0.1,0,0.1-0.1s-0.1-0.1-0.1-0.1
	C33.6,50.2,33.6,50.2,33.6,50.3z"/>
<path id="XMLID_1502_" class="st2" d="M33.8,50.9C33.9,50.9,33.9,50.9,33.8,50.9c0.1-0.2,0.1-0.2,0-0.2
	C33.8,50.7,33.8,50.7,33.8,50.9c-0.1,0-0.1,0.1-0.1,0.1c-0.1,0-0.1-0.1-0.1-0.2s0-0.2,0.1-0.2l0,0c-0.1,0-0.1,0-0.1,0.1
	S33.6,50.8,33.8,50.9c-0.1-0.1-0.1-0.1,0-0.2c0-0.1,0-0.1,0.1-0.1s0.1,0,0.1,0.1C33.9,50.9,33.9,51,33.8,50.9L33.8,50.9z"/>
<path id="XMLID_1500_" class="st2" d="M33.6,51.4L33.6,51.4L33.6,51.4c-0.1-0.2,0-0.2,0-0.2h0.2l0,0h-0.2
	C33.5,51.2,33.5,51.2,33.6,51.4L33.6,51.4h0.3l0,0H33.6L33.6,51.4L33.6,51.4z"/>
<path id="XMLID_1498_" class="st2" d="M33.8,52.2c0.1,0,0.1,0,0.1-0.1s0-0.1-0.1-0.1h-0.2l0,0h0.2c0,0,0.1,0,0.1-0.1s0-0.1-0.1-0.1
	h-0.2l0,0h0.3l0,0h-0.1l0,0l0.1,0.1c0,0.1,0,0.1-0.1,0.1l0.1,0.1C33.9,52.2,33.9,52.2,33.8,52.2l-0.2,0.1l0,0L33.8,52.2z"/>
<path id="XMLID_1495_" class="st2" d="M34,55L34,55l-0.5,0.1v0.3l0,0v-0.3L34,55z"/>
<path id="XMLID_1492_" class="st2" d="M33.9,55.7c0,0.1-0.1,0.2-0.2,0.2s-0.2-0.1-0.2-0.2s0.1-0.2,0.2-0.2S33.9,55.5,33.9,55.7z
	 M33.6,55.7c0,0.1,0.1,0.1,0.1,0.1c0.1,0,0.1-0.1,0.1-0.1c0-0.1-0.1-0.1-0.1-0.1C33.6,55.5,33.6,55.6,33.6,55.7z"/>
<path id="XMLID_1490_" class="st2" d="M33.9,55.9L33.9,55.9L33.9,55.9L33.9,55.9c0,0.1,0,0.1,0,0.2l0,0l0,0l0,0
	C33.9,56,33.9,56,33.9,55.9L33.6,56l0,0L33.9,55.9z"/>
<path id="XMLID_1487_" class="st2" d="M33.7,56.6c-0.1,0-0.1-0.1-0.1-0.2s0.1-0.2,0.2-0.2s0.2,0.1,0.2,0.2
	C33.9,56.5,33.9,56.6,33.7,56.6v-0.3c-0.1,0-0.1,0.1-0.1,0.1C33.6,56.5,33.6,56.6,33.7,56.6L33.7,56.6z M33.8,56.6
	C33.9,56.6,33.9,56.5,33.8,56.6c0.1-0.2,0.1-0.2,0-0.2V56.6z"/>
<path id="XMLID_1485_" class="st2" d="M33.8,57.3c0.1,0,0.1,0,0.1-0.1s0-0.1-0.1-0.1h-0.2l0,0h0.2c0,0,0.1,0,0.1-0.1s0-0.1-0.1-0.1
	h-0.2l0,0h0.3l0,0h-0.1l0,0l0.1,0.1c0,0.1,0,0.1-0.1,0.1l0.1,0.1C33.9,57.3,33.9,57.4,33.8,57.3l-0.2,0.1l0,0L33.8,57.3z"/>
<path id="XMLID_1482_" class="st2" d="M33.9,57.6L33.9,57.6l-0.3,0.1l0,0L33.9,57.6z M34,57.6L34,57.6L34,57.6L34,57.6L34,57.6z"/>
<path id="XMLID_1479_" class="st2" d="M33.9,57.7L33.9,57.7L33.9,57.7L33.9,57.7c0,0.1,0,0.1,0,0.2s-0.1,0.2-0.2,0.2
	s-0.2-0.1-0.2-0.2s0-0.1,0.1-0.1l0,0h-0.2l0,0L33.9,57.7z M33.6,57.9c0,0.1,0.1,0.1,0.1,0.1c0.1,0,0.1,0,0.1-0.1
	S33.7,57.8,33.6,57.9C33.7,57.8,33.6,57.8,33.6,57.9z"/>
<path id="XMLID_1477_" class="st2" d="M33.8,58.5c0.1,0,0.1,0,0.1-0.1s0-0.1-0.1-0.1C33.8,58.3,33.8,58.3,33.8,58.5
	C33.7,58.5,33.7,58.6,33.8,58.5c-0.2,0.1-0.2,0-0.2-0.1s0-0.2,0.1-0.2l0,0c-0.1,0-0.1,0-0.1,0.1S33.6,58.4,33.8,58.5
	c-0.1-0.1-0.1-0.1,0-0.2c0-0.1,0-0.1,0.1-0.1s0.1,0,0.1,0.1C33.9,58.5,33.9,58.6,33.8,58.5L33.8,58.5z"/>
<path id="XMLID_1475_" class="st2" d="M33.7,59L33.7,59l-0.1-0.1c0-0.1,0.1-0.1,0.1-0.1h0.2l0,0h-0.2c-0.1,0-0.1,0-0.1,0.1
	S33.7,59,33.7,59H34l0,0H33.7L33.7,59L33.7,59z"/>
<path id="XMLID_1473_" class="st2" d="M33.8,59.8c0.1,0,0.1,0,0.1-0.1s0-0.1-0.1-0.1h-0.2l0,0h0.2c0,0,0.1,0,0.1-0.1s0-0.1-0.1-0.1
	h-0.2l0,0h0.3l0,0h-0.1l0,0l0.1,0.1c0,0.1,0,0.1-0.1,0.1l0.1,0.1C34,59.8,33.9,59.8,33.8,59.8l-0.2,0.1l0,0L33.8,59.8z"/>
<path id="XMLID_1470_" class="st2" d="M29.2,63.8L29.2,63.8l-0.5,0.1v0.3l0,0v-0.3L29.2,63.8z"/>
<path id="XMLID_1467_" class="st2" d="M29.1,64.5c0,0.1-0.1,0.2-0.2,0.2s-0.2-0.1-0.2-0.2s0.1-0.2,0.2-0.2S29.1,64.4,29.1,64.5z
	 M28.7,64.5C28.7,64.6,28.8,64.6,28.7,64.5c0.2,0.1,0.2,0,0.2,0c0-0.1-0.1-0.1-0.1-0.1S28.7,64.4,28.7,64.5z"/>
<path id="XMLID_1465_" class="st2" d="M29.1,64.9L29.1,64.9L29.1,64.9L29.1,64.9c0,0.1,0,0.1,0,0.2l0,0l0,0l0,0
	C29.1,65,29.1,65,29.1,64.9L28.8,65l0,0L29.1,64.9z"/>
<path id="XMLID_1462_" class="st2" d="M28.8,65.5c-0.1,0-0.1-0.1-0.1-0.2s0.1-0.2,0.2-0.2s0.2,0.1,0.2,0.2S29,65.5,28.8,65.5v-0.3
	c-0.1,0-0.1,0.1-0.1,0.1C28.8,65.4,28.8,65.4,28.8,65.5L28.8,65.5z M28.9,65.4C29,65.4,29,65.3,28.9,65.4c0.1-0.2,0.1-0.2,0-0.2
	V65.4z"/>
<path id="XMLID_1460_" class="st2" d="M29,66.2c0.1,0,0.1,0,0.1-0.1s0-0.1-0.1-0.1h-0.2l0,0H29c0,0,0.1,0,0.1-0.1s0-0.1-0.1-0.1
	h-0.2l0,0h0.3l0,0H29l0,0l0.1,0.1c0,0.1,0,0.1-0.1,0.1l0.1,0.1C29.1,66.2,29,66.2,29,66.2l-0.2,0.1l0,0L29,66.2z"/>
<path id="XMLID_1457_" class="st2" d="M29.1,66.6L29.1,66.6l-0.3,0.1l0,0L29.1,66.6z M29.2,66.6L29.2,66.6L29.2,66.6L29.2,66.6
	L29.2,66.6z"/>
<path id="XMLID_1454_" class="st2" d="M29.1,66.7L29.1,66.7L29.1,66.7L29.1,66.7c0,0.1,0,0.1,0,0.2s-0.1,0.2-0.2,0.2
	s-0.2-0.1-0.2-0.2s0-0.1,0.1-0.1l0,0h-0.2l0,0L29.1,66.7z M28.8,66.9c0,0.1,0.1,0.1,0.1,0.1c0.1,0,0.1,0,0.1-0.1
	C29,66.8,28.9,66.8,28.8,66.9C28.8,66.7,28.8,66.8,28.8,66.9z"/>
<path id="XMLID_1452_" class="st2" d="M29,67.5c0.1,0,0.1,0,0.1-0.1s0-0.1-0.1-0.1C29,67.1,29,67.2,29,67.5
	C28.9,67.5,28.9,67.6,29,67.5c-0.2,0.1-0.2,0-0.2-0.1s0-0.2,0.1-0.2l0,0c-0.1,0-0.1,0-0.1,0.1C28.8,67.4,28.8,67.4,29,67.5
	c-0.1-0.1-0.1-0.1,0-0.2c0-0.1,0-0.1,0.1-0.1s0.1,0,0.1,0.1C29.1,67.5,29.1,67.5,29,67.5L29,67.5z"/>
<path id="XMLID_1450_" class="st2" d="M28.8,67.9L28.8,67.9L28.8,67.9c-0.1-0.2,0-0.2,0-0.2H29l0,0h-0.2
	C28.7,67.7,28.7,67.7,28.8,67.9C28.8,67.8,28.8,67.9,28.8,67.9h0.3l0,0H28.8L28.8,67.9L28.8,67.9z"/>
<path id="XMLID_1448_" class="st2" d="M29,68.6C29.1,68.6,29.1,68.6,29,68.6c0.1-0.2,0.1-0.2,0-0.2h-0.2l0,0H29c0,0,0.1,0,0.1-0.1
	s0-0.1-0.1-0.1h-0.2l0,0h0.3l0,0H29l0,0l0.1,0.1c0,0.1,0,0.1-0.1,0.1L29,68.6C29.1,68.6,29.1,68.7,29,68.6l-0.2,0.1l0,0L29,68.6z"/>
<path id="XMLID_1445_" class="st2" d="M38.3,38.2L38.3,38.2L38,38.5l0.2,0.2l0,0L38,38.4L38.3,38.2z"/>
<path id="XMLID_1442_" class="st2" d="M38.5,38.8c0.1,0.1,0,0.2,0,0.3c-0.1,0.1-0.2,0.1-0.3,0c-0.1-0.1,0-0.2,0-0.3
	C38.4,38.7,38.5,38.7,38.5,38.8z M38.3,39c0.1,0.1,0.1,0.1,0.2,0c0.1,0,0.1-0.1,0-0.2s-0.1-0.1-0.2,0C38.3,38.9,38.2,38.9,38.3,39z"
	/>
<path id="XMLID_1440_" class="st2" d="M38.8,39L38.8,39L38.8,39L38.8,39C38.8,39.1,38.9,39.1,38.8,39L38.8,39L38.8,39L38.8,39
	c0.1,0.1,0,0-0.1,0.1l-0.1,0.1l0,0L38.8,39z"/>
<path id="XMLID_1437_" class="st2" d="M38.9,39.7c-0.1,0-0.1,0-0.2-0.1s0-0.2,0-0.3c0.1-0.1,0.2-0.1,0.3,0
	C39.1,39.5,39.1,39.6,38.9,39.7l-0.1-0.3c-0.1,0-0.1,0.1,0,0.2C38.8,39.7,38.9,39.7,38.9,39.7L38.9,39.7z M39,39.7
	c0.1-0.1,0-0.1,0-0.2c0,0-0.1-0.1-0.2,0L39,39.7z"/>
<path id="XMLID_1435_" class="st2" d="M39.4,40.3C39.4,40.3,39.5,40.2,39.4,40.3c0-0.2-0.1-0.2-0.2-0.1L39,40.3l0,0l0.2-0.1v-0.1
	c0-0.1-0.1-0.1-0.2,0l-0.2,0.1l0,0l0.3-0.2l0,0H39l0,0c0,0,0.1,0,0.1,0.1s0,0.1,0,0.1s0.1,0,0.1,0.1C39.6,40.1,39.6,40.3,39.4,40.3
	l-0.1,0.2l0,0L39.4,40.3z"/>
<path id="XMLID_1432_" class="st2" d="M39.8,40.4L39.8,40.4l-0.2,0.2l0,0L39.8,40.4z M39.9,40.4L39.9,40.4L39.9,40.4L39.9,40.4
	L39.9,40.4z"/>
<path id="XMLID_1429_" class="st2" d="M39.8,40.5L39.8,40.5L39.8,40.5L39.8,40.5C39.8,40.6,39.9,40.6,39.8,40.5
	c0.2,0.2,0.1,0.3,0.1,0.4c-0.1,0.1-0.2,0.1-0.3,0c0-0.1,0-0.1,0-0.2l0,0l-0.2,0.1l0,0L39.8,40.5z M39.7,40.9c0,0.1,0.1,0.1,0.2,0
	c0.1,0,0.1-0.1,0-0.2c0-0.1-0.1-0.1-0.2,0C39.7,40.7,39.6,40.8,39.7,40.9z"/>
<path id="XMLID_1427_" class="st2" d="M40.2,41.2L40.2,41.2C40.2,41.1,40.1,41,40.2,41.2C40,41,40,41,40.2,41.2
	C40.2,41.2,40.2,41.3,40.2,41.2c-0.2,0.1-0.2,0.1-0.3,0s-0.1-0.2,0-0.2l0,0v0.1c0,0.1,0.1,0.1,0.1,0.1s0,0,0-0.1
	c-0.1-0.1-0.1-0.1,0-0.2c0,0,0.1,0,0.2,0.1C40.2,41.2,40.2,41.2,40.2,41.2L40.2,41.2z"/>
<path id="XMLID_1425_" class="st2" d="M40.2,41.7L40.2,41.7C40.2,41.7,40.1,41.7,40.2,41.7c-0.2-0.2-0.1-0.3-0.1-0.3l0.2-0.1l0,0
	l-0.2,0.1c-0.1,0,0,0.1,0,0.1C40.2,41.7,40.4,41.7,40.2,41.7l0.2-0.2l0,0L40.2,41.7L40.2,41.7L40.2,41.7z"/>
<path id="XMLID_1423_" class="st2" d="M40.8,42.2c0,0,0.1-0.1,0-0.1c0-0.1-0.1-0.1-0.2,0l-0.2,0.1l0,0l0.2-0.1V42
	c0-0.1-0.1-0.1-0.2,0l-0.2,0.1l0,0l0.3-0.2l0,0h-0.1l0,0c0,0,0.1,0,0.1,0.1s0,0.1,0,0.1s0.1,0,0.1,0.1C41,42.1,40.9,42.2,40.8,42.2
	l-0.1,0.2l0,0L40.8,42.2z"/>
<path id="XMLID_1420_" class="st2" d="M48.9,49L48.9,49l-0.3,0.3l0.2,0.2l0,0l-0.2-0.3L48.9,49z"/>
<path id="XMLID_1417_" class="st2" d="M49.2,49.6c0.1,0.1,0.1,0.2,0,0.3s-0.2,0.1-0.3,0s-0.1-0.2,0-0.3C49,49.4,49.1,49.4,49.2,49.6
	z M48.9,49.8c0.1,0.1,0.1,0.1,0.2,0s0.1-0.1,0-0.2s-0.1-0.1-0.2,0C48.9,49.7,48.9,49.8,48.9,49.8z"/>
<path id="XMLID_1415_" class="st2" d="M49.3,49.8L49.3,49.8L49.3,49.8L49.3,49.8c0,0.1,0.1,0.1,0.1,0.1l0,0l0,0l0,0
	c0,0-0.1-0.1-0.2,0L49.1,50l0,0L49.3,49.8z"/>
<path id="XMLID_1412_" class="st2" d="M49.5,50.5c-0.1,0-0.1,0-0.2-0.1s-0.1-0.2,0-0.3s0.2-0.1,0.3,0C49.8,50.2,49.8,50.3,49.5,50.5
	l-0.2-0.3c-0.1,0-0.1,0.1,0,0.2C49.4,50.5,49.5,50.5,49.5,50.5L49.5,50.5z M49.7,50.3c0.1-0.1,0-0.1,0-0.2c0,0-0.1-0.1-0.2,0
	L49.7,50.3z"/>
<path id="XMLID_1410_" class="st2" d="M50.1,50.9L50.1,50.9c0-0.2-0.1-0.2-0.2-0.1l-0.1,0.1l0,0l0.2-0.2v-0.1c0-0.1-0.1-0.1-0.2,0
	l-0.1,0.1l0,0l0.3-0.2l0,0l0,0l0,0c0,0,0.1,0,0.1,0.1c0.1,0.1,0,0.1,0,0.1h0.1C50.2,50.8,50.2,50.9,50.1,50.9L50,51.1l0,0L50.1,50.9
	z"/>
<path id="XMLID_1407_" class="st2" d="M50.4,51L50.4,51l-0.2,0.3l0,0L50.4,51z M50.6,50.9L50.6,50.9L50.6,50.9L50.6,50.9L50.6,50.9z
	"/>
<path id="XMLID_1404_" class="st2" d="M50.6,51.1L50.6,51.1L50.6,51.1L50.6,51.1c0,0.1,0.1,0.1,0.1,0.1c0.1,0.1,0.1,0.2,0,0.3
	s-0.2,0.1-0.3,0c0,0-0.1-0.1,0-0.2l0,0l-0.1,0.1l0,0L50.6,51.1z M50.4,51.6c0.1,0.1,0.1,0.1,0.2,0c0.1,0,0.1-0.1,0-0.2
	s-0.1-0.1-0.2,0C50.3,51.4,50.3,51.5,50.4,51.6z"/>
<path id="XMLID_1402_" class="st2" d="M51,51.8v-0.1c0,0-0.1-0.1-0.1,0C50.8,51.7,50.8,51.7,51,51.8c0,0,0,0.1-0.1,0.1
	c0,0-0.1,0-0.2,0c-0.1-0.1-0.1-0.2,0-0.2l0,0v0.1c0,0,0.1,0.1,0.1,0v-0.1c-0.1-0.1-0.1-0.1,0-0.2c0,0,0.1,0,0.2,0
	C51,51.7,51.1,51.8,51,51.8L51,51.8z"/>
<path id="XMLID_1400_" class="st2" d="M51.1,52.3L51.1,52.3c0,0-0.1,0-0.2-0.1s-0.1-0.1,0-0.2l0.2-0.1l0,0L50.9,52v0.1
	C51.1,52.3,51.1,52.3,51.1,52.3l0.2-0.2l0,0L51.1,52.3L51.1,52.3L51.1,52.3z"/>
<path id="XMLID_1398_" class="st2" d="M51.8,52.7v-0.1c0-0.1-0.1-0.1-0.2,0l-0.1,0.1l0,0l0.2-0.2v-0.1c0-0.1-0.1-0.1-0.2,0l-0.1,0.1
	l0,0l0.3-0.2l0,0l0,0l0,0c0,0,0.1,0,0.1,0.1c0.1,0.1,0,0.1,0,0.1h0.1C51.9,52.6,51.8,52.7,51.8,52.7l-0.1,0.2l0,0L51.8,52.7z"/>
<path id="XMLID_1395_" class="st2" d="M43.5,56.8L43.5,56.8L43,57l0.1,0.3l0,0L43,57L43.5,56.8z"/>
<path id="XMLID_1392_" class="st2" d="M43.6,57.5c0,0.1,0,0.2-0.1,0.2s-0.2,0-0.2-0.1s0-0.2,0.1-0.2C43.4,57.3,43.5,57.3,43.6,57.5z
	 M43.3,57.6c0,0.1,0.1,0.1,0.2,0.1s0.1-0.1,0.1-0.2s-0.1-0.1-0.2-0.1S43.2,57.5,43.3,57.6z"/>
<path id="XMLID_1390_" class="st2" d="M43.6,57.7L43.6,57.7L43.6,57.7L43.6,57.7c0,0.1,0,0.1,0.1,0.2l0,0l0,0l0,0
	c0,0-0.1-0.1-0.2-0.1l-0.2,0.1l0,0L43.6,57.7z"/>
<path id="XMLID_1387_" class="st2" d="M43.6,58.4c-0.1,0-0.1,0-0.2-0.1s0-0.2,0.1-0.2s0.2,0,0.2,0.1C43.9,58.3,43.9,58.4,43.6,58.4
	l-0.1-0.3c-0.1,0-0.1,0.1-0.1,0.2C43.5,58.4,43.6,58.4,43.6,58.4L43.6,58.4z M43.8,58.4c0.1,0,0.1-0.1,0.1-0.2s-0.1-0.1-0.2-0.1
	L43.8,58.4z"/>
<path id="XMLID_1385_" class="st2" d="M44.1,59c0.1,0,0.1-0.1,0-0.1c0-0.1-0.1-0.1-0.1-0.1l-0.2,0.1l0,0l0.2-0.1c0,0,0.1-0.1,0-0.1
	c0-0.1-0.1-0.1-0.2-0.1l-0.2,0.1l0,0l0.3-0.1l0,0h-0.1l0,0c0,0,0.1,0,0.1,0.1s0,0.1,0,0.1s0.1,0,0.1,0.1C44.2,59,44.2,59.1,44.1,59
	l-0.2,0.1l0,0L44.1,59z"/>
<path id="XMLID_1382_" class="st2" d="M44.3,59.3L44.3,59.3L44,59.5l0,0L44.3,59.3z M44.4,59.2L44.4,59.2L44.4,59.2L44.4,59.2
	L44.4,59.2z"/>
<path id="XMLID_1379_" class="st2" d="M44.3,59.4L44.3,59.4L44.3,59.4L44.3,59.4c0,0.1,0,0.1,0.1,0.2s0,0.2-0.1,0.2s-0.2,0-0.2-0.1
	s0-0.1,0-0.2l0,0l-0.2,0.1l0,0L44.3,59.4z M44.1,59.8c0,0.1,0.1,0.1,0.2,0.1s0.1-0.1,0.1-0.2s-0.1-0.1-0.2-0.1
	C44.1,59.5,44.1,59.6,44.1,59.8z"/>
<path id="XMLID_1377_" class="st2" d="M44.6,60.2v-0.1c0,0,0-0.1-0.1-0.1S44.4,60,44.6,60.2c0,0,0,0.1-0.1,0.1s-0.1,0-0.2-0.1
	c0-0.1,0-0.2,0-0.2l0,0c0,0-0.1,0.1,0,0.1c0,0.1,0.1,0.1,0.1,0.1s0,0,0-0.1s0-0.1,0-0.2c0.1,0,0.1,0,0.1,0.1
	C44.7,60.1,44.7,60.2,44.6,60.2L44.6,60.2z"/>
<path id="XMLID_1375_" class="st2" d="M44.6,60.7L44.6,60.7c0,0-0.1,0-0.1-0.1s0-0.2,0.1-0.2l0.2-0.1l0,0l-0.2,0.1
	c-0.1,0-0.1,0.1,0,0.1C44.4,60.7,44.6,60.7,44.6,60.7l0.3-0.1l0,0L44.6,60.7L44.6,60.7L44.6,60.7z"/>
<path id="XMLID_1373_" class="st2" d="M45,61.2c0.1,0,0.1-0.1,0-0.1c0-0.1-0.1-0.1-0.1-0.1l-0.2,0.1l0,0l0.2-0.1c0,0,0.1-0.1,0-0.1
	c0-0.1-0.1-0.1-0.2-0.1l-0.2,0.1l0,0l0.3-0.1l0,0h-0.1l0,0c0,0,0.1,0,0.1,0.1s0,0.1,0,0.1s0.1,0,0.1,0.1
	C45.1,61.2,45.1,61.3,45,61.2l-0.2,0.1l0,0L45,61.2z"/>
<path id="XMLID_1370_" class="st2" d="M52.1,57.4L52.1,57.4l-0.3,0.3l0.2,0.2l0,0l-0.2-0.3L52.1,57.4z"/>
<path id="XMLID_1367_" class="st2" d="M52.4,57.9c0.1,0.1,0,0.2,0,0.3c-0.1,0.1-0.2,0.1-0.3-0.1c-0.1-0.1,0-0.2,0-0.3
	C52.1,57.8,52.3,57.8,52.4,57.9z M52.1,58.2c0.1,0.1,0.1,0.1,0.2,0c0.1,0,0.1-0.1,0-0.2s-0.1-0.1-0.2,0S52,58.1,52.1,58.2z"/>
<path id="XMLID_1365_" class="st2" d="M52.6,58.2L52.6,58.2L52.6,58.2L52.6,58.2c0,0.1,0.1,0.1,0.1,0.1l0,0l0,0l0,0
	c0,0-0.1-0.1-0.2,0l-0.1,0.1l0,0L52.6,58.2z"/>
<path id="XMLID_1362_" class="st2" d="M52.7,59c-0.1,0-0.1,0-0.2-0.1s0-0.2,0-0.3c0.1-0.1,0.2-0.1,0.3,0
	C52.9,58.6,52.9,58.9,52.7,59l-0.1-0.3c-0.1,0-0.1,0.1,0,0.2C52.6,58.9,52.6,58.9,52.7,59L52.7,59z M52.8,58.9c0.1-0.1,0-0.1,0-0.2
	s-0.1-0.1-0.2,0L52.8,58.9z"/>
<path id="XMLID_1360_" class="st2" d="M53.2,59.4C53.3,59.4,53.3,59.3,53.2,59.4c0-0.2-0.1-0.2-0.2-0.1l-0.2,0.1l0,0l0.2-0.1v-0.1
	c0-0.1-0.1-0.1-0.2,0l-0.2,0.1l0,0l0.3-0.2l0,0h-0.1l0,0c0,0,0.1,0,0.1,0.1s0,0.1,0,0.1s0.1,0,0.1,0.1
	C53.4,59.3,53.3,59.4,53.2,59.4l-0.1,0.2l0,0L53.2,59.4z"/>
<path id="XMLID_1357_" class="st2" d="M53.5,59.6L53.5,59.6l-0.2,0.2l0,0L53.5,59.6z M53.6,59.5L53.6,59.5L53.6,59.5L53.6,59.5
	L53.6,59.5z"/>
<path id="XMLID_1354_" class="st2" d="M53.6,59.8L53.6,59.8L53.6,59.8L53.6,59.8c0,0.1,0.1,0.1,0.1,0.1c0.1,0.1,0,0.2,0,0.3
	c-0.1,0.1-0.2,0.1-0.3,0c0-0.1,0-0.1,0-0.2l0,0l-0.2,0.1l0,0L53.6,59.8z M53.5,60.1c0,0.1,0.1,0.1,0.2,0c0.1,0,0.1-0.1,0-0.2
	c0-0.1-0.1-0.1-0.2,0C53.4,59.9,53.4,60,53.5,60.1z"/>
<path id="XMLID_1352_" class="st2" d="M54,60.4L54,60.4C54,60.3,53.9,60.2,54,60.4C53.8,60.2,53.8,60.2,54,60.4c0,0,0,0.1-0.1,0.1
	s-0.1,0-0.2-0.1s-0.1-0.2,0-0.2l0,0v0.1c0,0.1,0.1,0.1,0.1,0.1s0,0,0-0.1c-0.1-0.1-0.1-0.1,0-0.2c0,0,0.1,0,0.2,0.1
	S54.1,60.4,54,60.4L54,60.4z"/>
<path id="XMLID_1350_" class="st2" d="M54.1,60.9L54.1,60.9C54.1,60.9,54,60.9,54.1,60.9c-0.2-0.2-0.1-0.3-0.1-0.3l0.2-0.1l0,0
	L54,60.6c-0.1,0,0,0.1,0,0.1C54.1,60.9,54.1,60.9,54.1,60.9l0.2-0.2l0,0L54.1,60.9L54.1,60.9L54.1,60.9z"/>
<path id="XMLID_1348_" class="st2" d="M54.6,61.3c0.1,0,0.1-0.1,0-0.1c0-0.1-0.1-0.1-0.2,0l-0.2,0.1l0,0l0.2-0.1v-0.1
	c0-0.1-0.1-0.1-0.2,0L54,61.2l0,0l0.3-0.2l0,0h-0.1l0,0c0,0,0.1,0,0.1,0.1s0,0.1,0,0.1s0.1,0,0.1,0.1C54.8,61.3,54.8,61.3,54.6,61.3
	l-0.1,0.2l0,0L54.6,61.3z"/>
<path id="XMLID_1345_" class="st3" d="M53.6,50.2L53.6,50.2L53,50.9l0.5,0.5l-0.1,0.1L52.8,51L53.6,50.2z"/>
<path id="XMLID_1342_" class="st3" d="M54.3,51.1c0.2,0.2,0.1,0.5,0,0.6s-0.3,0.2-0.6,0c-0.2-0.2-0.1-0.5,0-0.6S54.1,51,54.3,51.1z
	 M53.8,51.7c0.1,0.1,0.3,0.1,0.5,0c0.1-0.1,0.1-0.3,0-0.5c-0.1-0.1-0.3-0.1-0.5,0C53.6,51.4,53.6,51.5,53.8,51.7z"/>
<path id="XMLID_1340_" class="st3" d="M54.6,51.6L54.6,51.6v0.2l0,0c0.1,0,0.2-0.1,0.3,0l0,0l-0.1,0.1c0,0,0,0-0.1-0.1
	s-0.2-0.1-0.3,0L54.2,52l-0.1-0.1L54.6,51.6z"/>
<path id="XMLID_1337_" class="st3" d="M55.2,52.7c-0.1,0.1-0.2,0.1-0.5-0.1c-0.2-0.2-0.1-0.5,0-0.6s0.3-0.2,0.6,0
	C55.4,52.3,55.6,52.5,55.2,52.7l-0.5-0.6c-0.1,0.1-0.1,0.2,0,0.3C55,52.7,55,52.7,55.2,52.7L55.2,52.7z M55.2,52.6
	c0.1-0.1,0-0.2,0-0.3c-0.1-0.1-0.2-0.1-0.3,0L55.2,52.6z"/>
<path id="XMLID_1335_" class="st3" d="M56.2,53.5c0.1-0.1,0.1-0.2,0-0.3s-0.2-0.1-0.3,0l-0.3,0.3l-0.1-0.1l0.3-0.3
	c0.1-0.1,0.1-0.1,0-0.2s-0.2-0.1-0.3,0l-0.2,0.3l-0.1-0.1l0.5-0.5l0.1,0.1l-0.1,0.1l0,0c0.1,0,0.2,0,0.3,0.1s0.1,0.2,0.1,0.3
	c0.1,0,0.2,0,0.3,0.1C56.5,53.3,56.5,53.4,56.2,53.5L56,53.8l-0.1-0.1L56.2,53.5z"/>
<path id="XMLID_1332_" class="st3" d="M56.9,53.7L56.9,53.7l-0.5,0.6l-0.1-0.1L56.9,53.7z M57,53.5L57,53.5v0.2V53.5L57,53.5z"/>
<path id="XMLID_1329_" class="st3" d="M57,53.9L57,53.9v0.2l0,0c0.1,0,0.2,0,0.3,0.1c0.2,0.2,0.1,0.5,0,0.6s-0.3,0.2-0.6,0
	c-0.1-0.1-0.1-0.2-0.1-0.3l0,0l-0.3,0.3l-0.1-0.1L57,53.9z M56.9,54.7c0.1,0.1,0.2,0.1,0.5,0c0.1-0.1,0.1-0.2,0-0.5
	c-0.1-0.1-0.3-0.1-0.5,0C56.8,54.3,56.8,54.5,56.9,54.7z"/>
<path id="XMLID_1327_" class="st3" d="M57.9,55c0.1-0.1,0-0.2-0.1-0.2c-0.1-0.1-0.1-0.1-0.2,0c0,0,0,0.1,0.1,0.2
	c0.1,0.2,0.2,0.2,0.1,0.3s-0.2,0.1-0.5-0.1c-0.1-0.1-0.2-0.3-0.1-0.5l0.1,0.1c-0.1,0.1,0,0.2,0.1,0.3c0.1,0.1,0.2,0.1,0.2,0.1
	s0-0.1-0.1-0.2s-0.1-0.2-0.1-0.3c0.1-0.1,0.2-0.1,0.3,0.1C58,54.9,58.2,55,57.9,55L57.9,55z"/>
<path id="XMLID_1325_" class="st3" d="M58.3,55.9L58.3,55.9c-0.1,0-0.2,0-0.3-0.1c-0.1-0.1-0.1-0.3,0-0.5l0.3-0.3l0.1,0.1l-0.3,0.3
	c-0.1,0.1-0.1,0.2,0,0.3s0.2,0.1,0.3,0l0.2-0.2l0.1,0.1l-0.5,0.5L58.3,55.9L58.3,55.9z"/>
<path id="XMLID_1323_" class="st3" d="M59.5,56.6c0.1-0.1,0.1-0.2,0-0.3s-0.2-0.1-0.3,0l-0.3,0.3l-0.1-0.1l0.3-0.3
	c0.1-0.1,0.1-0.1,0-0.2s-0.2-0.1-0.3,0l-0.2,0.3l-0.1-0.1l0.5-0.5l0.1,0.1L59,55.9l0,0c0.1,0,0.2,0,0.3,0.1s0.1,0.2,0.1,0.3
	c0.1,0,0.2,0,0.3,0.1C59.7,56.4,59.7,56.6,59.5,56.6l-0.2,0.3l-0.1-0.1L59.5,56.6z"/>
<path id="XMLID_1320_" class="st3" d="M4.2,44.3L4.2,44.3l0.5,0.8l0.6-0.2V45l-0.7,0.3L4.2,44.3z"/>
<path id="XMLID_1317_" class="st3" d="M5.3,44c0.2-0.1,0.5,0,0.6,0.2s0,0.3-0.2,0.5c-0.2,0.1-0.5,0-0.6-0.2S5.1,44.1,5.3,44z
	 M5.5,44.7c0.2-0.1,0.2-0.2,0.1-0.3c-0.1-0.1-0.2-0.2-0.3-0.1c-0.2,0.1-0.2,0.2-0.1,0.3C5.2,44.7,5.4,44.8,5.5,44.7z"/>
<path id="XMLID_1315_" class="st3" d="M5.8,43.9L5.8,43.9L5.9,44l0,0c0-0.1,0-0.2,0.1-0.2l0,0v0.1H5.8c0,0-0.1,0.1,0,0.3l0.1,0.3
	H5.8V43.9z"/>
<path id="XMLID_1312_" class="st3" d="M7.1,43.8c0,0.1,0,0.3-0.2,0.3c-0.2,0.1-0.5,0-0.5-0.2c-0.1-0.2,0-0.3,0.2-0.5
	C6.7,43.4,6.9,43.3,7.1,43.8L6.4,44c0.1,0.1,0.2,0.2,0.3,0.1C7,44,7,43.9,7.1,43.8L7.1,43.8z M7,43.7c-0.1-0.1-0.2-0.1-0.3-0.1
	s-0.2,0.2-0.1,0.3L7,43.7z"/>
<path id="XMLID_1310_" class="st3" d="M8.2,43.1C8.2,43,8.1,43,8,43c-0.1,0.1-0.2,0.2-0.1,0.3l0.2,0.3H8l-0.2-0.5
	C7.8,43,7.7,43,7.6,43c-0.1,0.1-0.2,0.2-0.1,0.3l0.1,0.3H7.5l-0.3-0.7h0.1V43l0,0c0-0.1,0-0.2,0.2-0.2c0.1-0.1,0.2,0,0.3,0
	c0-0.1,0.1-0.2,0.2-0.2C8,42.8,8.2,42.9,8.2,43.1l0.2,0.3H8.3L8.2,43.1z"/>
<path id="XMLID_1307_" class="st3" d="M8.6,42.5L8.6,42.5l0.3,0.6H8.8L8.6,42.5z M8.5,42.3L8.5,42.3l0.1,0.1H8.5V42.3z"/>
<path id="XMLID_1304_" class="st3" d="M8.8,42.4L8.8,42.4l0.1,0.1l0,0c0-0.1,0-0.2,0.2-0.2c0.2-0.1,0.5,0,0.5,0.2
	c0.1,0.2,0,0.3-0.2,0.5c-0.1,0-0.2,0-0.3,0l0,0l0.2,0.3H9.2L8.8,42.4z M9.5,42.9c0.1-0.1,0.2-0.2,0.1-0.3c-0.1-0.1-0.2-0.2-0.3-0.1
	s-0.2,0.2-0.1,0.3C9.2,42.9,9.3,43,9.5,42.9z"/>
<path id="XMLID_1302_" class="st3" d="M10.2,42.1c-0.1-0.1-0.1-0.1-0.2,0c-0.1,0-0.2,0.1-0.1,0.2c0,0.1,0.1,0.1,0.3,0s0.3-0.1,0.3,0
	c0.1,0.1,0,0.2-0.2,0.3c-0.2,0.1-0.3,0.1-0.5-0.1h0.1c0.1,0.1,0.1,0.1,0.3,0c0.1-0.1,0.2-0.1,0.1-0.2c0-0.1-0.1-0.1-0.3,0
	s-0.3,0.1-0.3,0s0-0.2,0.2-0.3C10.1,41.8,10.2,41.8,10.2,42.1L10.2,42.1z"/>
<path id="XMLID_1300_" class="st3" d="M11.1,42L11.1,42c0,0.1-0.1,0.2-0.2,0.2c-0.2,0.1-0.3,0-0.5-0.1l-0.2-0.5h0.1l0.2,0.5
	c0.1,0.1,0.1,0.1,0.2,0.1c0.2-0.1,0.2-0.2,0.1-0.3l-0.1-0.3h0.1l0.3,0.7H11L11.1,42z"/>
<path id="XMLID_1298_" class="st3" d="M12.2,41.2c0-0.1-0.1-0.1-0.2-0.1c-0.1,0.1-0.2,0.2-0.1,0.3l0.2,0.3H12l-0.2-0.5
	c0-0.1-0.1-0.1-0.2-0.1c-0.1,0.1-0.2,0.2-0.1,0.3l0.1,0.3h-0.1L11.2,41h0.1v0.1l0,0c0-0.1,0-0.2,0.2-0.2c0.1-0.1,0.2,0,0.3,0
	c0-0.1,0.1-0.2,0.2-0.2C12.1,40.9,12.2,40.9,12.2,41.2l0.2,0.3h-0.1L12.2,41.2z"/>
<path id="XMLID_1295_" class="st3" d="M49.1,14.1L49.1,14.1l0.7,0.5l0.5-0.5l0.1,0.1l-0.5,0.6L49.1,14.1z"/>
<path id="XMLID_1292_" class="st3" d="M50.1,13.4c0.2-0.2,0.5-0.2,0.6-0.1s0.2,0.3,0,0.6c-0.2,0.2-0.5,0.2-0.6,0.1
	C50,13.7,49.9,13.6,50.1,13.4z M50.6,13.8c0.1-0.1,0.1-0.3,0-0.5s-0.3-0.1-0.5,0c-0.1,0.1-0.1,0.3,0,0.5C50.3,14,50.4,14,50.6,13.8z
	"/>
<path id="XMLID_1290_" class="st3" d="M50.4,12.9L50.4,12.9h0.2l0,0c0-0.1-0.1-0.2,0-0.3l0,0l0.1,0.1c0,0,0,0-0.1,0.1
	s-0.1,0.2,0,0.3l0.2,0.2l-0.1,0.1L50.4,12.9z"/>
<path id="XMLID_1287_" class="st3" d="M51.6,12.4c0.1,0.1,0.1,0.2-0.1,0.5c-0.2,0.2-0.5,0.1-0.6,0s-0.2-0.3,0-0.6
	C51.1,12.1,51.2,12,51.6,12.4L51,12.9c0.1,0.1,0.2,0.1,0.3,0C51.6,12.6,51.6,12.5,51.6,12.4L51.6,12.4z M51.5,12.2
	c-0.1-0.1-0.3,0-0.3,0.1c-0.1,0.1-0.1,0.2,0,0.3L51.5,12.2z"/>
<path id="XMLID_1285_" class="st3" d="M52.3,11.2c-0.1-0.1-0.2-0.1-0.3,0s-0.1,0.2,0,0.3l0.3,0.2l-0.1,0.1l-0.3-0.3
	c-0.1-0.1-0.1-0.1-0.2,0s-0.1,0.2,0,0.3L52,12l-0.1,0.1l-0.6-0.5l0.1-0.1l0.1,0.1l0,0c0-0.1,0-0.2,0.1-0.3s0.2-0.1,0.2-0.1
	c0-0.1,0-0.2,0.1-0.3C52,11,52.1,11,52.3,11.2l0.5,0.2l-0.1,0.1L52.3,11.2z"/>
<path id="XMLID_1282_" class="st3" d="M52.5,10.5L52.5,10.5l0.6,0.3L53,10.9L52.5,10.5z M52.3,10.4L52.3,10.4h0.2H52.3L52.3,10.4z"
	/>
<path id="XMLID_1279_" class="st3" d="M52.6,10.4L52.6,10.4h0.2l0,0c0-0.1-0.1-0.2,0.1-0.3c0.2-0.2,0.5-0.1,0.6,0s0.2,0.3,0,0.6
	c-0.1,0.1-0.2,0.1-0.3,0.1l0,0l0.3,0.2l-0.1,0.1L52.6,10.4z M53.4,10.5c0.1-0.1,0.1-0.3,0-0.5c-0.1-0.1-0.2-0.1-0.5,0
	c-0.1,0.1-0.1,0.3,0,0.5C53.1,10.7,53.3,10.7,53.4,10.5z"/>
<path id="XMLID_1277_" class="st3" d="M53.7,9.4c-0.1,0-0.2,0-0.2,0.1c-0.1,0.1-0.1,0.2,0,0.2c0,0,0.1,0,0.2-0.1s0.2-0.2,0.3-0.1
	s0.1,0.2,0,0.5c-0.1,0.1-0.3,0.2-0.5,0.1l0.1-0.1c0.1,0.1,0.2,0,0.3-0.1s0.1-0.2,0-0.2c0,0-0.1,0-0.2,0.1s-0.2,0.2-0.3,0.1
	c-0.1-0.1-0.1-0.2,0-0.3C53.5,9.3,53.6,9.3,53.7,9.4L53.7,9.4z"/>
<path id="XMLID_1275_" class="st3" d="M54.5,9.1L54.5,9.1c0,0.1,0,0.2-0.1,0.3c-0.1,0.2-0.3,0.1-0.5,0l-0.3-0.3L53.7,9L54,9.3
	c0.1,0.1,0.2,0.1,0.2,0c0.1-0.1,0.1-0.2,0-0.3l-0.3-0.2L54,8.7l0.6,0.5L54.5,9.1L54.5,9.1z"/>
<path id="XMLID_1273_" class="st3" d="M55.2,7.8c-0.1-0.1-0.2-0.1-0.3,0s-0.1,0.2,0,0.3l0.3,0.2l-0.1,0.1l-0.3-0.3
	c-0.1-0.1-0.1-0.1-0.2,0s-0.1,0.2,0,0.3l0.3,0.2l-0.1,0.1l-0.6-0.5l0.1-0.1l0.1,0.1l0,0c0-0.1,0-0.2,0.1-0.3
	c0.1-0.1,0.2-0.1,0.2-0.1c0-0.1,0-0.2,0.1-0.3C55,7.6,55.1,7.6,55.2,7.8L55.7,8l-0.1,0.1L55.2,7.8z"/>
<path id="XMLID_1270_" class="st3" d="M22.1,8.3L22.1,8.3l-0.7,0.5l0.2,0.5h-0.1l-0.3-0.6L22.1,8.3z"/>
<path id="XMLID_1267_" class="st3" d="M22.3,9.3c0.1,0.2,0,0.5-0.1,0.5c-0.1,0.1-0.3,0-0.5-0.1c-0.1-0.2,0-0.5,0.1-0.5
	C22.1,9.1,22.2,9.1,22.3,9.3z M21.9,9.5c0.1,0.1,0.2,0.2,0.3,0.1c0.1-0.1,0.2-0.2,0.1-0.3c-0.1-0.1-0.2-0.2-0.3-0.1
	C21.8,9.3,21.8,9.4,21.9,9.5z"/>
<path id="XMLID_1265_" class="st3" d="M22.6,9.8L22.6,9.8L22.6,9.8L22.6,9.8c0,0.1,0.1,0.1,0.1,0.2l0,0h-0.1
	C22.6,10,22.6,10,22.6,9.8c0,0-0.1,0-0.3,0L22,9.9V9.8H22.6z"/>
<path id="XMLID_1262_" class="st3" d="M22.8,10.9c-0.1,0-0.2,0-0.3-0.2s0-0.5,0.1-0.5c0.1-0.1,0.3-0.1,0.5,0.1
	C23,10.5,23.1,10.8,22.8,10.9l-0.2-0.6c-0.1,0.1-0.2,0.2-0.1,0.3C22.6,10.9,22.6,10.9,22.8,10.9L22.8,10.9z M22.9,10.8
	c0.1-0.1,0.1-0.2,0.1-0.3c0-0.1-0.1-0.2-0.3-0.1L22.9,10.8z"/>
<path id="XMLID_1260_" class="st3" d="M23.5,11.9c0.1,0,0.1-0.1,0.1-0.2c-0.1-0.1-0.2-0.1-0.3-0.1L23,11.8v-0.1l0.3-0.2
	c0.1,0,0.1-0.1,0-0.2s-0.2-0.1-0.3-0.1l-0.3,0.1v-0.1l0.6-0.3V11H23l0,0c0.1,0,0.2,0,0.2,0.1c0.1,0.1,0,0.2,0,0.2
	c0.1,0,0.2,0,0.2,0.1C23.7,11.8,23.6,11.9,23.5,11.9l-0.3,0.2V12L23.5,11.9z"/>
<path id="XMLID_1257_" class="st3" d="M23.9,12.2L23.9,12.2l-0.6,0.3v-0.1L23.9,12.2z M24.1,12.1L24.1,12.1L24.1,12.1L24.1,12.1
	L24.1,12.1z"/>
<path id="XMLID_1254_" class="st3" d="M24,12.5L24,12.5L24,12.5L24,12.5c0,0.1,0.1,0.1,0.1,0.2c0.1,0.2,0,0.5-0.1,0.5
	c-0.1,0.1-0.3,0.1-0.5-0.1c-0.1-0.1,0-0.2,0-0.3l0,0L23.2,13v-0.2L24,12.5z M23.7,13c0.1,0.1,0.2,0.2,0.3,0.1
	c0.1-0.1,0.2-0.2,0.1-0.3c-0.1-0.1-0.2-0.2-0.3-0.1C23.7,12.7,23.6,12.9,23.7,13z"/>
<path id="XMLID_1252_" class="st3" d="M24.5,13.7c0.1-0.1,0.1-0.1,0-0.2c0-0.1-0.1-0.1-0.2-0.1s0,0.1,0,0.2c0.1,0.2,0.1,0.2,0,0.3
	c-0.1,0.1-0.2,0-0.3-0.2s-0.1-0.3,0-0.3v0.1c-0.1,0.1-0.1,0.1,0,0.2s0.1,0.2,0.2,0.1c0.1,0,0.1-0.1,0-0.2c-0.1-0.2-0.1-0.2,0-0.3
	c0.1,0,0.2,0,0.3,0.1C24.6,13.6,24.6,13.7,24.5,13.7L24.5,13.7z"/>
<path id="XMLID_1250_" class="st3" d="M24.5,14.5L24.5,14.5c-0.1,0-0.2,0-0.2-0.2c-0.1-0.2,0-0.3,0.1-0.3l0.3-0.2v0.1l-0.3,0.2
	c-0.1,0.1-0.1,0.1-0.1,0.2C24.4,14.4,24.5,14.5,24.5,14.5l0.4-0.2v0.1l-0.6,0.3L24.5,14.5L24.5,14.5z"/>
<path id="XMLID_1248_" class="st3" d="M25.4,15.5c0.1,0,0.1-0.1,0.1-0.2c-0.1-0.1-0.2-0.1-0.3-0.1l-0.3,0.2v-0.1l0.3-0.2
	c0.1,0,0.1-0.1,0-0.2s-0.2-0.1-0.3-0.1l-0.3,0.1v-0.1l0.6-0.3v0.1h-0.1l0,0c0.1,0,0.2,0,0.2,0.1c0.1,0.1,0,0.2,0,0.2
	c0.1,0,0.2,0,0.2,0.1C25.6,15.4,25.5,15.5,25.4,15.5L25,15.8v-0.1L25.4,15.5z"/>
<circle id="XMLID_257_" class="st4" cx="33.7" cy="32" r="3.3"/>
<g id="XMLID_45_">
</g>
</svg>
