<?xml version="1.0" encoding="utf-8"?>
<!-- Generator: Adobe Illustrator 19.0.0, SVG Export Plug-In . SVG Version: 6.00 Build 0)  -->
<svg version="1.1" id="图层_1" xmlns="http://www.w3.org/2000/svg" xmlns:xlink="http://www.w3.org/1999/xlink" x="0px" y="0px"
	 viewBox="57 -95.8 226.8 226.8" style="enable-background:new 57 -95.8 226.8 226.8;" xml:space="preserve">
<style type="text/css">
	.st0{fill:#EC6E68;}
</style>
<polygon id="XMLID_450_" class="st0" points="225.8,-53.5 274.7,-53.5 274.7,-78.6 223.9,-78.6 217,-83 151.6,17.2 217,116.5 
	221.9,113.5 274.5,113.5 274.5,88.3 226.4,88.3 180.8,17.2 "/>
<polygon id="XMLID_423_" class="st0" points="181.6,87.2 93.9,87.2 93.9,29.4 145.4,29.4 137.8,17.2 145.6,4.6 93.9,4.6 93.9,-53.7 
	181.8,-53.7 197.7,-79.2 93.9,-79.2 68.1,-79.2 68.1,-53.7 68.1,4.6 68.1,29.4 68.1,87.2 68.1,102.7 68.1,112.8 197.6,112.8 "/>
</svg>
