<?xml version="1.0" encoding="utf-8"?>
<!-- Generator: Adobe Illustrator 19.0.0, SVG Export Plug-In . SVG Version: 6.00 Build 0)  -->
<svg version="1.1" id="图层_1" xmlns="http://www.w3.org/2000/svg" xmlns:xlink="http://www.w3.org/1999/xlink" x="0px" y="0px"
	 viewBox="0 0 226.8 226.8" style="enable-background:new 0 0 226.8 226.8;" xml:space="preserve">
<style type="text/css">
	.st0{fill:#FF335F;}
	.st1{fill:#00C46E;}
</style>
<polygon id="XMLID_450_" class="st0" points="168.8,42.3 217.7,42.3 217.7,17.2 166.9,17.2 160,12.8 94.6,113 160,212.3 
	164.9,209.3 217.5,209.3 217.5,184.1 169.4,184.1 123.8,113 "/>
<polygon id="XMLID_423_" class="st1" points="124.6,183 36.9,183 36.9,125.2 88.4,125.2 80.8,113 88.6,100.4 36.9,100.4 36.9,42.1 
	124.8,42.1 140.7,16.6 36.9,16.6 11.1,16.6 11.1,42.1 11.1,100.4 11.1,125.2 11.1,183 11.1,198.5 11.1,208.6 140.6,208.6 "/>
</svg>
